<svg width="48" height="48" viewBox="0 0 48 48" fill="none" xmlns="http://www.w3.org/2000/svg">
<path d="M35.4286 40.4844L33.1429 15.7188V7.51564C33.1429 7.21096 33.0286 6.90627 32.7999 6.69525L30.5142 4.3515C30.0799 3.88283 29.3486 3.88283 28.9143 4.3515L27.4286 5.8515L25.9428 4.3515C25.5085 3.88283 24.7772 3.88283 24.3429 4.3515L22.8571 5.8515L21.3713 4.3515C20.9371 3.88283 20.2058 3.88283 19.7714 4.3515L18.2857 5.8515L16.7999 4.3515C16.3656 3.88283 15.6344 3.88283 15.2 4.3515L13.7143 5.8515L12.2285 4.3515C11.7942 3.88283 11.0629 3.88283 10.6286 4.3515L8.34286 6.69525C8.11429 6.90627 8 7.21096 8 7.51564V38.1406C8 41.375 10.56 44 13.7143 44H36.5714L35.4286 40.4844Z" fill="#2F996C"/>
<path d="M21.3037 30.4922H14.4466C13.8149 30.4922 13.3037 31.0163 13.3037 31.6641C13.3037 32.3118 13.8149 32.8359 14.4466 32.8359H21.3037C21.9354 32.8359 22.4466 32.3118 22.4466 31.6641C22.4466 31.0163 21.9354 30.4922 21.3037 30.4922ZM21.3037 35.1797H14.4466C13.8149 35.1797 13.3037 35.7038 13.3037 36.3516C13.3037 36.9993 13.8149 37.5234 14.4466 37.5234H21.3037C21.9354 37.5234 22.4466 36.9993 22.4466 36.3516C22.4466 35.7038 21.9354 35.1797 21.3037 35.1797ZM25.8751 30.4922C25.244 30.4922 24.7323 31.0168 24.7323 31.6641C24.7323 32.3112 25.244 32.8359 25.8751 32.8359C26.5063 32.8359 27.018 32.3112 27.018 31.6641C27.018 31.0167 26.5063 30.4922 25.8751 30.4922ZM25.8751 35.1797C25.244 35.1797 24.7323 35.7043 24.7323 36.3516C24.7323 36.9987 25.244 37.5234 25.8751 37.5234C26.5063 37.5234 27.018 36.9987 27.018 36.3516C27.018 35.7042 26.5063 35.1797 25.8751 35.1797Z" fill="white"/>
<path d="M39.6573 17.7109L38.5144 16.539C38.0801 16.0937 37.3489 16.0937 36.9145 16.539L36.2287 17.2421C35.7944 17.6874 35.0631 17.6874 34.6288 17.2421L33.1431 15.7188V40.4844C33.1431 42.3747 34.618 44 36.5716 44C38.5779 44 40.0002 42.2166 40.0002 40.2969V18.5546C40.0002 18.2266 39.8859 17.9453 39.6573 17.7109Z" fill="#D6EEE4"/>
<path d="M18.5953 23C18.1319 23 17.6685 22.8244 17.3148 22.4731L13.5829 18.7675C12.8754 18.0653 12.7761 17.0356 13.4836 16.3333C14.1911 15.6308 15.3641 15.6308 16.0716 16.3333L18.5953 19.32L23.9064 13.5269C24.6139 12.8244 25.8728 12.8244 26.5803 13.5269C27.2878 14.2291 27.032 15.3677 26.3245 16.0699L19.8759 22.4731C19.5222 22.8244 19.0588 23 18.5953 23Z" fill="white"/>
</svg>
