<svg width="57" height="56" viewBox="0 0 57 56" fill="none" xmlns="http://www.w3.org/2000/svg">
    <defs>
        <linearGradient id="paint0_linear_19182_20654" x1="30.0441" y1="9.28256" x2="30.0212"
                y2="45.194" gradientUnits="userSpaceOnUse">
            <stop stop-color="#A5DE95" />
            <stop offset="1" stop-color="#268936" />
        </linearGradient>
    </defs>
    <circle cx="28.833" cy="28" r="28" fill="#EBFAEF" />
    <path d="M22.501 11.7896H42.395L38.271 17.6353V41.0185C38.271 43.2042 36.7799 45.194 34.74 45.194C33.3589 45.194 31.319 44.3992 30.1079 43.2291H17.7839V16.6909C17.7839 13.9753 19.9087 11.7896 22.501 11.7896Z"
            fill="url(#paint0_linear_19182_20654)" />
    <path d="M28.806 31.7578H23.0066C22.4724 31.7578 22.04 32.1955 22.04 32.7365C22.04 33.2774 22.4724 33.7151 23.0066 33.7151H28.806C29.3403 33.7151 29.7726 33.2774 29.7726 32.7365C29.7726 32.1955 29.3403 31.7578 28.806 31.7578ZM28.806 35.6724H23.0066C22.4724 35.6724 22.04 36.1101 22.04 36.6511C22.04 37.192 22.4724 37.6297 23.0066 37.6297H28.806C29.3403 37.6297 29.7726 37.192 29.7726 36.6511C29.7726 36.1101 29.3403 35.6724 28.806 35.6724ZM32.6723 31.7578C32.1385 31.7578 31.7057 32.1959 31.7057 32.7365C31.7057 33.2769 32.1385 33.7151 32.6723 33.7151C33.2061 33.7151 33.6388 33.2769 33.6388 32.7365C33.6388 32.1959 33.2061 31.7578 32.6723 31.7578ZM32.6723 35.6724C32.1385 35.6724 31.7057 36.1105 31.7057 36.6511C31.7057 37.1915 32.1385 37.6297 32.6723 37.6297C33.2061 37.6297 33.6388 37.1915 33.6388 36.6511C33.6388 36.1105 33.2061 35.6724 32.6723 35.6724Z"
            fill="white" />
    <path d="M26.9566 28.038C26.6248 28.038 26.2932 27.8871 26.0399 27.5854L23.3686 24.4024C22.8622 23.7992 22.7911 22.9147 23.2975 22.3115C23.804 21.708 24.6436 21.708 25.1501 22.3115L26.9566 24.877L30.7583 19.9008C31.2647 19.2974 32.1658 19.2974 32.6723 19.9008C33.1787 20.504 32.9956 21.482 32.4892 22.0852L27.8732 27.5854C27.62 27.8871 27.2883 28.038 26.9566 28.038Z"
            fill="white" />
    <path d="M30.6476 42.0168C30.9965 43.8261 32.5665 45.194 34.4418 45.194H16.0814C14.4895 45.194 13.1158 43.8923 13.1158 42.2595C13.1158 41.708 13.5519 41.2667 14.097 41.2667H29.7318C30.1679 41.2667 30.5604 41.5535 30.6476 42.0168ZM46.1079 15.6948V16.6656C46.1079 17.2172 45.6718 17.6585 45.1267 17.6585H38.3014V15.6948C38.3014 13.5546 40.0459 11.7896 42.1611 11.7896C44.298 11.7896 46.1079 13.5326 46.1079 15.6948Z"
            fill="#B3EBC5" />
</svg>
