<svg width="40" height="40" viewBox="0 0 40 40" fill="none" xmlns="http://www.w3.org/2000/svg">
    <defs>
        <linearGradient id="paint0_linear_1240:69777" x1="13.0775" y1="16.4104" x2="24.3595"
                y2="15.3847" gradientUnits="userSpaceOnUse">
            <stop stop-color="#89A4E8" />
            <stop offset="1" stop-color="#7D9FF3" />
        </linearGradient>
    </defs>
    <circle cx="20" cy="20" r="20" fill="#0C509F" />
    <path d="M27.7995 16.1682L29.4753 15.7686L31.065 16.1682V26.3406C31.065 28.4531 29.3412 30.1564 27.2249 30.1564H23.9785L27.7995 16.1682Z"
            fill="#7FB1FB" />
    <path d="M28.4414 22.9389V19.459L31.1183 20.2621V22.9389H28.4414Z" fill="#6EA7FE" />
    <path d="M9.66406 26.3508V16.1689H28.3091V26.3508C28.3091 28.4538 26.595 30.1572 24.4786 30.1572H13.4946C11.3878 30.1572 9.66406 28.4538 9.66406 26.3508Z"
            fill="#A8CCFC" />
    <path d="M19.5763 28.4348H16.1959C15.717 28.4348 15.334 28.8154 15.334 29.2912C15.334 29.767 15.717 30.1476 16.1959 30.1476H19.8061C23.3015 30.062 26.4712 28.0637 28.013 24.9425C28.1183 24.7236 28.2237 24.5143 28.3194 24.2859V16.1689L26.4521 24.1908C25.1784 26.7981 22.4971 28.4348 19.5763 28.4348Z"
            fill="#A8CCFC" />
    <path d="M17.4648 28.5602L24.1571 26.9541L25.2278 30.1664H18.0002L17.4648 28.5602Z"
            fill="#90BEFC" />
    <path d="M8.3519 28.4341H22.4578C25.2541 28.4341 26.4894 26.1503 27.1502 24.4755C27.8109 22.8007 28.3185 19.1371 28.3185 16.1682L19.0965 15.7686L9.66386 16.1682C9.66386 19.9079 8.44767 23.4288 6.89631 25.7887C6.14935 26.9211 6.99207 28.4341 8.3519 28.4341Z"
            fill="#F3F5FF" />
    <path d="M24.4706 20.6359H22.9008C22.5622 20.6359 22.2852 20.3606 22.2852 20.0242V18.4643C22.2852 18.1278 22.5622 17.8525 22.9008 17.8525H24.4706C24.8092 17.8525 25.0862 18.1278 25.0862 18.4643V20.0242C25.0862 20.3606 24.8092 20.6359 24.4706 20.6359Z"
            fill="#4867AD" />
    <path d="M19.6503 20.6359H18.0805C17.7419 20.6359 17.4648 20.3606 17.4648 20.0242V18.4643C17.4648 18.1278 17.7419 17.8525 18.0805 17.8525H19.6503C19.9889 17.8525 20.2659 18.1278 20.2659 18.4643V20.0242C20.2659 20.3606 19.9889 20.6359 19.6503 20.6359Z"
            fill="#4867AD" />
    <path d="M19.6503 25.4543H18.0805C17.7419 25.4543 17.4648 25.179 17.4648 24.8425V23.2826C17.4648 22.9462 17.7419 22.6709 18.0805 22.6709H19.6503C19.9889 22.6709 20.2659 22.9462 20.2659 23.2826V24.8425C20.2659 25.179 19.9889 25.4543 19.6503 25.4543Z"
            fill="#4867AD" />
    <path d="M14.8339 20.6359H13.2641C12.9255 20.6359 12.6484 20.3606 12.6484 20.0242V18.4643C12.6484 18.1278 12.9255 17.8525 13.2641 17.8525H14.8339C15.1725 17.8525 15.4495 18.1278 15.4495 18.4643V20.0242C15.4495 20.3606 15.1725 20.6359 14.8339 20.6359Z"
            fill="#4867AD" />
    <path d="M14.8339 25.4543H13.2641C12.9255 25.4543 12.6484 25.179 12.6484 24.8425V23.2826C12.6484 22.9462 12.9255 22.6709 13.2641 22.6709H14.8339C15.1725 22.6709 15.4495 22.9462 15.4495 23.2826V24.8425C15.4495 25.179 15.1725 25.4543 14.8339 25.4543Z"
            fill="#4867AD" />
    <path d="M31.0546 13.3133V16.1586H27.7987L25.5195 10.6299H28.3541C29.848 10.6299 31.0546 11.8384 31.0546 13.3133Z"
            fill="#215ED6" />
    <path d="M28.3187 12.8946V16.1586H9.66406V12.8946C9.66406 11.6481 10.6887 10.6299 11.9432 10.6299H26.0299C27.294 10.6299 28.3187 11.6481 28.3187 12.8946Z"
            fill="#97B0EF" />
    <path d="M9.74414 16.1539H28.2057V13.5898C17.6929 14.6155 11.3681 14.1881 9.74414 14.1027V16.1539Z"
            fill="url(#paint0_linear_1240:69777)" />
    <path d="M23.7894 7.96582C22.8126 7.96582 22.0273 8.74612 22.0273 9.71673V10.811C22.0273 11.6199 22.6881 12.267 23.4925 12.267C23.7702 12.267 23.9905 12.0481 23.9905 11.7721V11.0299C23.9905 10.811 24.1629 10.6398 24.3831 10.6398H25.5418V9.71673C25.5514 8.75563 24.7662 7.96582 23.7894 7.96582Z"
            fill="white" />
    <path d="M15.4964 7.96582C14.5196 7.96582 13.7344 8.74612 13.7344 9.71673V10.811C13.7344 11.6199 14.3951 12.267 15.1995 12.267C15.4773 12.267 15.6975 12.0481 15.6975 11.7721V11.0299C15.6975 10.811 15.8699 10.6398 16.0901 10.6398H17.2585V9.71673C17.2585 8.75563 16.4732 7.96582 15.4964 7.96582Z"
            fill="white" />
    <path d="M28.079 21.0645C28.0534 21.0645 28.0277 21.0747 28.0021 21.0849C28.0021 21.0849 25.7666 22.1924 22.9824 22.565C22.8901 22.5804 22.8184 22.6569 22.8184 22.7539V26.684C22.8184 29.0931 24.1412 30.5223 25.4487 31.3185C26.7562 32.1147 28.0585 32.3036 28.0585 32.3036C28.079 32.3087 28.0944 32.3087 28.1149 32.3036C28.1149 32.3036 29.4172 32.1147 30.7247 31.3185C32.0322 30.5223 33.355 29.0931 33.355 26.684V22.7539C33.355 22.662 33.2884 22.5804 33.191 22.565C30.4017 22.1976 28.1713 21.0849 28.1713 21.0849C28.1457 21.0696 28.1149 21.0645 28.079 21.0645Z"
            fill="#E67484" />
    <path d="M27.3468 23.9326C27.2082 23.9472 27.1061 24.0636 27.1061 24.2018V25.5402H25.764C25.6181 25.5402 25.4941 25.6566 25.4941 25.8094V27.4097C25.4941 27.5551 25.6181 27.6788 25.764 27.6788H27.0988V29.0173C27.0988 29.1627 27.2228 29.2864 27.3687 29.2864H28.9734C29.1193 29.2864 29.2433 29.17 29.2433 29.0173V27.6788H30.578C30.7239 27.6788 30.8479 27.5624 30.8479 27.4097V25.8094C30.8479 25.6639 30.7239 25.5402 30.578 25.5402H29.2433V24.2018C29.2433 24.0563 29.1193 23.9326 28.9734 23.9326H27.3687C27.3614 23.9326 27.3541 23.9326 27.3468 23.9326Z"
            fill="white" />

</svg>
