<svg width="342" height="342" viewBox="0 0 342 342" fill="none" xmlns="http://www.w3.org/2000/svg">
<g clip-path="url(#clip0_18729_52734)">
<path d="M210.403 341.356C210.403 341.356 250.077 321.785 256.899 311.595C263.721 301.383 253.701 300.808 253.701 300.808C253.701 300.808 271.417 283.582 268.922 276.334C266.428 269.086 257.261 275.737 257.261 275.737C257.261 275.737 268.645 250.389 263.273 247.852C253.274 243.098 239.247 270.365 239.247 270.365C239.247 270.365 242.253 258.512 235.367 258.895C224.985 259.471 225.411 286.268 225.411 286.268C225.411 286.268 224.239 275.993 217.971 279.34C206.757 285.33 210.403 341.356 210.403 341.356Z" fill="#E6E6E6"/>
<path d="M215.732 275.204C220.614 272.497 225.496 280.427 225.496 280.427C225.496 280.427 225.006 259.493 235.388 258.917C242.274 258.533 239.268 270.386 239.268 270.386C239.268 270.386 253.296 243.12 263.294 247.874L210.382 340.951C209.976 334.406 206.054 280.577 215.732 275.204Z" fill="#F0F0F0"/>
<path d="M211.426 341.59C211.426 341.59 243.873 345.619 252.272 342.038C260.672 338.456 254.66 334.001 254.66 334.001C254.66 334.001 272.696 330.462 274.103 324.919C275.488 319.376 267.174 319.824 267.174 319.824C267.174 319.824 284.463 308.631 282.161 304.858C277.855 297.844 258.028 309.143 258.028 309.143C258.028 309.143 264.723 302.982 260.267 300.424C253.552 296.565 242.935 313.449 242.935 313.449C242.935 313.449 243.596 309.292 238.33 308.823C228.886 307.992 211.426 341.59 211.426 341.59Z" fill="#E6E6E6"/>
<path d="M238.117 305.796C243.383 306.265 242.935 313.449 242.935 313.449C242.935 313.449 253.743 293.431 260.459 297.29C264.914 299.848 259.649 308.248 259.649 308.248C259.649 308.248 277.855 297.844 282.161 304.858L211.341 341.419C213.75 337.198 229.291 305.028 238.117 305.796Z" fill="#F0F0F0"/>
<path d="M126.599 340.332C126.599 340.332 86.9256 320.762 80.1036 310.571C73.2817 300.36 83.3014 299.784 83.3014 299.784C83.3014 299.784 65.5857 282.559 68.08 275.311C70.5742 268.062 79.8691 274.991 79.8691 274.991C79.8691 274.991 68.3571 249.366 73.7294 246.829C83.7278 242.075 97.7554 269.341 97.7554 269.341C97.7554 269.341 94.7495 257.488 101.635 257.872C112.017 258.448 111.591 285.245 111.591 285.245C111.591 285.245 112.764 274.969 119.031 278.317C130.266 284.307 126.599 340.332 126.599 340.332Z" fill="#E6E6E6"/>
<path d="M121.291 274.181C116.409 271.473 111.527 279.404 111.527 279.404C111.527 279.404 112.018 258.469 101.635 257.894C94.7495 257.51 97.7554 269.363 97.7554 269.363C97.7554 269.363 83.7278 242.096 73.7294 246.85L126.642 339.885C127.026 333.383 130.97 279.553 121.291 274.181Z" fill="#F0F0F0"/>
<path d="M125.576 340.567C125.576 340.567 93.1292 344.596 84.7297 341.014C76.3302 337.433 82.342 332.977 82.342 332.977C82.342 332.977 64.3065 329.438 62.8995 323.895C61.5138 318.353 70.1265 318.907 70.1265 318.907C70.1265 318.907 52.5387 307.608 54.8411 303.835C59.1474 296.821 78.9737 308.12 78.9737 308.12C78.9737 308.12 72.2796 301.959 76.7352 299.4C83.4506 295.542 94.0672 312.426 94.0672 312.426C94.0672 312.426 93.4063 308.269 98.672 307.8C108.116 306.969 125.576 340.567 125.576 340.567Z" fill="#E6E6E6"/>
<path d="M98.1392 302.172C92.8735 302.641 92.9587 307.736 92.9587 307.736C92.9587 307.736 83.2801 292.408 76.5648 296.267C72.1092 298.825 77.3749 307.224 77.3749 307.224C77.3749 307.224 59.1688 296.821 54.8625 303.835L125.683 340.396C123.274 336.175 106.944 301.404 98.1392 302.172Z" fill="#F0F0F0"/>
<path d="M237.033 99.9688C236.792 101.153 236.551 102.358 235.937 103.345C234.885 104.616 233.898 105.932 232.933 107.291C233.591 107.247 234.249 107.225 234.907 107.225C241.418 107.225 247.469 109.505 251.941 113.671C255.953 117.398 258.167 122.155 258.167 127.088C258.167 132.02 255.953 136.778 251.941 140.505C247.447 144.67 241.396 146.95 234.907 146.95C228.417 146.95 222.388 144.67 217.894 140.527C217.565 141.491 217.236 142.456 216.908 143.42C214.715 144.539 213.181 147.147 213.181 150.195C213.181 154.25 215.899 157.539 219.275 157.539C221.928 157.539 224.164 155.5 224.997 152.65C228.088 153.68 231.421 154.25 234.907 154.25C251.108 154.25 264.218 142.083 264.218 127.066C264.24 112.728 252.248 100.977 237.033 99.9688Z" fill="#E0973F"/>
<path d="M105.56 99.9688C105.801 101.153 106.042 102.358 106.656 103.345C107.708 104.616 108.695 105.932 109.659 107.291C109.002 107.247 108.344 107.225 107.686 107.225C101.175 107.225 95.1243 109.505 90.652 113.671C86.64 117.398 84.4258 122.155 84.4258 127.088C84.4258 132.02 86.64 136.778 90.652 140.505C95.1462 144.67 101.197 146.95 107.686 146.95C114.176 146.95 120.204 144.67 124.699 140.527C125.028 141.491 125.356 142.456 125.685 143.42C127.878 144.539 129.412 147.147 129.412 150.195C129.412 154.25 126.694 157.539 123.318 157.539C120.665 157.539 118.429 155.5 117.596 152.65C114.504 153.68 111.172 154.25 107.686 154.25C91.4851 154.25 78.375 142.083 78.375 127.066C78.375 112.728 90.367 100.977 105.56 99.9688Z" fill="#E0973F"/>
<path d="M241.264 96.8779V104.376C241.264 138.291 213.773 165.804 179.836 165.804C164.204 165.607 153.484 167.207 138.664 160.652C117.289 151.291 101.899 129.807 101.899 104.398V96.8999H241.264V96.8779Z" fill="#F7CC7F"/>
<path d="M138.664 160.652C138.686 160.652 138.686 160.674 138.708 160.674L160.784 96.8779H137.809L120.117 148.025C125.444 153.308 131.736 157.605 138.664 160.652Z" fill="#FAE0B2"/>
<path d="M153.023 164.949L176.328 96.8779H164.774L142.435 162.187C146.14 163.546 149.625 164.401 153.023 164.949Z" fill="#FAE0B2"/>
<path d="M117.859 145.679L135.288 96.8779H129.807L114.044 141.031C115.25 142.654 116.521 144.188 117.859 145.679Z" fill="#FAE0B2"/>
<path d="M235.169 92.625H108.344C103.718 92.625 99.9473 95.2119 99.6842 98.4566H243.851C243.566 95.2119 239.795 92.625 235.169 92.625Z" fill="#F7CC7F"/>
<path d="M148.025 164.007L155.216 200.86H186.588L195.488 164.007H148.025Z" fill="#F7CC7F"/>
<path d="M195.488 164.007L193.472 172.316H149.647L148.025 164.007H195.488Z" fill="#B75742"/>
<path d="M195.488 246.416H148.025L151.598 228.132L155.216 209.585H186.588L191.082 228.132L195.488 246.416Z" fill="#F7CC7F"/>
<path d="M195.488 246.416H148.025L151.598 228.132H191.082L195.488 246.416Z" fill="#B75742"/>
<path d="M192.091 200.859H149.713C147.85 200.859 146.337 202.372 146.337 204.236V206.187C146.337 208.05 147.85 209.563 149.713 209.563H192.113C193.976 209.563 195.489 208.05 195.489 206.187V204.236C195.489 202.372 193.954 200.859 192.091 200.859Z" fill="#FAE0B2"/>
<path d="M198.974 243.939H142.938V233.876C142.938 232.802 143.815 231.903 144.912 231.903H197.023C198.097 231.903 198.996 232.78 198.996 233.876V243.939H198.974Z" fill="#F7CC7F"/>
<path d="M217.499 251.13V254.791H124.413V251.13C124.413 246.921 126.978 243.501 130.157 243.501H211.755C214.934 243.479 217.499 246.899 217.499 251.13Z" fill="#F7CC7F"/>
<path d="M146.336 243.479L143.377 254.791H139.496L142.434 243.479H146.336Z" fill="#FAE0B2"/>
<path d="M140.768 243.479L137.83 254.791H133.928L136.888 243.479H140.768Z" fill="#FAE0B2"/>
<path d="M151.269 243.479L148.332 254.791H144.429L147.389 243.479H151.269Z" fill="#FAE0B2"/>
<path d="M252.16 338.384V342.045H96.1764V338.384C96.1764 334.175 100.495 330.755 105.801 330.755H242.535C247.841 330.755 252.16 334.175 252.16 338.384Z" fill="#1890FF"/>
<path d="M132.898 330.755L127.965 342.045H121.454L126.386 330.755H132.898Z" fill="white"/>
<path d="M123.581 330.755L118.648 342.045H112.115L117.069 330.755H123.581Z" fill="white"/>
<path d="M141.185 330.755L136.252 342.045H129.741L134.673 330.755H141.185Z" fill="white"/>
<path d="M211.493 157.058V159.82C211.493 164.599 207.612 168.48 202.855 168.48H140.374C135.595 168.48 131.714 164.599 131.714 159.82V157.058H211.493Z" fill="#F7CC7F"/>
<path d="M230.522 330.754H113.123L114.57 254.79H228.943L230.522 330.754Z" fill="#1976CC"/>
<path d="M202.592 330.754H141.053L141.799 254.79H201.781L202.592 330.754Z" fill="#1890FF"/>
<path d="M341.936 336.99C342.405 336.99 342.789 336.606 342.789 336.137C342.789 335.668 342.405 335.284 341.936 335.284" fill="#184655"/>
<path d="M239.65 254.231C239.65 259.049 235.407 263.121 234 267.47C232.529 271.968 233.531 277.767 230.802 281.519C228.052 285.314 222.211 286.145 218.438 288.895C214.686 291.624 212.106 296.932 207.608 298.382C203.259 299.789 198.078 297.082 193.26 297.082C188.442 297.082 183.262 299.81 178.913 298.382C174.415 296.911 171.814 291.624 168.083 288.895C164.288 286.145 158.469 285.293 155.718 281.519C152.99 277.767 153.97 271.99 152.521 267.47C151.114 263.121 146.871 259.049 146.871 254.231C146.871 249.413 151.114 245.342 152.521 240.993C153.992 236.494 152.99 230.696 155.718 226.944C158.469 223.149 164.31 222.318 168.083 219.567C171.835 216.839 174.415 211.53 178.913 210.081C183.262 208.674 188.442 211.381 193.26 211.381C198.078 211.381 203.259 208.652 207.608 210.081C212.106 211.552 214.707 216.839 218.438 219.567C222.232 222.318 228.052 223.17 230.802 226.944C233.531 230.696 232.551 236.473 234 240.993C235.407 245.32 239.65 249.413 239.65 254.231Z" fill="#F47458"/>
<path d="M204.794 295.419C203.344 295.419 201.639 295.035 199.848 294.652C197.716 294.183 195.541 293.714 193.239 293.714C190.937 293.714 188.741 294.204 186.63 294.652C184.84 295.057 183.134 295.419 181.684 295.419C181.024 295.419 180.448 295.334 179.936 295.185C178.082 294.588 176.419 292.69 174.649 290.686C173.264 289.109 171.814 287.467 170.044 286.167C168.254 284.867 166.228 283.971 164.267 283.14C161.837 282.074 159.534 281.093 158.405 279.537C157.296 278.023 157.061 275.529 156.806 272.907C156.592 270.775 156.379 268.579 155.697 266.447C155.036 264.401 153.928 262.546 152.862 260.755C151.497 258.453 150.197 256.257 150.197 254.253C150.197 252.249 151.497 250.053 152.862 247.751C153.928 245.96 155.015 244.105 155.697 242.059C156.401 239.927 156.614 237.731 156.806 235.599C157.061 232.977 157.317 230.483 158.405 228.969C159.534 227.413 161.837 226.432 164.267 225.366C166.228 224.514 168.254 223.64 170.044 222.339C171.814 221.039 173.264 219.419 174.649 217.82C176.419 215.816 178.082 213.918 179.936 213.321C180.427 213.151 181.002 213.087 181.684 213.087C183.134 213.087 184.84 213.449 186.63 213.854C188.762 214.323 190.958 214.792 193.239 214.792C195.541 214.792 197.737 214.302 199.848 213.854C201.639 213.449 203.344 213.087 204.794 213.087C205.455 213.087 206.03 213.172 206.542 213.321C208.397 213.918 210.059 215.816 211.829 217.82C213.215 219.397 214.664 221.039 216.434 222.339C218.224 223.64 220.25 224.535 222.211 225.366C224.641 226.432 226.944 227.413 228.074 228.969C229.182 230.483 229.417 232.977 229.672 235.599C229.886 237.731 230.099 239.927 230.781 242.059C231.442 244.105 232.55 245.96 233.616 247.751C234.981 250.053 236.281 252.249 236.281 254.253C236.281 256.278 234.981 258.453 233.616 260.755C232.55 262.546 231.463 264.401 230.781 266.447C230.078 268.579 229.864 270.775 229.672 272.907C229.417 275.529 229.161 278.023 228.074 279.537C226.944 281.093 224.641 282.074 222.211 283.14C220.25 283.992 218.224 284.867 216.434 286.167C214.664 287.467 213.215 289.088 211.829 290.686C210.059 292.69 208.397 294.588 206.542 295.185C206.051 295.334 205.476 295.419 204.794 295.419Z" fill="#F7CC7F"/>
<path d="M226.743 258.905C229.329 240.411 216.433 223.322 197.939 220.736C179.445 218.15 162.356 231.046 159.77 249.54C157.183 268.034 170.079 285.123 188.573 287.709C207.068 290.295 224.157 277.4 226.743 258.905Z" fill="#F47458"/>
<path d="M193.239 286.359C210.982 286.359 225.366 271.975 225.366 254.232C225.366 236.488 210.982 222.104 193.239 222.104C175.496 222.104 161.112 236.488 161.112 254.232C161.112 271.975 175.496 286.359 193.239 286.359Z" fill="white"/>
<path d="M222.206 257.098C223.789 241.094 212.098 226.836 196.094 225.253C180.089 223.67 165.832 235.361 164.249 251.365C162.666 267.37 174.356 281.627 190.361 283.21C206.365 284.793 220.623 273.103 222.206 257.098Z" fill="#F7CC7F"/>
<path d="M101.889 127.428C102.209 128.728 102.784 130.796 102.784 130.796C102.742 131.372 102.571 133.738 102.379 136.616L106.643 134.911C106.643 134.911 106.6 130.199 106.792 129.901C106.963 129.666 107.219 129.965 108.519 128.089C108.903 127.556 108.967 126.596 108.967 126.596C108.967 126.596 109.052 125.403 108.775 125.296C108.519 125.189 108.199 125.36 108.114 125.573C108.007 125.786 108.05 126.255 107.943 126.468C107.837 126.682 107.24 126.916 106.963 126.916C106.707 126.895 107.005 123.42 107.005 123.42C107.005 123.42 107.155 122.439 107.219 122.098C107.283 121.821 107.538 121.011 107.538 121.011C107.538 121.011 107.837 119.838 107.474 119.753C107.261 119.71 106.707 120.648 106.345 121.672C105.939 122.759 105.705 123.932 105.598 123.91C105.321 123.868 105.47 121.949 105.47 121.949C105.47 121.949 105.748 121.075 105.726 120.649C105.982 120.137 106.153 119.199 105.705 119.114C105.62 119.092 105.023 120.286 105.023 120.286C105.023 120.286 104.788 121.118 104.66 121.523C104.426 122.226 104.383 123.313 104.255 123.804C104.149 124.209 104.063 124.038 104.021 124.059C103.978 124.081 104.042 123.526 104.106 122.759C104.149 122.375 104.085 121.928 104.213 121.501C104.319 121.096 104.362 120.521 104.405 120.158C104.469 119.178 103.85 119.263 103.637 120.179C103.552 120.521 103.467 120.904 103.381 121.288C103.04 122.78 103.061 124.209 102.891 124.209C102.678 124.23 102.827 121.629 102.827 121.629C102.827 121.629 102.507 120.179 102.187 121.523C101.825 123.079 101.868 124.337 101.868 124.401C101.846 124.763 101.569 126.106 101.889 127.428Z" fill="#F8A492"/>
<path d="M147.084 123.975C146.764 125.275 146.189 127.343 146.189 127.343C146.232 127.919 146.402 130.264 146.594 133.163L142.33 131.457C142.33 131.457 142.373 126.746 142.181 126.448C142.01 126.213 141.755 126.512 140.454 124.636C140.07 124.103 140.007 123.143 140.007 123.143C140.007 123.143 139.921 121.949 140.198 121.843C140.454 121.736 140.774 121.907 140.859 122.12C140.966 122.333 140.923 122.802 141.03 123.015C141.136 123.229 141.733 123.463 142.01 123.463C142.266 123.442 141.968 119.967 141.968 119.967C141.968 119.967 141.819 118.986 141.755 118.645C141.691 118.368 141.435 117.558 141.435 117.558C141.435 117.558 141.136 116.385 141.499 116.3C141.712 116.257 142.266 117.195 142.629 118.219C143.034 119.306 143.268 120.478 143.375 120.457C143.652 120.414 143.503 118.496 143.503 118.496C143.503 118.496 143.226 117.622 143.247 117.195C142.991 116.684 142.821 115.746 143.268 115.66C143.354 115.639 143.95 116.833 143.95 116.833C143.95 116.833 144.185 117.664 144.313 118.069C144.547 118.773 144.59 119.86 144.718 120.351C144.824 120.756 144.91 120.585 144.952 120.606C144.995 120.628 144.931 120.073 144.867 119.306C144.824 118.922 144.888 118.474 144.761 118.048C144.654 117.643 144.611 117.067 144.569 116.705C144.505 115.724 145.123 115.81 145.336 116.726C145.421 117.067 145.507 117.451 145.592 117.835C145.933 119.327 145.912 120.756 146.082 120.756C146.295 120.777 146.146 118.176 146.146 118.176C146.146 118.176 146.466 116.726 146.786 118.069C147.148 119.626 147.106 120.883 147.106 120.947C147.127 121.31 147.404 122.674 147.084 123.975Z" fill="#F8A492"/>
<path d="M120.521 139.324C120.521 139.324 122.696 137.043 124.423 139.815C124.423 139.815 125.766 139.068 126.704 140.411C126.704 140.411 129.134 139.687 129.71 143.311C129.71 143.311 130.968 143.076 131.117 144.569C131.287 146.061 130.52 147.042 130.52 147.042C130.52 147.042 131.223 147.574 130.904 148.939C130.626 150.09 129.667 150.282 129.667 150.282C129.667 150.282 129.411 152.243 128.559 152.819C127.706 153.416 126.555 153.117 126.555 153.117C126.555 153.117 126.256 154.183 125.254 154.077C124.274 153.991 123.037 153.032 121.928 153.458C120.82 153.885 117.942 153.437 117.942 153.437C117.942 153.437 114.723 152.009 115.682 148.704C115.682 148.704 113.977 147.169 115.469 145.336C115.469 145.336 114.382 142.458 116.535 140.774C118.731 139.068 120.521 139.324 120.521 139.324Z" fill="#07345A"/>
<path d="M135.444 235.023C135.444 235.023 137.811 237.944 138.386 238.307C138.983 238.669 138.13 242.911 136.532 243.188C135.636 243.338 135.125 242.357 135.125 242.357L135.38 241.142L132.012 237.667L135.444 235.023Z" fill="#F7A491"/>
<path d="M123.271 235.748C123.271 235.748 125.233 238.946 125.787 239.394C126.32 239.82 124.934 243.934 123.314 243.998C122.397 244.041 122.035 242.996 122.035 242.996L122.44 241.824L119.541 237.944L123.271 235.748Z" fill="#F7A491"/>
<path d="M125.659 239.266C125.659 239.266 124.529 240.715 123.911 241.291C123.122 242.037 122.099 242.762 122.099 242.762C122.099 242.762 120.948 244.851 120.628 245.597C119.924 247.218 119.136 249.03 119.242 249.946C119.285 250.245 119.946 250.543 120.479 250.373C122.76 249.669 128.58 244.339 129.326 242.911C130.2 241.248 125.659 239.266 125.659 239.266Z" fill="#07345A"/>
<path d="M109.031 190.468C109.244 189.871 109.436 189.316 109.649 188.805C112.079 189.338 114.808 189.913 117.622 190.51L117.963 200.85C117.963 200.061 115.853 217.329 115.853 217.329C115.853 217.329 121.332 229.459 125.084 236.516C123.549 238.434 122.824 239.053 120.607 240.353C114.787 233.382 107.176 220.633 106.878 218.501C106.664 217.286 106.494 197.567 109.031 190.468Z" fill="#263238"/>
<path d="M130.669 193.452C129.923 201.51 128.281 216.881 128.409 218.117C128.814 219.652 136.148 233.893 137.47 235.982C136.425 237.56 134.805 239.265 133.057 239.734C132.716 239.82 120.628 222.616 119.967 221.251C119.221 219.716 117.984 211.274 117.963 200.849L117.622 190.51C122.312 191.512 126.619 192.492 130.669 193.452Z" fill="#263238"/>
<path d="M115.256 156.763L120.777 157.53C120.777 157.53 125.211 157.637 125.766 157.637C126.32 157.637 129.795 177.804 130.797 185.394C131.799 192.983 131.031 194.326 131.031 194.326C131.031 194.326 124.018 195.904 118.837 195.435C113.444 194.966 107.389 192.045 107.389 192.045C107.389 192.045 111.994 177.463 112.911 172.922C113.785 168.339 115.256 156.763 115.256 156.763Z" fill="#1976CC"/>
<path d="M101.846 132.331C101.846 132.331 101.484 147.361 102.06 148.512C102.891 150.175 112.165 162.049 112.165 162.049C112.165 162.049 107.73 180.596 105.876 187.013C105.684 187.653 104.852 191.831 104.852 192.236C104.852 193.132 108.775 194.283 109.244 194.219C109.67 194.155 113.081 176.503 115.277 167.869C116.023 164.949 117.281 162.177 119.029 159.704L120.543 157.551L108.881 145.869C108.881 145.869 107.453 132.864 107.453 131.777C107.432 131.479 102.422 131.265 101.846 132.331Z" fill="#1890FF"/>
<path d="M125.553 157.594L140.092 142.777C140.092 142.777 142.117 128.771 142.266 128.238C142.416 127.726 146.018 127.449 147.468 127.3C147.937 127.257 147.234 142.223 146.53 144.738C145.699 147.702 134.72 161.196 134.72 161.196C134.72 161.196 132.758 168.509 133.227 173.881C134.016 182.792 136.148 195.05 135.764 195.434C133.398 196.926 124.337 197.076 123.762 196.159C117.409 185.947 125.553 157.594 125.553 157.594Z" fill="#1890FF"/>
<path d="M120.884 154.823L120.5 157.744C120.5 157.744 119.626 161.943 120.756 162.753C121.886 163.564 125.574 157.637 125.574 157.637L125.19 150.261L120.884 154.823Z" fill="#FFBE9D"/>
<path d="M125.297 152.627C124.359 155.143 122.142 156.699 120.564 157.296L120.905 154.823L125.19 150.239L125.297 152.627Z" fill="#F47458"/>
<path d="M131.181 145.229C131.181 146.359 130.541 147.255 129.752 147.255C128.964 147.255 128.324 146.338 128.324 145.229C128.324 144.099 128.964 143.204 129.752 143.204C130.541 143.204 131.181 144.121 131.181 145.229Z" fill="#07345A"/>
<path d="M125.169 142.032C126.123 142.032 126.896 141.507 126.896 140.859C126.896 140.211 126.123 139.687 125.169 139.687C124.215 139.687 123.442 140.211 123.442 140.859C123.442 141.507 124.215 142.032 125.169 142.032Z" fill="#07345A"/>
<path d="M122.547 142.501C120.244 141.712 117.814 143.225 117.452 145.592C117.302 146.615 117.153 147.916 117.132 149.323C117.068 152.712 118.837 156.038 120.372 156.038C121.907 156.038 126.171 153.842 126.341 149.003C126.448 146.04 124.956 143.332 122.547 142.501Z" fill="#FFBE9D"/>
<path d="M125.212 149.387C125.212 150.133 125.702 150.751 126.32 150.751C126.938 150.751 127.429 150.133 127.429 149.387C127.429 148.641 126.938 148.022 126.32 148.022C125.702 148.044 125.212 148.641 125.212 149.387Z" fill="#F7A491"/>
<path d="M115.853 140.816C114.254 142.074 113.699 143.992 114.595 145.101C115.49 146.21 117.537 146.082 119.114 144.824C120.713 143.566 121.267 141.647 120.372 140.539C119.477 139.409 117.451 139.537 115.853 140.816Z" fill="#07345A"/>
<path d="M121.502 142.842C122.314 142.842 122.973 142.393 122.973 141.84C122.973 141.286 122.314 140.838 121.502 140.838C120.69 140.838 120.031 141.286 120.031 141.84C120.031 142.393 120.69 142.842 121.502 142.842Z" fill="#07345A"/>
<path d="M115.618 146.06C115.618 146.764 116.194 147.339 116.876 147.339C117.579 147.339 118.134 146.764 118.134 146.06C118.134 145.357 117.558 144.781 116.876 144.781C116.194 144.781 115.618 145.357 115.618 146.06Z" fill="#07345A"/>
<path d="M138.258 238.199C138.258 238.199 137.32 239.777 136.787 240.416C136.084 241.248 135.167 242.101 135.167 242.101C135.167 242.101 134.293 244.318 134.08 245.085C133.59 246.791 133.035 248.837 133.27 249.733C133.334 250.01 133.973 250.564 134.485 250.223C136.489 248.922 141.819 242.825 142.373 241.312C142.991 239.585 138.258 238.199 138.258 238.199Z" fill="#07345A"/>
<path d="M247.238 180.263C247.238 180.263 240.161 181.409 234.93 186.892C229.699 192.375 226.575 201.198 226.575 201.198L237.273 204.488C237.273 204.513 232.989 193.995 247.238 180.263Z" fill="#FAE0B2"/>
<path d="M249.714 185.922L248.94 179.795L243.422 176.96C242.793 176.648 242.818 175.735 243.447 175.446L249.061 172.803L250.053 166.725C250.174 166.028 251.021 165.764 251.529 166.292L255.788 170.785L261.934 169.848C262.636 169.752 263.144 170.473 262.805 171.098L259.804 176.504L262.587 182.006C262.902 182.631 262.369 183.351 261.668 183.231L255.57 182.078L251.142 186.427C250.682 186.931 249.811 186.619 249.714 185.922Z" fill="#F7CC7F"/>
<path d="M55.575 214.463C55.575 214.463 62.6519 215.576 67.8826 220.897C73.1133 226.219 76.2375 234.782 76.2375 234.782L65.5394 237.975C65.5157 237.975 69.7997 227.767 55.575 214.463Z" fill="#FAE0B2"/>
<path d="M49.5361 219.42L50.3105 213.29L55.8276 210.453C56.4567 210.141 56.4325 209.227 55.8034 208.939L50.1895 206.294L49.1974 200.212C49.0764 199.515 48.2053 199.251 47.7213 199.78L43.4625 204.275L37.3162 203.337C36.6145 203.241 36.1063 203.962 36.4451 204.587L39.4456 209.996L36.6629 215.501C36.3483 216.126 36.8807 216.848 37.5824 216.727L43.6803 215.574L48.1085 219.925C48.5924 220.406 49.4394 220.117 49.5361 219.42Z" fill="#F7CC7F"/>
<path d="M297.177 185.588L298.856 182.479L297.465 179.186C297.297 178.817 297.609 178.395 297.968 178.501L301.182 179.291L303.605 176.841C303.869 176.551 304.324 176.735 304.372 177.157L304.684 180.767L307.562 182.532C307.898 182.743 307.874 183.27 307.514 183.428L304.492 184.85L303.845 188.407C303.773 188.803 303.317 188.961 303.053 188.644L300.871 185.931L297.609 186.352C297.249 186.379 296.985 185.931 297.177 185.588Z" fill="#466EB6"/>
<path d="M185.344 67.9813L187.467 64.1324L185.706 60.0769C185.512 59.612 185.899 59.0953 186.357 59.2245L190.435 60.2061L193.499 57.158C193.837 56.8222 194.416 57.0547 194.465 57.5454L194.851 62.0143L198.494 64.1841C198.905 64.4424 198.88 65.0882 198.446 65.2949L194.609 67.0772L193.789 71.4686C193.692 71.9594 193.113 72.1402 192.8 71.7527L190.025 68.3946L185.874 68.9371C185.416 68.9629 185.078 68.4205 185.344 67.9813Z" fill="#F79C8D"/>
<path d="M290.632 64.125L284.919 67.9903L288.107 73.6262L282.639 77.7159L285.042 83.4765L281.438 87.2171L283.301 89.0625L288.107 84.075L285.851 78.6137L291.515 74.3743L288.376 68.8133L293.55 65.2971L290.632 64.125Z" fill="#1890FF"/>
<path d="M213.795 0.510901L210.9 6.9738L216.401 10.2436L213.819 16.732L218.692 20.5382L217.51 25.7239L219.995 26.3625L221.588 19.4142L216.955 15.8124L219.657 9.04295L214.229 5.84982L216.859 0L213.795 0.510901Z" fill="#1890FF"/>
<path d="M299.963 156.041L295.897 150.767L290.451 154.011L286.212 148.97L280.594 151.467L276.775 148.2L275.025 150.044L280.151 154.431L285.448 152.05L289.859 157.301L295.231 154.104L298.903 158.888L299.963 156.041Z" fill="#F48C7F"/>
<path d="M109.914 41.503L111.15 34.6421L105.59 32.9207L106.539 26.1347L101.398 23.7396L101.376 18.5254H99.0375L99.0816 25.511L103.935 27.7813L102.943 34.8667L108.414 36.5382L107.289 42.7504L109.914 41.503Z" fill="#1890FF"/>
<path d="M57.543 49.875L60.1498 54.7165L65.7534 54.4002L68.2628 60.0446L74.1343 57.8793L77.2772 64.1319L82.9294 62.7938L86.925 68.3166L84.8541 69.825L81.8574 65.689L75.8885 67.1001L72.8674 61.0908L66.8984 63.3048L64.121 57.0765L58.6393 57.3927L56.2273 52.8918L52.6703 53.8407L52.0125 51.3591L57.543 49.875Z" fill="#F7CC7F"/>
<path d="M34.175 88.8631L29.9283 89.2558L28.4794 83.0184L22.1842 82.8798L20.2856 78.375L17.8125 79.276L20.3855 85.3055L26.331 85.421L27.8299 91.9125L34.2 91.3119L34.175 88.8631Z" fill="#50BFA5"/>
<path d="M21.8391 160.312L20.2569 164.362L13.5514 162.465L10.5126 168.104L5.28886 167.514L4.98749 170.231L11.9944 171L14.8825 165.669L21.8391 167.643L24.225 161.517L21.8391 160.312Z" fill="#50BFA5"/>
<path d="M36.5514 117.003C41.147 121.428 41.3181 128.737 36.8936 133.332C32.4691 137.928 25.1602 138.099 20.5646 133.675C15.969 129.25 15.7978 121.941 20.2223 117.345C24.6468 112.75 31.9558 112.579 36.5514 117.003Z" fill="#FFF3D9"/>
<path d="M36.3072 126.659L31.3938 128.175L29.8538 133.088C29.7316 133.479 29.1938 133.577 28.9738 133.235L26.016 129.03L20.8826 129.079C20.4671 129.079 20.2226 128.615 20.467 128.272L23.5471 124.166L21.9093 119.277C21.7871 118.886 22.1537 118.519 22.5448 118.641L27.4093 120.303L31.5405 117.248C31.8827 117.003 32.3472 117.248 32.3472 117.663L32.2738 122.797L36.4539 125.779C36.7961 126.023 36.6983 126.537 36.3072 126.659Z" fill="#FED333"/>
<path d="M338.444 136.241C343.039 140.665 343.21 147.974 338.786 152.57C334.361 157.165 327.052 157.336 322.457 152.912C317.861 148.487 317.69 141.178 322.115 136.583C326.539 131.987 333.824 131.816 338.444 136.241Z" fill="#FFF3D9"/>
<path d="M338.175 145.896L333.262 147.412L331.722 152.325C331.599 152.716 331.062 152.814 330.842 152.472L327.884 148.267L322.75 148.316C322.335 148.316 322.09 147.852 322.335 147.51L325.415 143.403L323.777 138.514C323.655 138.123 324.022 137.756 324.413 137.878L329.277 139.541L333.408 136.485C333.751 136.241 334.215 136.485 334.215 136.901L334.142 142.034L338.322 145.016C338.664 145.261 338.591 145.774 338.175 145.896Z" fill="#FED333"/>
<path d="M286.007 121.258L288.125 124.45C288.355 124.8 288.917 124.753 289.07 124.38L290.576 120.908L294.558 120.07C294.992 119.976 295.119 119.464 294.787 119.207L291.622 116.831L291.98 113.103C292.031 112.707 291.546 112.427 291.163 112.66L287.717 114.664L283.939 113.219C283.531 113.056 283.097 113.406 283.225 113.802L284.246 117.413L281.566 120.233C281.285 120.536 281.489 121.025 281.949 121.048L286.007 121.258Z" fill="#F47458"/>
<path d="M279.3 198.431C279.3 199.808 278.343 200.925 277.162 200.925C275.982 200.925 275.025 199.808 275.025 198.431C275.025 197.054 275.982 195.938 277.162 195.938C278.343 195.938 279.3 197.054 279.3 198.431Z" fill="#50BFA5"/>
<path d="M4.9875 127.181C4.9875 128.558 3.8845 129.675 2.49375 129.675C1.12698 129.675 0 128.558 0 127.181C0 125.805 1.103 124.688 2.49375 124.688C3.8845 124.688 4.9875 125.805 4.9875 127.181Z" fill="#50BFA5"/>
<path d="M137.826 15.6556L140.906 16.2667C140.906 16.2667 145.404 14.1645 145.746 13.1623C146.088 12.16 145.942 9.81334 146.577 9.66667C147.237 9.52 148.557 9.56889 149.046 11.1334C149.413 12.2578 148.142 15.7778 148.46 16.1201C148.655 16.3156 150.415 16.7312 151.686 17.0001C152.542 17.1712 153.202 17.8312 153.446 18.6623C153.593 19.2245 153.349 19.8357 152.835 20.129L152.029 20.569L152.42 21.4246C152.713 22.0601 152.444 22.7935 151.808 23.0868L151.173 23.3801L151.442 23.8935C151.808 24.5535 151.515 25.3846 150.831 25.6779L150.268 25.9224L150.317 26.0691C150.488 26.7046 150.171 27.3646 149.584 27.6091L149.022 27.8291L140.833 26.2157C140.075 26.0691 139.342 25.7513 138.706 25.3113L135.919 24.2601C135.626 24.1379 135.455 23.8201 135.528 23.5024L137.093 16.2423C137.142 15.8267 137.484 15.5823 137.826 15.6556Z" fill="#1890FF"/>
<path d="M179.898 258.907L183.44 255.365C183.191 254.523 183.075 253.638 183.075 252.732C183.075 247.102 187.663 242.515 193.293 242.515C198.923 242.515 203.51 247.102 203.51 252.732C203.51 258.362 198.923 262.949 193.293 262.949C192.383 262.949 191.498 262.837 190.66 262.585L187.118 266.127C189.002 267.012 191.093 267.489 193.293 267.489C201.422 267.489 208.05 260.858 208.05 252.732C208.05 244.606 201.419 237.975 193.293 237.975C185.167 237.975 178.536 244.602 178.536 252.732C178.536 254.932 179.012 257.023 179.898 258.907Z" fill="white"/>
<path d="M193.293 245.921C196.736 245.921 199.536 248.849 199.536 252.448C199.536 256.048 196.736 258.976 193.293 258.976C189.85 258.976 187.049 256.048 187.049 252.448C187.049 248.849 189.85 245.921 193.293 245.921ZM193.293 254.622C194.442 254.622 195.375 253.646 195.375 252.445C195.375 251.247 194.442 250.272 193.293 250.272C192.144 250.272 191.211 251.247 191.211 252.448C191.214 253.646 192.147 254.622 193.293 254.622Z" fill="white"/>
<path d="M190.684 255.315C190.083 254.714 190.98 255.315 190.684 255.315C191.135 255.767 191.135 256.602 190.684 257.054L180.51 267.15C180.059 267.602 179.325 267.602 178.874 267.15C178.423 266.698 178.423 265.963 178.874 265.51L188.948 255.315C189.173 255.088 190.113 254.743 190.684 255.315Z" fill="white"/>
<path d="M178.819 263.516L181.657 263.516C182.127 263.516 182.509 263.897 182.509 264.367L182.509 267.205C182.509 267.43 182.418 267.648 182.26 267.808L178.855 271.213C178.611 271.456 178.245 271.529 177.927 271.396C177.608 271.265 177.401 270.954 177.401 270.61L177.401 268.623L175.414 268.623C175.07 268.623 174.76 268.415 174.627 268.097C174.496 267.779 174.568 267.413 174.811 267.169L178.216 263.764C178.376 263.606 178.593 263.516 178.819 263.516Z" fill="white"/>
</g>
<defs>
<clipPath id="clip0_18729_52734">
<rect width="342" height="342" fill="white"/>
</clipPath>
</defs>
</svg>
