<svg width="56" height="56" viewBox="0 0 56 56" fill="none" xmlns="http://www.w3.org/2000/svg">
    <defs>
        <linearGradient id="paint0_linear_2713_73150" x1="13.918" y1="11.1226" x2="27.4463" y2="11.1226"
                        gradientUnits="userSpaceOnUse">
            <stop stop-color="#42A5F5"/>
            <stop offset="1" stop-color="#1E88E5"/>
        </linearGradient>
    </defs>
    <path d="M26.1105 9.80273C23.1261 9.80273 20.6992 12.1746 20.6992 15.0914V45.5009H30.1708C35.5821 45.5009 35.5821 45.5009 35.5821 40.2123V15.0914C35.5821 9.80273 35.5821 9.80273 30.1708 9.80273H26.1105Z"
          fill="#E79C07"/>
    <path d="M15.3074 9.80273C18.2918 9.80273 20.7188 12.1746 20.7188 15.0914V45.5009H11.2472C5.83588 45.5009 5.83588 45.5009 5.83588 40.2123V15.0914C5.83588 9.80273 5.83588 9.80273 11.2472 9.80273H15.3074Z"
          fill="#FFC043"/>
    <rect x="20.7109" y="12.4502" width="12.1755" height="30.4095" fill="#E79C07"/>
    <path d="M13.918 20.959H20.6821V23.6033H13.918V20.959Z" fill="#FFEAC2"/>
    <path d="M20.6719 20.959H27.436V23.6033H20.6719V20.959Z" fill="#FFC043"/>
    <path d="M13.918 27.3809H20.6821V30.0252H13.918V27.3809Z" fill="#FFEAC2"/>
    <path d="M20.6719 27.3809H27.436V30.0252H20.6719V27.3809Z" fill="#FFC043"/>
    <path d="M13.918 33.7939H20.6821V36.4383H13.918V33.7939Z" fill="#FFEAC2"/>
    <path d="M20.6719 33.7939H27.436V36.4383H20.6719V33.7939Z" fill="#FFC043"/>
    <path d="M24.072 5.83398H17.3079C15.4424 5.83398 13.9258 7.31624 13.9258 9.13937V13.1058C13.9258 14.929 15.4424 16.4112 17.3079 16.4112H24.072C25.9374 16.4112 27.4541 14.929 27.4541 13.1058V9.13937C27.4541 7.31624 25.9374 5.83398 24.072 5.83398Z"
          fill="#FFEAC2"/>
    <mask id="mask0_2713_73150" style="mask-type:alpha" maskUnits="userSpaceOnUse" x="13" y="5" width="15" height="12">
        <path d="M24.0642 5.83398H17.3C15.4346 5.83398 13.918 7.31624 13.918 9.13937V13.1058C13.918 14.929 15.4346 16.4112 17.3 16.4112H24.0642C25.9296 16.4112 27.4463 14.929 27.4463 13.1058V9.13937C27.4463 7.31624 25.9296 5.83398 24.0642 5.83398Z"
              fill="url(#paint0_linear_2713_73150)"/>
    </mask>
    <g mask="url(#mask0_2713_73150)">
        <rect x="20.6719" y="5.83398" width="6.76414" height="10.6103" fill="#FFC043"/>
    </g>
    <ellipse cx="37.3389" cy="36.956" rx="14.2217" ry="14.2217" fill="#FFEAC2"/>
    <path d="M37.3378 27.6221C33.2207 27.6221 29.8711 30.9717 29.8711 35.0887C29.8711 41.1044 34.8796 46.2887 37.3378 46.2887C39.8607 46.2887 44.8044 41.2183 44.8044 35.0887C44.8044 30.9717 41.4548 27.6221 37.3378 27.6221Z"
          fill="#FFC043"/>
    <path d="M37.3193 31.3584C35.2603 31.3584 33.5859 33.0327 33.5859 35.0917C33.5859 37.1507 35.2603 38.8251 37.3193 38.8251C39.3783 38.8251 41.0526 37.1507 41.0526 35.0917C41.0526 33.0327 39.3783 31.3584 37.3193 31.3584Z"
          fill="#E79C07"/>

</svg>
