<svg width="65" height="64" viewBox="0 0 65 64" fill="none" xmlns="http://www.w3.org/2000/svg">
    <defs>
        <linearGradient id="paint0_linear_2713_72651" x1="32.5078" y1="15" x2="32.5078" y2="49"
                        gradientUnits="userSpaceOnUse">
            <stop stop-color="#619EDA"/>
            <stop offset="0.284375" stop-color="#619EDA"/>
            <stop offset="1" stop-color="#0064C5"/>
        </linearGradient>
    </defs>
    <circle cx="32.5" cy="32" r="32" fill="#E8F4FF"/>
    <path d="M26.5977 15C20.5361 15 15.5078 19.9698 15.5078 26.0234C15.5078 32.1016 20.5653 36.9805 26.5977 36.9805C32.4334 36.9805 37.218 32.3945 37.5374 26.6377L26.5977 15ZM32.5742 38.9727H28.5898C28.0397 38.9727 27.5938 39.4186 27.5938 39.9688V48.0039C27.5938 48.554 28.0397 49 28.5898 49H32.5742C33.1243 49 33.5703 48.554 33.5703 48.0039V39.9688C33.5703 39.4186 33.1243 38.9727 32.5742 38.9727ZM40.543 32.9961H36.5586C36.0085 32.9961 35.5625 33.4421 35.5625 33.9922V48.0039C35.5625 48.554 36.0085 49 36.5586 49H40.543C41.0931 49 41.5391 48.554 41.5391 48.0039V33.9922C41.5391 33.4421 41.0931 32.9961 40.543 32.9961ZM48.5117 27.0195H44.5273C43.9772 27.0195 43.5312 27.4655 43.5312 28.0156V48.0039C43.5312 48.554 43.9772 49 44.5273 49H48.5117C49.0618 49 49.5078 48.554 49.5078 48.0039V28.0156C49.5078 27.4655 49.0618 27.0195 48.5117 27.0195ZM24.6055 43.0234H20.6211C20.071 43.0234 19.625 43.4694 19.625 44.0195V48.0039C19.625 48.554 20.071 49 20.6211 49H24.6055C25.1556 49 25.6016 48.554 25.6016 48.0039V44.0195C25.6016 43.4694 25.1556 43.0234 24.6055 43.0234Z"
          fill="url(#paint0_linear_2713_72651)"/>
    <path d="M28.5938 15.1833C27.9476 15.0624 27.2816 15 26.6016 15V25.0273C26.6016 25.5539 27.0113 25.9889 27.5366 26.0214L37.5413 26.6377C37.5526 26.4345 37.5586 26.2293 37.5586 26.0234C37.5586 20.6594 33.7162 16.1333 28.5938 15.1833Z"
          fill="#A9D5FF"/>

</svg>
