<svg width="57" height="56" viewBox="0 0 57 56" fill="none" xmlns="http://www.w3.org/2000/svg">
    <defs>
        <linearGradient id="paint0_linear_19182_21508" x1="28.8831" y1="38.5813" x2="28.8831"
                y2="56.0001" gradientUnits="userSpaceOnUse">
            <stop stop-color="#4BAAFF" />
            <stop offset="1" stop-color="#0087FF" />
        </linearGradient>
        <linearGradient id="paint1_linear_19182_21508" x1="30.505" y1="57.2715" x2="30.505"
                y2="53.0815" gradientUnits="userSpaceOnUse">
            <stop stop-color="#096DD9" stop-opacity="0.2" />
            <stop offset="0.9988" stop-color="#096DD9" />
        </linearGradient>
        <linearGradient id="paint2_linear_19182_21508" x1="27.1111" y1="58.9646" x2="27.1111"
                y2="51.2946" gradientUnits="userSpaceOnUse">
            <stop stop-color="#096DD9" stop-opacity="0.2" />
            <stop offset="0.9988" stop-color="#096DD9" />
        </linearGradient>
    </defs>
    <path d="M28.833 55.9997C44.297 55.9997 56.833 43.4637 56.833 27.9998C56.833 12.5359 44.297 0 28.833 0C13.369 0 0.833008 12.5359 0.833008 27.9998C0.833008 43.4637 13.369 55.9997 28.833 55.9997Z"
            fill="#E6F7FF" />
    <path d="M22.1947 35.187L20.8971 38.531L19.25 41.7752L20.8471 47.1655L29.7812 47.5648L36.8685 47.4151L37.717 42.1245L37.2179 38.6308L36.8186 38.531L35.3712 35.0872L22.1947 35.187Z"
            fill="white" />
    <path d="M40.1176 24.7739C40.0675 25.4784 39.8673 26.1829 39.667 26.8371C39.4668 27.1894 39.3166 27.4913 39.1163 27.8436C38.816 28.2965 38.4155 28.6487 37.8648 28.7494C37.6645 28.7997 37.5644 28.9003 37.5143 29.0513C36.8635 30.7119 36.2127 32.3726 35.5619 33.9829C35.5118 34.1338 35.5118 34.2848 35.5118 34.4358C35.5118 35.2912 35.5619 36.197 35.4117 37.0525C35.1113 38.0086 34.6607 38.8138 33.8597 39.4177C33.309 39.8202 32.7083 40.0719 32.1075 40.3738C31.707 40.4744 31.3065 40.5751 30.906 40.6254C29.304 40.9273 27.702 40.8267 26.15 40.4744C25.7495 40.3235 25.349 40.2228 24.9986 40.0719C23.6969 39.468 22.7958 38.4615 22.3953 37.0525C22.2952 36.5493 22.2451 36.0461 22.2451 35.5429C22.2451 35.09 22.2451 34.5867 22.2451 34.1338C23.4967 35.09 24.6982 36.0964 25.9498 37.0525C26.15 37.2035 26.4003 37.3545 26.7007 37.4048C27.3015 37.5557 27.9523 37.4551 28.5531 37.5054C28.8534 37.5054 28.9035 37.4048 28.9035 37.1532C28.9035 35.4925 28.9035 33.8319 28.9035 32.1713C29.2539 32.1713 29.6544 32.1209 30.0049 32.0706C30.9561 31.9197 31.8671 31.5096 32.1075 30.561C32.1635 30.3402 32.1868 30.2124 31.7863 30.2124C30.785 30.2124 29.8696 30.2124 28.8683 30.2124C28.8683 26.1363 28.8534 21.9559 28.8534 17.8798C28.8534 17.7288 28.9035 17.5778 28.7533 17.4772C28.9035 17.3262 28.9536 17.4772 29.0537 17.5778C30.1551 18.6849 31.4066 18.9869 32.8585 18.3327C33.0587 18.232 33.1589 18.2824 33.259 18.4836C33.9098 19.792 34.9611 20.5469 36.4129 20.7481C36.7634 20.7985 36.8134 20.8991 36.8134 21.2514C36.8134 22.761 36.8134 24.2707 36.8134 25.7804C36.8134 26.0823 36.9136 26.1829 37.214 26.1829C37.4643 26.1829 37.5143 26.0823 37.5644 25.881C37.8648 24.9752 38.1652 24.0694 38.4655 23.1636C38.5156 23.0126 38.5156 22.8113 38.7158 22.8617C39.0663 22.912 39.3667 22.761 39.667 22.7107C40.1176 23.1133 40.1176 23.6668 40.1176 24.2204C40.1176 24.2707 40.1176 24.5223 40.1176 24.7739ZM32.2077 24.7236C32.9085 24.7236 33.4592 24.2204 33.5093 23.5159C33.5594 22.8617 33.1589 22.2578 32.508 22.1068C32.3078 22.0565 32.2077 22.1068 32.1576 22.3081C32.0575 22.8617 31.707 23.3146 31.1063 23.4152C30.856 23.4655 30.856 23.5662 30.906 23.7675C31.0562 24.321 31.6069 24.7739 32.2077 24.7236Z"
            fill="#FCE7D4" />
    <path d="M39.6637 22.7097C39.3642 22.7596 39.0149 22.9094 38.7154 22.8595C38.5157 22.8595 38.5157 23.0591 38.4658 23.1589C38.1664 24.0573 37.8669 24.9557 37.5674 25.8541C37.5175 26.0537 37.4676 26.1536 37.2181 26.1536C36.9186 26.1536 36.8188 26.1036 36.8188 25.7543C36.8188 24.257 36.8188 22.7596 36.8188 21.2623C36.8188 20.9629 36.7689 20.8131 36.4195 20.7632C34.9721 20.6135 33.9239 19.8648 33.2751 18.5172C33.1753 18.3176 33.0755 18.3176 32.8758 18.3675C31.4284 19.0163 30.1806 18.667 29.0826 17.6189C29.0327 17.5689 28.9329 17.3693 28.7831 17.519C27.6352 18.667 26.3375 19.0163 24.8402 18.3675C24.5906 18.2677 24.5906 18.4174 24.4908 18.5672C23.8419 19.8648 22.7938 20.5636 21.3963 20.7133C20.997 20.7632 20.9471 20.9129 20.9471 21.2124C20.9471 22.7097 20.9471 24.207 20.9471 25.7044C20.9471 25.904 20.997 26.1036 20.6477 26.1036C20.3482 26.1036 20.2484 26.0537 20.1485 25.7543C19.899 24.8559 19.5496 23.9575 19.2501 23.109C19.2002 22.9593 19.2002 22.7596 18.9507 22.8096C18.6013 22.8595 18.3518 22.7097 18.0024 22.6598C17.104 22.011 16.8045 21.1126 16.9542 20.0146C17.0541 19.6652 17.2038 19.3158 17.4034 18.9664C17.6031 18.667 17.2537 18.4174 17.2038 18.1679C16.8045 16.6706 17.0541 15.323 18.1022 14.175C18.6512 13.5761 19.3001 13.2267 20.0986 13.077C20.2983 13.0271 20.3482 12.9772 20.3981 12.7775C20.9471 10.4816 22.9935 9.28379 25.2894 9.78289C25.3393 9.78289 25.3892 9.78289 25.4391 9.78289C25.6387 9.88271 25.8384 9.93262 26.038 10.0824C26.1878 10.1822 26.2876 10.1323 26.3375 9.98253C26.7368 9.53334 27.2359 9.23387 27.7849 8.98432C29.1824 8.63495 30.3803 8.8845 31.3286 9.98253C31.4284 10.0824 31.4783 10.1323 31.628 10.0324C32.0772 9.78289 32.6263 9.68307 33.1254 9.58325C33.6245 9.58325 34.0737 9.63316 34.5229 9.73298C35.9204 10.2321 36.8687 11.1804 37.268 12.6278C37.268 12.8274 37.268 12.9273 37.5175 12.9772C37.8669 13.077 38.1664 13.1768 38.5157 13.2766C39.8134 14.0253 40.5621 15.1732 40.6619 16.6706C40.6619 17.3693 40.5122 18.0181 40.2127 18.667C40.1129 18.7668 40.2127 18.8167 40.2626 18.9165C41.1111 20.4138 40.8616 21.7115 39.6637 22.7097Z"
            fill="#791D07" />
    <path d="M18.0023 22.7503C18.3017 22.8006 18.6012 22.9516 18.9506 22.9013C19.2001 22.851 19.2001 23.1025 19.25 23.2031C19.5495 24.1087 19.849 24.9639 20.1484 25.8694C20.2482 26.1713 20.398 26.2216 20.6475 26.2216C20.947 26.2216 20.947 26.0204 20.947 25.8191C20.947 24.3099 20.947 22.8006 20.947 21.2914C20.947 20.9392 20.9969 20.8386 21.3962 20.7883C22.7937 20.6374 23.8418 19.8828 24.4907 18.6251C24.5406 18.4741 24.5905 18.3232 24.84 18.4238C26.3374 19.0778 27.685 18.7257 28.783 17.5686C28.9327 17.6692 28.8828 17.8201 28.8828 17.9711C28.8828 22.046 28.8828 26.121 28.8828 30.1959C27.8846 30.1959 26.8864 30.1959 25.8882 30.1959C25.5887 30.1959 25.5388 30.2966 25.6386 30.5481C25.9381 31.353 26.537 31.8058 27.3356 32.007C27.8347 32.158 28.3837 32.2083 28.8828 32.2083C28.8828 33.8684 28.8828 35.5286 28.8828 37.1888C28.8828 37.4403 28.8329 37.5912 28.5334 37.5409C27.9345 37.4906 27.2857 37.5912 26.6867 37.4403C26.3873 37.39 26.1377 37.2894 25.9381 37.0882C24.6903 36.1323 23.4924 35.1261 22.2447 34.1703C21.8454 33.1641 21.3962 32.158 20.9969 31.1518C20.9969 31.1015 20.947 31.0512 20.947 31.0009C20.7973 30.5481 20.6475 30.1456 20.4479 29.7432C20.3481 29.4916 20.2482 29.2401 20.1983 28.9885C20.1484 28.8879 20.0985 28.8376 19.9987 28.7873C18.9006 28.5861 18.5014 27.7308 18.152 26.8253C18.1021 26.6744 18.0522 26.5234 18.0023 26.4228C17.9024 26.0204 17.8525 25.5676 17.7527 25.1651C17.7527 24.7124 17.7028 24.2596 17.7028 23.8068C17.5531 23.4547 17.7028 23.0522 18.0023 22.7503ZM25.439 24.9136C26.1876 24.9136 26.7367 24.4608 26.8864 23.8068C26.9862 23.1528 26.5869 22.4988 25.9381 22.2976C25.7384 22.2473 25.6386 22.1969 25.5887 22.4988C25.4889 23.1025 25.1395 23.505 24.4907 23.6056C24.291 23.6559 24.291 23.7062 24.291 23.9074C24.3409 24.4105 24.89 24.9136 25.439 24.9136Z"
            fill="#FCE7D4" />
    <path d="M27.2862 32.1943C26.4876 31.9722 25.8887 31.4725 25.5892 30.5842C25.4894 30.3066 25.5393 30.1956 25.8388 30.1956C26.837 30.1956 27.8352 30.1956 28.8334 30.1956C29.8316 30.1956 30.7799 30.1956 31.7781 30.1956C32.1774 30.1956 32.1774 30.3066 32.0776 30.6952C31.6783 31.7501 30.8798 32.1388 29.9814 32.3609"
            fill="#D65239" />
    <path d="M32.196 24.8557C31.5524 24.8557 30.9624 24.4387 30.8015 23.8133C30.7478 23.6049 30.7478 23.5006 31.016 23.4485C31.6596 23.3443 32.0351 22.9274 32.1424 22.302C32.196 22.0935 32.2496 22.0414 32.5178 22.0935C33.2151 22.2499 33.6978 22.8752 33.5906 23.5528C33.4833 24.3345 32.8933 24.8557 32.196 24.8557Z"
            fill="#49261F" />
    <path d="M25.439 24.8558C24.89 24.8558 24.341 24.3567 24.2411 23.8077C24.1912 23.6081 24.2411 23.5582 24.4408 23.5083C25.0397 23.4084 25.3891 23.0092 25.5388 22.4102C25.5887 22.1108 25.7385 22.1607 25.8882 22.2106C26.537 22.4102 26.9862 23.0591 26.8365 23.7079C26.7367 24.4566 26.1378 24.9058 25.439 24.8558Z"
            fill="#49261F" />
    <path d="M48.0488 48.3139C47.7993 45.9182 47.4 42.8237 46.9508 42.1249L46.1023 41.3264C45.6531 41.0269 45.154 40.8273 44.6549 40.6775C43.7066 40.428 42.7583 40.1784 41.81 39.879C41.4107 39.7792 40.9615 39.6793 40.5622 39.5296C39.3144 39.2301 38.0667 38.8808 36.769 38.5813C36.8688 40.2783 36.7191 41.9752 36.4695 43.6223C36.4196 43.9716 36.4196 44.2711 36.3697 44.6205C36.2699 45.3192 35.4214 45.6686 34.8225 45.2693C33.5248 44.5207 32.277 43.7221 31.0292 42.8736C30.9294 42.9235 30.9294 42.9235 30.8296 42.9235C30.6299 43.4725 30.0809 46.9164 29.8314 50.1106C28.4339 46.7666 26.9365 43.1232 26.8367 42.7738C25.3394 43.6722 23.892 44.6205 22.3447 45.5688C21.9954 45.8183 21.4963 45.5688 21.4463 45.1695C21.3465 44.7203 21.2467 44.2212 21.2467 43.772C20.9472 42.075 20.8474 40.3282 20.8973 38.5813L18.6513 39.1303C16.8046 39.6294 15.0078 40.1784 13.1611 40.6276C11.564 41.0269 10.5658 41.9752 10.0667 43.4725C9.81711 45.1695 9.71729 46.9164 9.71729 48.4636C13.7102 52.2069 18.851 54.8022 24.5408 55.6507C26.9365 55.9003 27.3358 55.9502 28.8331 56.0001C28.9829 56.0001 32.277 55.9502 32.2271 55.8004C32.6264 55.7505 33.1255 55.7006 33.8242 55.5509C39.2645 54.5527 44.2057 52.0072 48.0488 48.3139Z"
            fill="url(#paint0_linear_19182_21508)" />
    <path d="M30.4302 47.0654C30.9293 46.0173 31.6779 44.7695 32.177 43.7214C32.2269 43.5717 32.2269 43.5218 32.1271 43.4219C31.7777 43.1225 31.3785 42.9727 30.9792 42.6733C30.7795 42.5236 30.5799 42.3239 30.4801 42.1243C29.931 42.1243 29.382 42.1243 28.833 42.1243V47.0654C29.382 47.0654 29.8811 47.0654 30.4302 47.0654Z"
            fill="#096DD9" />
    <path d="M26.9369 42.3735C26.4877 42.8227 25.9886 43.1221 25.5394 43.5713C25.4396 43.6711 25.3896 43.7211 25.4895 43.8708C26.0385 44.9189 26.6374 46.0669 27.1864 47.115C27.7355 47.115 28.2845 47.115 28.8834 47.115V42.1738C28.2845 42.1738 27.7355 42.1738 27.1365 42.1738C27.0866 42.2736 26.9868 42.2737 26.9369 42.3735Z"
            fill="#096DD9" />
    <path d="M28.833 55.9982C29.981 55.9982 31.079 55.8973 32.177 55.7963C32.1271 55.6449 32.1271 55.4935 32.0772 55.3421L31.7278 53.6764C31.628 52.9193 31.4284 52.1622 31.3285 51.4555C31.0291 49.9917 30.7296 48.528 30.4302 47.0642C29.8811 47.0642 29.382 47.0642 28.833 47.0642V55.9982Z"
            fill="url(#paint1_linear_19182_21508)" />
    <path d="M27.1617 47.0642C26.6553 49.6097 26.0982 52.205 25.5917 54.7504C25.5411 55.0998 25.4398 55.4492 25.3892 55.7487C26.5033 55.8984 27.6682 55.9483 28.833 55.9483V47.0642C28.3265 47.0642 27.7695 47.0642 27.1617 47.0642Z"
            fill="url(#paint2_linear_19182_21508)" />
</svg>
