<svg width="342" height="275" viewBox="0 0 342 275" fill="none" xmlns="http://www.w3.org/2000/svg">
<path d="M171 274.179C249.749 274.179 313.588 270.452 313.588 265.854C313.588 261.257 249.749 257.53 171 257.53C92.2509 257.53 28.4121 261.257 28.4121 265.854C28.4121 270.452 92.2509 274.179 171 274.179Z" fill="#F5F5F5"/>
<path d="M354.852 240.968H-12.8516V241.152H354.852V240.968Z" fill="#EBEBEB"/>
<path d="M318.008 252.801H293.651V252.985H318.008V252.801Z" fill="#EBEBEB"/>
<path d="M188.076 250.499H178.597V250.683H188.076V250.499Z" fill="#EBEBEB"/>
<path d="M244.298 251.278H224.339V251.462H244.298V251.278Z" fill="#EBEBEB"/>
<path d="M292.916 245.976H251.652V246.16H292.916V245.976Z" fill="#EBEBEB"/>
<path d="M45.2379 254.485H25.7275V254.669H45.2379V254.485Z" fill="#EBEBEB"/>
<path d="M68.6976 254.485H51.7832V254.669H68.6976V254.485Z" fill="#EBEBEB"/>
<path d="M128.206 250.411H83.4863V250.595H128.206V250.411Z" fill="#EBEBEB"/>
<path d="M161.44 208.169H19.4399C18.3274 208.167 17.2613 207.724 16.4754 206.937C15.6894 206.149 15.248 205.082 15.248 203.97V4.35845C15.2577 3.25241 15.7034 2.19486 16.4883 1.41551C17.2731 0.636155 18.3338 0.19794 19.4399 0.196045H161.44C162.553 0.196045 163.621 0.638456 164.409 1.42595C165.196 2.21345 165.639 3.28153 165.639 4.39522V203.97C165.639 205.084 165.196 206.152 164.409 206.939C163.621 207.727 162.553 208.169 161.44 208.169ZM19.4399 0.343127C18.3762 0.345075 17.3568 0.768974 16.6054 1.52178C15.8539 2.27459 15.4319 3.29479 15.4319 4.35845V203.97C15.4319 205.033 15.8539 206.054 16.6054 206.806C17.3568 207.559 18.3762 207.983 19.4399 207.985H161.44C162.504 207.983 163.524 207.56 164.277 206.807C165.029 206.054 165.453 205.034 165.455 203.97V4.35845C165.453 3.29411 165.029 2.27393 164.277 1.52133C163.524 0.768736 162.504 0.345071 161.44 0.343127H19.4399Z" fill="#EBEBEB"/>
<path d="M320.516 208.169H178.509C177.396 208.167 176.329 207.724 175.542 206.937C174.755 206.15 174.312 205.083 174.31 203.97V4.35845C174.321 3.25174 174.768 2.1942 175.555 1.41505C176.341 0.635898 177.402 0.197919 178.509 0.196045H320.516C321.621 0.199872 322.679 0.638943 323.463 1.41809C324.246 2.19724 324.691 3.25368 324.7 4.35845V203.97C324.7 205.081 324.26 206.147 323.475 206.934C322.691 207.721 321.627 208.165 320.516 208.169ZM178.509 0.343127C177.444 0.345071 176.424 0.768736 175.672 1.52133C174.919 2.27393 174.495 3.29411 174.493 4.35845V203.97C174.495 205.034 174.919 206.054 175.672 206.807C176.424 207.56 177.444 207.983 178.509 207.985H320.516C321.58 207.983 322.6 207.56 323.353 206.807C324.105 206.054 324.529 205.034 324.531 203.97V4.35845C324.529 3.29411 324.105 2.27393 323.353 1.52133C322.6 0.768736 321.58 0.345071 320.516 0.343127H178.509Z" fill="#EBEBEB"/>
<path d="M181.958 177.716C180.487 173.487 168.875 179.238 164.161 186.247C161.021 190.909 159.102 195.895 158.212 202.587C158.315 194.954 158.44 186.747 158.558 179.003C159.514 177.076 161.69 172.627 163.25 169.097C168.478 157.331 180.899 152.918 185.187 145.52C190.813 135.783 190.776 121.185 185.996 115.912C181.833 111.338 168.059 142.299 166.507 145.755C162.274 155.012 159.607 164.908 158.616 175.039C158.734 167.766 158.844 161.066 158.933 155.919C159.227 139.115 159.587 133.709 159.756 132.047C160.33 131.238 161.007 130.29 161.404 129.782C164.735 125.495 172.133 120.384 175.825 114.147C181.223 105.036 180.355 94.1371 176.56 90.0776C172.604 85.8343 165.603 95.8653 161.889 105.801C158.175 115.736 159.764 125.252 158.719 133.511C158.506 135.129 158.278 141.277 158.072 149.807C156.94 140.629 154.697 134.481 150.534 128.753C145.386 121.707 140.974 113.125 136.79 114.236C132.605 115.346 134.841 126.694 138.179 134.665C141.121 141.769 155.829 148.844 157.962 154.558C157.705 166.119 157.477 180.768 157.315 194.402C156.16 187.357 156.954 186.769 152.218 175.98C149.409 169.568 137.871 161.662 136.495 166.067C135.12 170.472 137.231 178.797 141.562 184.629C145.078 189.335 152.873 189.328 154.675 192.248C155.101 192.932 156.491 195.542 157.285 197.042C157.094 213.692 157.013 228.393 157.109 233.401L157.844 233.452C157.844 232.158 157.903 223.686 158.05 212.479C159.948 206.515 172.692 203.036 176.627 196.829C180.767 190.365 183.731 182.79 181.958 177.716Z" fill="#E6E6E6"/>
<path d="M169.978 240.968H145.519C144.87 240.969 144.241 240.746 143.738 240.335C143.235 239.925 142.89 239.354 142.761 238.718L141.025 230.158H174.472L172.729 238.718C172.601 239.353 172.257 239.925 171.756 240.335C171.254 240.745 170.626 240.969 169.978 240.968Z" fill="#F0F0F0"/>
<path d="M175.169 233.475H140.326C139.92 233.475 139.528 233.325 139.227 233.053C138.925 232.781 138.735 232.408 138.693 232.004L137.958 225.672C137.933 225.443 137.957 225.21 138.027 224.991C138.098 224.771 138.214 224.569 138.368 224.397C138.522 224.225 138.71 224.087 138.921 223.993C139.132 223.898 139.36 223.849 139.59 223.848H175.861C176.091 223.849 176.319 223.898 176.529 223.993C176.739 224.087 176.927 224.225 177.081 224.397C177.234 224.569 177.349 224.772 177.419 224.991C177.489 225.211 177.512 225.443 177.486 225.672L176.75 232.004C176.711 232.399 176.529 232.767 176.238 233.038C175.947 233.309 175.567 233.464 175.169 233.475Z" fill="#F0F0F0"/>
<path d="M281.877 237.902H305.3V137.953H281.877V237.902Z" fill="#F0F0F0"/>
<path d="M182.362 240.968L303.719 240.968V237.901L182.362 237.901V240.968Z" fill="#F0F0F0"/>
<path d="M281.87 137.952H180.788V237.901H281.87V137.952Z" fill="#F5F5F5"/>
<path d="M272.662 177.348H189.995V198.513H272.662V177.348Z" fill="#F0F0F0"/>
<path d="M272.662 204.588H189.995V225.753H272.662V204.588Z" fill="#F0F0F0"/>
<path d="M222.051 180.996H240.605C241.869 180.996 242.893 179.973 242.893 178.712C242.893 177.451 241.869 176.429 240.605 176.429H222.051C220.788 176.429 219.764 177.451 219.764 178.712C219.764 179.973 220.788 180.996 222.051 180.996Z" fill="#F5F5F5"/>
<path d="M272.662 150.109H189.995V171.274H272.662V150.109Z" fill="#F0F0F0"/>
<path d="M222.052 153.756H240.606C241.211 153.754 241.79 153.514 242.219 153.087C242.647 152.66 242.889 152.081 242.893 151.477C242.891 150.871 242.65 150.29 242.221 149.861C241.793 149.433 241.212 149.191 240.606 149.189H222.052C221.446 149.191 220.865 149.433 220.437 149.861C220.008 150.29 219.767 150.871 219.765 151.477C219.769 152.081 220.011 152.66 220.439 153.087C220.868 153.514 221.447 153.754 222.052 153.756Z" fill="#F5F5F5"/>
<path d="M222.052 208.235H240.606C241.211 208.235 241.792 207.995 242.221 207.568C242.649 207.141 242.891 206.561 242.893 205.956C242.891 205.35 242.65 204.769 242.221 204.34C241.793 203.912 241.212 203.67 240.606 203.668H222.052C221.446 203.67 220.865 203.912 220.437 204.34C220.008 204.769 219.767 205.35 219.765 205.956C219.767 206.561 220.008 207.141 220.437 207.568C220.866 207.995 221.446 208.235 222.052 208.235Z" fill="#F5F5F5"/>
<path d="M178.706 137.952H281.869V135.099H178.706V137.952Z" fill="#F0F0F0"/>
<path d="M307.52 135.106H281.869V137.96H307.52V135.106Z" fill="#E6E6E6"/>
<path d="M95.555 240.968H118.698L118.698 91.2907H95.555L95.555 240.968Z" fill="#E0E0E0"/>
<path d="M36.5752 240.968H114.065L122.206 56.7339H44.7161L36.5752 240.968Z" fill="#E6E6E6"/>
<path d="M25.2715 240.968H110.99L119.124 56.7339H33.4124L25.2715 240.968Z" fill="#F0F0F0"/>
<path d="M102.6 231.938L109.454 65.7725H41.8037L34.9424 231.938H102.6Z" fill="white"/>
<path d="M73.5288 231.938L96.5249 65.7725H89.3106L66.3145 231.938H73.5288Z" fill="#FAFAFA"/>
<path d="M63.2555 231.938L86.2517 65.7725H73.9483L50.9521 231.938H63.2555Z" fill="#FAFAFA"/>
<path d="M202.969 106.918L296.755 106.918V19.1845L202.969 19.1845V106.918Z" fill="#E6E6E6"/>
<path d="M200.049 106.918L295.387 106.918V19.1845L200.049 19.1845V106.918Z" fill="#F5F5F5"/>
<path d="M202.969 110.507L296.755 110.507V106.918L202.969 106.918V110.507Z" fill="#E6E6E6"/>
<path d="M197.446 110.507L286.415 110.507V106.918L197.446 106.918V110.507Z" fill="#F5F5F5"/>
<path d="M291.312 101.476V24.6189L204.123 24.6189V101.476H291.312Z" fill="#FAFAFA"/>
<path d="M204.711 101.484V24.6262H204.13V101.484H204.711Z" fill="#E6E6E6"/>
<path d="M276.855 101.476L261.779 24.6189H242.019L257.094 101.476H276.855Z" fill="white"/>
<path d="M253.895 101.476L238.819 24.6189H229.898L244.974 101.476H253.895Z" fill="white"/>
<path d="M288.4 97.3138V16.169C288.4 15.9213 288.2 15.7205 287.952 15.7205H287.915C287.667 15.7205 287.466 15.9213 287.466 16.169V97.3138C287.466 97.5616 287.667 97.7624 287.915 97.7624H287.952C288.2 97.7624 288.4 97.5616 288.4 97.3138Z" fill="#EBEBEB"/>
<path opacity="0.5" d="M197.916 29.1414L298.336 29.1414V15.7128L197.916 15.7128V29.1414Z" fill="#E6E6E6"/>
<path d="M197.916 17.3826L298.336 17.3826V15.7132L197.916 15.7132V17.3826Z" fill="#E0E0E0"/>
<path d="M198.085 16.4487L298.174 16.4487C298.527 16.4487 298.813 16.1623 298.813 15.8089V15.6251C298.813 15.2717 298.527 14.9853 298.174 14.9853L198.085 14.9853C197.731 14.9853 197.445 15.2717 197.445 15.6251V15.8089C197.445 16.1623 197.731 16.4487 198.085 16.4487Z" fill="#EBEBEB"/>
<path d="M197.791 29.4948H298.461C298.507 29.4948 298.553 29.4856 298.595 29.4678C298.638 29.45 298.676 29.4238 298.708 29.391C298.74 29.3581 298.766 29.3191 298.783 29.2763C298.8 29.2335 298.808 29.1878 298.807 29.1418C298.807 29.0501 298.77 28.9622 298.706 28.8974C298.641 28.8326 298.553 28.7961 298.461 28.7961H197.791C197.699 28.7961 197.61 28.8323 197.544 28.8969C197.478 28.9615 197.44 29.0494 197.438 29.1418C197.438 29.2354 197.476 29.3252 197.542 29.3914C197.608 29.4576 197.698 29.4948 197.791 29.4948Z" fill="white"/>
<path d="M34.831 159.839L34.0859 159.926L35.4099 171.248L36.1549 171.161L34.831 159.839Z" fill="#1890FF"/>
<path d="M36.6484 175.371L35.9033 175.458L36.5713 181.17L37.3163 181.083L36.6484 175.371Z" fill="#1890FF"/>
<path d="M86.1265 136.753L85.244 134.275C84.637 132.572 83.4699 131.125 81.9336 130.171C80.3973 129.217 78.5828 128.813 76.7869 129.024L41.6418 133.135C39.5364 133.382 37.6153 134.455 36.301 136.118C34.9867 137.782 34.3869 139.899 34.6334 142.004L44.6349 227.532C44.7179 228.247 44.9412 228.939 45.2919 229.568C45.6426 230.197 46.1138 230.751 46.6787 231.198C47.2436 231.644 47.8909 231.975 48.5838 232.172C49.2767 232.368 50.0015 232.426 50.7167 232.342L176.471 217.633C177.188 217.552 177.881 217.33 178.512 216.98C179.143 216.63 179.698 216.159 180.146 215.594C180.595 215.029 180.927 214.381 181.124 213.688C181.321 212.994 181.379 212.268 181.295 211.552L172.618 137.614C172.45 136.171 171.716 134.853 170.577 133.951C169.437 133.049 167.987 132.637 166.543 132.804L93.5174 141.35C91.9473 141.531 90.362 141.176 89.0199 140.341C87.6777 139.507 86.6578 138.242 86.1265 136.753Z" fill="#1890FF"/>
<path d="M89.6356 99.5601L49.9033 107.478L60.8119 162.219L100.544 154.301L89.6356 99.5601Z" fill="#1890FF"/>
<path opacity="0.7" d="M89.6356 99.5601L49.9033 107.478L60.8119 162.219L100.544 154.301L89.6356 99.5601Z" fill="white"/>
<g opacity="0.4">
<path opacity="0.4" d="M84.3324 112.713L59.858 117.596C59.2879 117.707 58.6971 117.588 58.2139 117.266C57.7306 116.944 57.3939 116.444 57.2768 115.875C57.1661 115.305 57.2847 114.714 57.6069 114.231C57.929 113.748 58.4288 113.411 58.9976 113.294L83.4866 108.433C84.0568 108.322 84.6476 108.441 85.1308 108.763C85.6141 109.085 85.9508 109.585 86.0679 110.154C86.1718 110.723 86.0481 111.31 85.7235 111.788C85.3989 112.267 84.8993 112.599 84.3324 112.713Z" fill="#1890FF"/>
<path opacity="0.4" d="M86.1342 121.781L61.6599 126.686C61.0908 126.794 60.5019 126.675 60.0203 126.353C59.5388 126.031 59.2031 125.532 59.0859 124.965C58.9774 124.396 59.0971 123.807 59.419 123.326C59.741 122.844 60.2395 122.508 60.8068 122.391L85.2811 117.515C85.8502 117.407 86.4391 117.527 86.9207 117.848C87.4022 118.17 87.7379 118.669 87.8551 119.236C87.9551 119.801 87.8314 120.382 87.5102 120.857C87.189 121.332 86.6955 121.663 86.1342 121.781Z" fill="#1890FF"/>
<path opacity="0.4" d="M87.936 130.834L63.4616 135.709C62.8926 135.818 62.3037 135.698 61.8221 135.376C61.3405 135.054 61.0049 134.556 60.8877 133.989C60.7792 133.419 60.8988 132.831 61.2208 132.349C61.5428 131.867 62.0412 131.532 62.6086 131.415L87.0829 126.532C87.6519 126.423 88.2408 126.543 88.7224 126.865C89.204 127.187 89.5396 127.685 89.6568 128.252C89.7675 128.823 89.6489 129.413 89.3267 129.897C89.0045 130.38 88.5048 130.716 87.936 130.834Z" fill="#1890FF"/>
<path opacity="0.4" d="M89.7454 139.923L65.2711 144.799C64.701 144.91 64.1102 144.791 63.6269 144.469C63.1437 144.147 62.807 143.647 62.6898 143.078C62.5792 142.508 62.6978 141.917 63.02 141.434C63.3421 140.951 63.8418 140.614 64.4107 140.497L88.885 135.621C89.4552 135.511 90.046 135.629 90.5292 135.951C91.0125 136.274 91.3492 136.773 91.4663 137.342C91.577 137.912 91.4584 138.503 91.1362 138.986C90.814 139.47 90.3143 139.806 89.7454 139.923Z" fill="#1890FF"/>
<path opacity="0.4" d="M84.8545 150.271L67.0724 153.815C66.5033 153.924 65.9144 153.804 65.4328 153.482C64.9513 153.16 64.6156 152.662 64.4984 152.094C64.3878 151.524 64.5064 150.934 64.8286 150.45C65.1507 149.967 65.6504 149.63 66.2193 149.513L84.0014 145.969C84.5705 145.86 85.1594 145.98 85.6409 146.302C86.1225 146.624 86.4582 147.122 86.5753 147.689C86.686 148.26 86.5674 148.85 86.2452 149.334C85.9231 149.817 85.4233 150.154 84.8545 150.271Z" fill="#1890FF"/>
</g>
<path d="M146.25 89.0109L106.11 94.5022L113.676 149.804L153.816 144.313L146.25 89.0109Z" fill="#1890FF"/>
<path opacity="0.7" d="M146.25 89.0109L106.11 94.5022L113.676 149.804L153.816 144.313L146.25 89.0109Z" fill="white"/>
<g opacity="0.4">
<path opacity="0.4" d="M140.156 101.829L115.432 105.212C114.856 105.287 114.274 105.133 113.811 104.782C113.349 104.431 113.043 103.911 112.961 103.336C112.886 102.761 113.04 102.178 113.391 101.716C113.742 101.253 114.262 100.948 114.836 100.865L139.561 97.4826C140.137 97.4071 140.719 97.5616 141.181 97.9127C141.644 98.2638 141.95 98.783 142.032 99.3579C142.107 99.9337 141.953 100.516 141.602 100.979C141.251 101.441 140.731 101.747 140.156 101.829Z" fill="#1890FF"/>
<path opacity="0.4" d="M141.407 110.97L116.682 114.353C116.106 114.428 115.524 114.274 115.061 113.923C114.599 113.572 114.293 113.053 114.211 112.478C114.138 111.903 114.293 111.323 114.644 110.862C114.995 110.401 115.513 110.096 116.086 110.014L140.811 106.631C141.385 106.556 141.967 106.709 142.429 107.059C142.892 107.408 143.198 107.926 143.282 108.499C143.357 109.075 143.203 109.657 142.852 110.12C142.501 110.582 141.981 110.888 141.407 110.97Z" fill="#1890FF"/>
<path opacity="0.4" d="M124.742 122.567L117.932 123.501C117.356 123.577 116.774 123.422 116.311 123.071C115.849 122.72 115.543 122.201 115.461 121.626C115.386 121.05 115.54 120.468 115.891 120.005C116.242 119.543 116.762 119.237 117.336 119.155L124.154 118.221C124.728 118.147 125.309 118.303 125.77 118.654C126.231 119.005 126.535 119.523 126.617 120.096C126.693 120.672 126.538 121.254 126.187 121.717C125.836 122.18 125.317 122.485 124.742 122.567Z" fill="#1890FF"/>
<path opacity="0.4" d="M137.958 120.758L131.141 121.692C130.566 121.766 129.986 121.61 129.525 121.259C129.064 120.908 128.759 120.39 128.677 119.817C128.601 119.241 128.756 118.659 129.107 118.196C129.458 117.734 129.977 117.428 130.552 117.346L137.362 116.419C137.937 116.344 138.518 116.497 138.981 116.847C139.443 117.196 139.749 117.714 139.833 118.287C139.909 118.863 139.754 119.445 139.403 119.908C139.052 120.37 138.533 120.676 137.958 120.758Z" fill="#1890FF"/>
<path opacity="0.4" d="M143.907 129.259L119.182 132.642C118.606 132.718 118.024 132.563 117.561 132.212C117.099 131.861 116.793 131.342 116.711 130.767C116.638 130.192 116.793 129.612 117.144 129.151C117.495 128.69 118.013 128.385 118.586 128.303L143.311 124.913C143.887 124.838 144.469 124.992 144.932 125.343C145.394 125.694 145.7 126.213 145.782 126.788C145.857 127.364 145.703 127.946 145.352 128.409C145.001 128.872 144.481 129.177 143.907 129.259Z" fill="#1890FF"/>
<path opacity="0.4" d="M138.406 139.327L120.433 141.784C119.859 141.857 119.28 141.703 118.819 141.353C118.358 141.004 118.053 140.488 117.969 139.916C117.893 139.341 118.047 138.76 118.396 138.297C118.746 137.835 119.263 137.529 119.837 137.445L137.81 134.988C138.384 134.915 138.963 135.069 139.424 135.419C139.885 135.768 140.19 136.284 140.274 136.856C140.35 137.431 140.196 138.012 139.847 138.475C139.497 138.937 138.98 139.243 138.406 139.327Z" fill="#1890FF"/>
</g>
<path d="M108.373 97.0795L68.0127 100.596L72.8581 156.203L113.219 152.686L108.373 97.0795Z" fill="#1890FF"/>
<path opacity="0.8" d="M108.373 97.0795L68.0127 100.596L72.8581 156.203L113.219 152.686L108.373 97.0795Z" fill="white"/>
<g opacity="0.4">
<path opacity="0.4" d="M101.658 109.595L76.7942 111.757C76.2157 111.804 75.642 111.621 75.1973 111.248C74.7527 110.875 74.473 110.342 74.4188 109.764C74.3738 109.187 74.5575 108.615 74.9304 108.172C75.3032 107.729 75.8353 107.45 76.4117 107.396L101.276 105.19C101.854 105.143 102.428 105.325 102.873 105.698C103.317 106.072 103.597 106.605 103.651 107.183C103.68 107.472 103.65 107.764 103.566 108.042C103.481 108.32 103.342 108.579 103.156 108.803C102.971 109.027 102.743 109.213 102.486 109.348C102.229 109.484 101.948 109.568 101.658 109.595Z" fill="#1890FF"/>
<path opacity="0.4" d="M102.46 118.787L77.5955 120.993C77.017 121.04 76.4433 120.858 75.9987 120.485C75.5541 120.112 75.2743 119.578 75.2202 119C75.1731 118.422 75.3559 117.848 75.729 117.404C76.102 116.959 76.6352 116.679 77.2131 116.625L102.077 114.419C102.656 114.372 103.229 114.555 103.674 114.928C104.119 115.301 104.398 115.834 104.453 116.412C104.5 116.99 104.317 117.564 103.944 118.009C103.571 118.453 103.037 118.733 102.46 118.787Z" fill="#1890FF"/>
<path opacity="0.4" d="M103.261 127.98L78.3973 130.186C77.8188 130.233 77.2451 130.05 76.8005 129.677C76.3558 129.304 76.0761 128.771 76.0219 128.193C75.9749 127.615 76.1577 127.041 76.5307 126.596C76.9038 126.152 77.437 125.872 78.0149 125.818L102.879 123.612C103.457 123.564 104.031 123.747 104.476 124.12C104.92 124.493 105.2 125.027 105.254 125.604C105.301 126.183 105.119 126.757 104.745 127.201C104.372 127.646 103.839 127.926 103.261 127.98Z" fill="#1890FF"/>
<path opacity="0.4" d="M104.078 137.173L79.2137 139.379C78.6352 139.426 78.0615 139.243 77.6169 138.87C77.1722 138.497 76.8925 137.964 76.8383 137.386C76.7913 136.807 76.9741 136.234 77.3471 135.789C77.7202 135.344 78.2534 135.065 78.8313 135.01L103.695 132.848C104.274 132.801 104.848 132.984 105.292 133.357C105.737 133.73 106.017 134.263 106.071 134.841C106.106 135.412 105.917 135.975 105.546 136.41C105.174 136.845 104.647 137.118 104.078 137.173Z" fill="#1890FF"/>
<path opacity="0.4" d="M98.0693 146.961L80.0004 148.535C79.4183 148.588 78.8389 148.408 78.3894 148.034C77.9399 147.66 77.657 147.124 77.603 146.542C77.5559 145.963 77.7387 145.389 78.1118 144.945C78.4848 144.5 79.0181 144.22 79.5959 144.166L97.6648 142.592C98.2433 142.545 98.817 142.728 99.2617 143.101C99.7063 143.474 99.986 144.008 100.04 144.585C100.088 145.16 99.9077 145.731 99.5393 146.175C99.1709 146.619 98.6432 146.901 98.0693 146.961Z" fill="#1890FF"/>
</g>
<path d="M157.553 94.3778L117.087 96.3286L119.775 152.081L160.241 150.13L157.553 94.3778Z" fill="#1890FF"/>
<path opacity="0.8" d="M157.553 94.3778L117.087 96.3286L119.775 152.081L160.241 150.13L157.553 94.3778Z" fill="white"/>
<g opacity="0.4">
<path opacity="0.4" d="M150.365 106.609L125.442 107.815C124.863 107.839 124.297 107.634 123.868 107.245C123.439 106.855 123.18 106.313 123.147 105.734C123.123 105.155 123.328 104.589 123.718 104.16C124.107 103.731 124.65 103.472 125.229 103.439L150.159 102.233C150.738 102.209 151.303 102.414 151.733 102.804C152.162 103.193 152.421 103.736 152.453 104.315C152.477 104.895 152.272 105.461 151.881 105.891C151.49 106.321 150.945 106.579 150.365 106.609Z" fill="#1890FF"/>
<path opacity="0.4" d="M150.814 115.831L125.883 117.03C125.304 117.054 124.739 116.849 124.309 116.459C123.88 116.07 123.621 115.527 123.589 114.948C123.565 114.368 123.771 113.802 124.162 113.372C124.553 112.943 125.097 112.684 125.677 112.654L150.6 111.448C151.181 111.424 151.747 111.63 152.177 112.021C152.606 112.412 152.864 112.956 152.895 113.536C152.919 114.116 152.714 114.681 152.325 115.11C151.935 115.54 151.392 115.799 150.814 115.831Z" fill="#1890FF"/>
<path opacity="0.4" d="M133.2 125.95L126.332 126.281C125.752 126.305 125.187 126.101 124.758 125.711C124.328 125.322 124.069 124.779 124.037 124.2C124.013 123.621 124.218 123.056 124.607 122.626C124.997 122.197 125.539 121.938 126.118 121.906L132.987 121.567C133.567 121.543 134.134 121.749 134.563 122.14C134.993 122.531 135.251 123.076 135.281 123.656C135.306 124.235 135.101 124.8 134.711 125.23C134.322 125.659 133.779 125.918 133.2 125.95Z" fill="#1890FF"/>
<path opacity="0.4" d="M146.519 125.273L139.65 125.604C139.071 125.628 138.505 125.424 138.076 125.034C137.647 124.645 137.388 124.102 137.355 123.523C137.331 122.944 137.536 122.378 137.926 121.949C138.315 121.52 138.858 121.261 139.437 121.229L146.305 120.898C146.884 120.874 147.45 121.078 147.879 121.468C148.309 121.857 148.567 122.4 148.6 122.979C148.624 123.558 148.419 124.123 148.03 124.553C147.64 124.982 147.097 125.241 146.519 125.273Z" fill="#1890FF"/>
<path opacity="0.4" d="M151.703 134.268L126.773 135.466C126.194 135.491 125.628 135.286 125.199 134.896C124.77 134.507 124.511 133.964 124.478 133.385C124.454 132.805 124.66 132.238 125.051 131.809C125.442 131.379 125.987 131.121 126.567 131.091L151.49 129.885C152.07 129.861 152.637 130.066 153.066 130.458C153.496 130.849 153.754 131.393 153.784 131.973C153.808 132.552 153.604 133.118 153.214 133.547C152.825 133.977 152.282 134.235 151.703 134.268Z" fill="#1890FF"/>
<path opacity="0.4" d="M145.334 143.813L127.221 144.688C126.642 144.712 126.077 144.508 125.647 144.118C125.218 143.729 124.959 143.186 124.927 142.607C124.903 142.028 125.107 141.462 125.497 141.033C125.886 140.604 126.429 140.345 127.008 140.313L145.121 139.437C145.7 139.413 146.266 139.618 146.695 140.008C147.124 140.397 147.383 140.94 147.415 141.519C147.44 142.098 147.235 142.663 146.845 143.093C146.456 143.522 145.913 143.781 145.334 143.813Z" fill="#1890FF"/>
</g>
<path d="M97.3493 138.335L96.7021 135.915C96.2488 134.241 95.196 132.791 93.7439 131.842C92.2918 130.893 90.5416 130.51 88.8259 130.767L53.6809 134.878C51.5487 135.139 49.585 136.17 48.1581 137.775C46.7311 139.381 45.9388 141.452 45.9297 143.6L47.9226 227.326C47.9345 228.016 48.0939 228.695 48.3901 229.318C48.6863 229.94 49.1124 230.493 49.6398 230.937C50.1672 231.382 50.7836 231.708 51.4477 231.895C52.1117 232.081 52.808 232.123 53.4897 232.018L179.244 217.31C180.704 217.133 182.05 216.429 183.029 215.331C184.007 214.234 184.552 212.816 184.561 211.346L182.84 138.967C182.827 138.277 182.667 137.598 182.37 136.975C182.073 136.352 181.646 135.8 181.118 135.356C180.59 134.911 179.973 134.585 179.309 134.399C178.645 134.212 177.948 134.17 177.266 134.275L104.247 142.813C102.749 143.042 101.218 142.712 99.9461 141.887C98.6743 141.061 97.7502 139.797 97.3493 138.335Z" fill="#1890FF"/>
<path opacity="0.3" d="M97.3493 138.335L96.7021 135.915C96.2488 134.241 95.196 132.791 93.7439 131.842C92.2918 130.893 90.5416 130.51 88.8259 130.767L53.6809 134.878C51.5487 135.139 49.585 136.17 48.1581 137.775C46.7311 139.381 45.9388 141.452 45.9297 143.6L47.9226 227.326C47.9345 228.016 48.0939 228.695 48.3901 229.318C48.6863 229.94 49.1124 230.493 49.6398 230.937C50.1672 231.382 50.7836 231.708 51.4477 231.895C52.1117 232.081 52.808 232.123 53.4897 232.018L179.244 217.31C180.704 217.133 182.05 216.429 183.029 215.331C184.007 214.234 184.552 212.816 184.561 211.346L182.84 138.967C182.827 138.277 182.667 137.598 182.37 136.975C182.073 136.352 181.646 135.8 181.118 135.356C180.59 134.911 179.973 134.585 179.309 134.399C178.645 134.212 177.948 134.17 177.266 134.275L104.247 142.813C102.749 143.042 101.218 142.712 99.9461 141.887C98.6743 141.061 97.7502 139.797 97.3493 138.335Z" fill="black"/>
<path d="M220.272 98.0866C219.728 100.815 219.147 103.507 218.492 106.176C217.838 108.846 217.198 111.545 216.485 114.214L215.396 118.207L215.256 118.722C215.19 118.943 215.117 119.163 215.028 119.391C214.84 119.892 214.594 120.368 214.293 120.811C213.928 121.36 213.461 121.835 212.918 122.208C212.319 122.614 211.63 122.867 210.91 122.943C209.821 123.023 208.732 122.79 207.77 122.274C207.039 121.876 206.354 121.4 205.726 120.855C204.589 119.861 203.583 118.727 202.732 117.479L204.828 115.655C205.829 116.434 206.886 117.137 207.991 117.759C208.471 118.031 208.978 118.25 209.506 118.413C209.954 118.56 210.351 118.538 210.351 118.465C210.351 118.391 210.278 118.465 210.241 118.465C210.204 118.465 210.241 118.465 210.241 118.34C210.241 118.215 210.329 118.082 210.381 117.891L210.55 117.075L211.403 113.059L213.131 105.029C213.69 102.352 214.293 99.6677 214.874 97.0203L220.272 98.0866Z" fill="#FFC3BD"/>
<path d="M217.831 89.6805C211.558 94.4827 211.815 103.536 211.815 103.536L223.03 106.22C223.03 106.22 226.479 97.1155 225.082 93.7841C223.626 90.313 221.368 86.9742 217.831 89.6805Z" fill="#263238"/>
<path d="M205.388 115.766L201.262 111.64L199.056 118.097C199.056 118.097 202.542 119.972 205.873 118.2L205.388 115.766Z" fill="#FFC3BD"/>
<path d="M195.548 111L194.79 116.104L199.033 118.097L201.262 111.64L195.548 111Z" fill="#FFC3BD"/>
<path d="M254.189 260.428L247.88 261.045L241.312 246.021L247.622 245.403L254.189 260.428Z" fill="#FFC3BD"/>
<path d="M294.843 238.218L290.1 242.667L279.87 231.423L284.613 226.974L294.843 238.218Z" fill="#FFC3BD"/>
<path d="M287.929 240.535L291.489 234.122C291.548 234.01 291.647 233.923 291.766 233.878C291.886 233.834 292.017 233.834 292.136 233.879L297.615 235.968C297.75 236.025 297.872 236.11 297.972 236.217C298.072 236.324 298.149 236.451 298.197 236.59C298.245 236.729 298.263 236.876 298.25 237.022C298.237 237.168 298.193 237.31 298.122 237.439C296.842 239.645 296.114 240.66 294.548 243.484C293.585 245.219 291.709 249.198 290.378 251.573C289.047 253.949 286.606 252.787 286.944 251.669C288.466 246.653 288.179 243.866 287.753 241.66C287.68 241.276 287.742 240.878 287.929 240.535Z" fill="#263238"/>
<path d="M247.041 259.096H254.792C254.931 259.097 255.067 259.143 255.177 259.228C255.288 259.313 255.367 259.432 255.402 259.567L257.086 265.693C257.128 265.838 257.135 265.99 257.107 266.138C257.079 266.285 257.016 266.425 256.925 266.544C256.833 266.663 256.715 266.76 256.58 266.825C256.444 266.891 256.296 266.924 256.145 266.921C253.409 266.921 252.115 266.921 248.71 266.921H238.297C235.458 266.921 234.87 264.06 236.039 263.796C241.297 262.634 244.32 261.031 245.945 259.501C246.246 259.233 246.638 259.089 247.041 259.096Z" fill="#263238"/>
<path opacity="0.2" d="M241.319 246.028L244.702 253.772H251.284L247.629 245.41L241.319 246.028Z" fill="black"/>
<path opacity="0.2" d="M284.613 226.981L279.87 231.43L285.15 237.225L289.894 232.768L284.613 226.981Z" fill="black"/>
<path d="M219.728 88.7541C219.728 88.7541 216.89 89.997 226.406 127.65L252.836 125.363C251.469 114.648 250.88 108.014 254.109 85.4889C250.344 85.0436 246.551 84.874 242.761 84.9815C238.741 85.0417 234.73 85.3882 230.759 86.0184C227.038 86.7429 223.357 87.656 219.728 88.7541Z" fill="#263238"/>
<path d="M242.761 84.7681C242.761 84.7681 244.232 84.7681 246.027 84.7681C247.093 86.408 243.637 93.5929 237.937 98.2922C237.069 95.6797 235.475 93.3685 233.341 91.6294L242.761 84.7681Z" fill="white"/>
<path d="M230.759 85.9224C230.759 85.9224 230.09 86.018 228.494 86.3857C227.427 88.0256 225.626 95.034 228.766 98.6081C229.557 95.8978 231.142 93.4871 233.318 91.6879L230.759 85.9224Z" fill="white"/>
<path d="M240.401 71.5676C239.981 75.4947 239.834 82.5987 242.761 84.9814C242.761 84.9814 239.636 88.1731 233.319 91.6883C228.722 88.5114 230.759 86.0183 230.759 86.0183C234.973 84.6211 234.583 81.4368 233.576 78.4951L240.401 71.5676Z" fill="#FFC3BD"/>
<path d="M233.208 91.7104C233.208 91.7104 237.084 87.4891 239.091 88.2981C241.099 89.107 239.547 90.5558 239.371 91.9163C239.194 93.2768 240.15 96.895 237.466 95.9537C234.782 95.0123 233.208 91.7104 233.208 91.7104Z" fill="#1890FF"/>
<path d="M233.054 91.6222C233.054 91.6222 231.222 88.3864 229.244 88.8203C227.266 89.2542 228.443 90.3867 228.619 91.6075C228.847 93.1666 227.2 96.167 229.582 95.2845C231.965 94.4021 233.054 91.6222 233.054 91.6222Z" fill="#1890FF"/>
<g opacity="0.2">
<path opacity="0.2" d="M232.039 90.9236C232.012 91.576 232.138 92.2257 232.406 92.8209C232.65 92.4407 232.864 92.0425 233.046 91.6296C232.775 91.1685 232.462 90.7328 232.112 90.3279C232.052 90.5203 232.027 90.7222 232.039 90.9236Z" fill="black"/>
<path opacity="0.2" d="M234.619 90.3425C233.788 91.0779 233.215 91.7104 233.215 91.7104C233.429 92.1519 233.674 92.5771 233.95 92.9826C234.394 92.537 234.657 91.9418 234.686 91.3133C234.756 90.99 234.733 90.6533 234.619 90.3425Z" fill="black"/>
</g>
<path d="M233.164 93.034C232.612 93.034 232.274 92.4383 232.237 91.0189C232.2 89.5996 233.289 90.3865 233.289 90.3865C233.289 90.3865 234.76 89.6511 234.495 91.3499C234.304 92.6957 233.73 93.034 233.164 93.034Z" fill="#1890FF"/>
<path opacity="0.2" d="M237.62 74.3989L233.583 78.4951C233.825 79.1772 234.009 79.8783 234.135 80.5911C235.76 80.216 238.113 78.5246 238.135 76.789C238.109 75.9678 237.934 75.1581 237.62 74.3989Z" fill="black"/>
<path d="M234.156 58.2936C234.156 58.2936 229.744 64.4048 229.009 67.1185C226.008 68.8688 225.405 60.2571 226.994 54.9475C231.95 58.0583 234.156 58.2936 234.156 58.2936Z" fill="#263238"/>
<path d="M243.857 65.434C242.217 71.707 241.651 74.3986 237.812 77.024C232.024 80.9805 224.678 77.5976 224.405 70.9569C224.163 64.9854 226.884 55.7266 233.598 54.4249C235.078 54.1246 236.61 54.2088 238.047 54.6697C239.485 55.1305 240.781 55.9526 241.81 57.0571C242.839 58.1617 243.568 59.5118 243.926 60.9785C244.285 62.4451 244.261 63.9792 243.857 65.434Z" fill="#FFC3BD"/>
<path d="M247.269 62.9264C247.269 62.9264 244.114 68.0375 243.688 70.2805C241.401 71.8322 240.437 65.0223 241.401 60.7202C242.452 56.8887 247.269 62.9264 247.269 62.9264Z" fill="#263238"/>
<path d="M246.012 59.3746C245.1 60.0658 244.137 57.514 245.041 55.5578C243.298 55.6681 241.202 54.6312 241.651 52.9471C238.217 54.1017 236.944 50.6085 237.342 48.189C237.82 45.2474 240.379 44.6223 241.886 45.3945C241.886 44.0781 245.21 41.335 246.475 43.4824C248.821 42.6514 252.601 42.9088 252.52 45.7916C254.072 45.8357 258.654 47.5933 256.933 51.6749C258.955 51.7925 260.051 54.3591 258.926 56.3006C259.369 56.5353 259.749 56.8733 260.034 57.286C260.319 57.6987 260.501 58.1739 260.564 58.6715C260.626 59.1692 260.568 59.6746 260.395 60.1451C260.221 60.6156 259.937 61.0374 259.565 61.3749C260.499 63.3163 257.668 66.2065 256.161 65.8608C255.013 67.6185 253.256 68.9422 252.108 67.442C249.902 69.0672 247.365 67.0007 247.931 65.4122C245.431 65.0298 242.879 60.8601 246.012 59.3746Z" fill="#263238"/>
<path d="M249.747 53.1972C251.395 55.9476 251.255 59.0805 249.446 60.1468C247.637 61.2132 244.82 59.8894 243.173 57.139C241.525 54.3886 241.658 51.2557 243.474 50.1894C245.291 49.1231 248.1 50.4541 249.747 53.1972Z" fill="#1890FF"/>
<path d="M234.451 57.5581C234.355 58.345 232.186 58.1391 231.561 56.7491C230.664 57.6905 228.553 58.1758 227.832 57.1536C226.612 59.4481 224.155 58.8451 223.523 57.7493C222.89 56.6535 222.471 54.6165 223.743 54.212C223.008 53.5795 223.229 50.6011 225.155 50.9762C225.964 49.3877 228.178 47.586 229.796 48.9906C230.678 48.2552 234.208 46.7256 235.635 49.5275C235.948 49.3136 236.305 49.1735 236.68 49.1176C237.055 49.0617 237.438 49.0915 237.799 49.2048C238.161 49.318 238.492 49.5117 238.768 49.7714C239.044 50.0311 239.258 50.35 239.393 50.7041C241.68 50.1084 242.673 51.844 242.665 52.7853C244.291 53.2265 244.401 56.0358 243.401 56.6388C243.791 58.0582 243.585 59.5805 242.092 59.4481C241.805 61.3602 239.246 61.6543 238.643 60.6174C236.981 61.6837 233.591 59.8305 234.451 57.5581Z" fill="#263238"/>
<path d="M230.568 52.131C232.429 49.5571 239.217 48.454 245.093 52.3443C250.388 55.8228 250.042 63.9049 245.828 63.471C241.614 63.0371 237.452 58.1025 237.452 58.1025L230.568 52.131Z" fill="#263238"/>
<path d="M244.371 71.097C243.785 72.2029 242.786 73.0327 241.591 73.4062C239.996 73.8842 239.172 72.4722 239.584 70.9499C239.959 69.5821 241.231 67.6847 242.842 67.8759C243.193 67.9226 243.527 68.0565 243.813 68.2652C244.1 68.4739 244.329 68.7509 244.481 69.071C244.633 69.3911 244.703 69.7442 244.684 70.098C244.664 70.4518 244.557 70.7953 244.371 71.097Z" fill="#FFC3BD"/>
<path d="M226.406 127.65C226.406 127.65 217.464 167.214 223.465 195.108C227.465 213.788 241.85 251.521 241.85 251.521L253.131 251.235C253.131 251.235 242.21 211.633 239.952 196.079C236.092 169.443 245.762 126.002 245.762 126.002L226.406 127.65Z" fill="#1890FF"/>
<path opacity="0.2" d="M236.716 135.644L242.334 144.535C240.636 155.077 239.558 165.71 239.106 176.378C231.2 162.185 234.98 143.152 236.716 135.644Z" fill="black"/>
<path d="M240.26 252.11L254.189 251.75L253.387 247.477L239.172 248.146L240.26 252.11Z" fill="#263238"/>
<path d="M232.186 127.23C232.186 127.23 237.429 169.185 248.806 192.093C257.991 210.596 282.502 236.953 282.502 236.953L288.768 230.496C288.768 230.496 272.214 201.874 265.389 189.586C248.644 159.434 262.33 136.452 252.836 125.385L232.186 127.23Z" fill="#1890FF"/>
<path d="M281.87 237.799L289.96 229.915L287.276 226.26L278.693 234.82L281.87 237.799Z" fill="#263238"/>
<path d="M253.101 123.782L254.498 126.047C254.609 126.216 254.403 126.422 254.101 126.451L226.376 128.849C226.141 128.849 225.935 128.768 225.906 128.621L225.464 126.275C225.428 126.113 225.626 125.958 225.884 125.936L252.652 123.62C252.735 123.604 252.82 123.611 252.899 123.64C252.978 123.668 253.047 123.717 253.101 123.782Z" fill="#1890FF"/>
<path opacity="0.5" d="M253.101 123.782L254.498 126.047C254.609 126.216 254.403 126.422 254.101 126.451L226.376 128.849C226.141 128.849 225.935 128.768 225.906 128.621L225.464 126.275C225.428 126.113 225.626 125.958 225.884 125.936L252.652 123.62C252.735 123.604 252.82 123.611 252.899 123.64C252.978 123.668 253.047 123.717 253.101 123.782Z" fill="white"/>
<path d="M249.762 127.083L250.498 127.024C250.638 127.024 250.741 126.929 250.726 126.841L250.123 123.796C250.123 123.7 249.976 123.642 249.829 123.656L249.093 123.715C248.946 123.715 248.843 123.811 248.865 123.899L249.468 126.944C249.49 127.032 249.623 127.098 249.762 127.083Z" fill="#1890FF"/>
<path d="M228.413 128.929L229.148 128.871C229.288 128.871 229.391 128.775 229.376 128.687L228.773 125.642C228.747 125.589 228.703 125.547 228.65 125.522C228.597 125.496 228.537 125.49 228.479 125.502L227.744 125.561C227.597 125.561 227.494 125.657 227.516 125.745L228.119 128.79C228.141 128.893 228.273 128.944 228.413 128.929Z" fill="#1890FF"/>
<path d="M239.091 128.01L239.827 127.944C239.974 127.944 240.077 127.848 240.055 127.76L239.452 124.716C239.452 124.627 239.305 124.561 239.165 124.576L238.43 124.642C238.29 124.642 238.187 124.738 238.202 124.826L238.805 127.87C238.819 127.959 238.944 128.017 239.091 128.01Z" fill="#1890FF"/>
<path d="M233.237 65.221C233.134 65.7358 232.781 66.1035 232.443 66.0373C232.105 65.9711 231.913 65.4931 232.009 64.9783C232.105 64.4635 232.472 64.0958 232.811 64.162C233.149 64.2282 233.34 64.6989 233.237 65.221Z" fill="#263238"/>
<path d="M227.383 64.0655C227.485 63.5474 227.293 63.0734 226.954 63.0069C226.615 62.9403 226.258 63.3063 226.156 63.8244C226.054 64.3424 226.246 64.8164 226.585 64.883C226.924 64.9496 227.281 64.5836 227.383 64.0655Z" fill="#263238"/>
<path d="M227.111 63.0735L225.935 62.4705C225.935 62.4705 226.383 63.5662 227.111 63.0735Z" fill="#263238"/>
<path d="M229.399 65.3608C228.71 66.4514 227.873 67.4414 226.913 68.3025C227.136 68.5481 227.411 68.7414 227.717 68.8685C228.023 68.9957 228.354 69.0535 228.685 69.0379L229.399 65.3608Z" fill="#ED847E"/>
<path d="M231.076 71.4648C232.162 71.4763 233.213 71.077 234.017 70.3469C234.033 70.3353 234.046 70.3204 234.055 70.3033C234.064 70.2861 234.069 70.2672 234.07 70.2477C234.071 70.2283 234.068 70.2089 234.061 70.1909C234.053 70.1729 234.042 70.1567 234.028 70.1435C234.014 70.1303 233.997 70.1204 233.978 70.1146C233.96 70.1087 233.94 70.107 233.921 70.1096C233.901 70.1121 233.883 70.1189 233.867 70.1294C233.85 70.14 233.836 70.154 233.826 70.1704C233.331 70.6068 232.74 70.9202 232.101 71.085C231.462 71.2499 230.793 71.2616 230.149 71.1191C230.133 71.116 230.116 71.1161 230.099 71.1196C230.083 71.1231 230.067 71.1299 230.054 71.1395C230.04 71.1491 230.028 71.1613 230.019 71.1755C230.011 71.1897 230.005 71.2055 230.002 71.2221C229.998 71.2386 229.997 71.2559 230 71.2727C230.003 71.2895 230.01 71.3055 230.019 71.3195C230.029 71.3335 230.042 71.3452 230.057 71.3537C230.071 71.3623 230.088 71.3676 230.105 71.3692C230.424 71.4361 230.75 71.4682 231.076 71.4648Z" fill="#263238"/>
<path d="M236.746 63.213C236.792 63.2122 236.838 63.1996 236.878 63.1762C236.936 63.1411 236.979 63.0842 236.995 63.018C237.012 62.9518 237.001 62.8817 236.966 62.8232C236.723 62.41 236.384 62.0609 235.979 61.805C235.573 61.5492 235.113 61.394 234.635 61.3524C234.601 61.3514 234.567 61.3571 234.536 61.3691C234.504 61.3812 234.475 61.3993 234.451 61.4226C234.426 61.4458 234.406 61.4736 234.393 61.5045C234.379 61.5354 234.371 61.5686 234.37 61.6024C234.369 61.6362 234.375 61.6699 234.387 61.7015C234.399 61.7331 234.417 61.762 234.44 61.7866C234.464 61.8112 234.491 61.831 234.522 61.8448C234.553 61.8586 234.586 61.8662 234.62 61.8672C235.015 61.9106 235.393 62.0473 235.724 62.266C236.056 62.4846 236.33 62.779 236.525 63.1247C236.552 63.1561 236.586 63.1805 236.624 63.1958C236.663 63.2112 236.704 63.2171 236.746 63.213Z" fill="#263238"/>
<path d="M225.773 61.1395C225.814 61.149 225.857 61.149 225.898 61.1395C226.24 60.9373 226.624 60.8187 227.021 60.7931C227.417 60.7675 227.813 60.8358 228.178 60.9924C228.238 61.0173 228.305 61.0189 228.365 60.9968C228.426 60.9746 228.476 60.9304 228.506 60.873C228.536 60.8155 228.543 60.749 228.525 60.6866C228.508 60.6243 228.468 60.5707 228.413 60.5365C227.973 60.337 227.491 60.2468 227.008 60.2737C226.525 60.3006 226.056 60.4437 225.641 60.6909C225.583 60.7248 225.541 60.7798 225.523 60.8443C225.505 60.9089 225.513 60.9778 225.545 61.0366C225.57 61.0728 225.605 61.1015 225.645 61.1197C225.685 61.1378 225.73 61.1447 225.773 61.1395Z" fill="#263238"/>
<path d="M255.234 91.5046C255.734 91.99 256.079 92.3724 256.469 92.8063C256.859 93.2402 257.204 93.6667 257.557 94.1006C258.256 94.9758 258.925 95.873 259.55 96.7922C260.793 98.6455 261.895 100.59 262.845 102.609C263.793 104.638 264.559 106.747 265.132 108.912C265.419 109.993 265.676 111.118 265.868 112.199C266.232 113.761 266.053 115.4 265.36 116.847C264.957 117.606 264.398 118.273 263.72 118.803C263.133 119.255 262.487 119.626 261.801 119.906C260.62 120.361 259.383 120.653 258.124 120.774C255.889 120.988 253.638 120.959 251.409 120.686C247.144 120.189 242.933 119.296 238.834 118.016L239.511 115.347C241.511 115.677 243.57 115.986 245.6 116.2C247.629 116.413 249.674 116.604 251.682 116.648C253.626 116.718 255.574 116.61 257.499 116.325C258.328 116.19 259.134 115.942 259.896 115.589C260.363 115.413 260.748 115.069 260.977 114.626C261.039 114.456 261.069 114.277 261.065 114.096C261.076 113.964 261.076 113.831 261.065 113.699C261.065 113.552 261.014 113.42 260.948 113.148C260.742 112.199 260.47 111.265 260.176 110.338C259.577 108.491 258.839 106.691 257.969 104.955C257.095 103.209 256.092 101.53 254.969 99.9324C254.417 99.1234 253.836 98.3366 253.233 97.5791C252.932 97.1967 252.616 96.8437 252.307 96.4686C251.998 96.0936 251.645 95.7332 251.402 95.4685L255.234 91.5046Z" fill="#FFC3BD"/>
<path d="M241.195 115.751L236.047 113.022L235.812 119.84C235.812 119.84 239.489 120.075 241.592 118.369L241.195 115.751Z" fill="#FFC3BD"/>
<path d="M232.163 152.426L236.414 106.235L227.332 99.2779L199.607 96.7261L194.79 148.984L232.163 152.426Z" fill="#1890FF"/>
<path opacity="0.8" d="M232.163 152.426L236.414 106.235L227.332 99.2779L199.607 96.7261L194.79 148.984L232.163 152.426Z" fill="white"/>
<path d="M236.414 106.235L227.332 99.2776L229.715 107.602L236.414 106.235Z" fill="#1890FF"/>
<path d="M198.041 157.058C204.296 157.058 209.366 151.988 209.366 145.733C209.366 139.478 204.296 134.408 198.041 134.408C191.786 134.408 186.716 139.478 186.716 145.733C186.716 151.988 191.786 157.058 198.041 157.058Z" fill="#1890FF"/>
<path d="M203.636 152.812C207.55 149.72 208.216 144.041 205.124 140.127C202.032 136.213 196.353 135.547 192.44 138.639C188.526 141.731 187.86 147.41 190.952 151.324C194.044 155.237 199.723 155.903 203.636 152.812Z" fill="white"/>
<path d="M203.622 144.939L199.637 144.476L200.1 140.49L197.246 140.152L196.783 144.138L192.797 143.667L192.459 146.528L196.445 146.998L195.974 150.977L198.835 151.315L199.298 147.329L203.284 147.8L203.622 144.939Z" fill="#1890FF"/>
<path opacity="0.4" d="M229.634 115.81C229.597 116.214 229.481 116.607 229.292 116.966C229.103 117.326 228.845 117.644 228.533 117.904C228.221 118.163 227.86 118.359 227.473 118.479C227.085 118.599 226.677 118.642 226.273 118.604L206.049 116.744C205.234 116.667 204.481 116.271 203.958 115.641C203.434 115.011 203.181 114.199 203.255 113.383C203.292 112.979 203.408 112.586 203.597 112.226C203.786 111.867 204.044 111.549 204.356 111.289C204.668 111.029 205.028 110.834 205.416 110.714C205.804 110.594 206.211 110.551 206.616 110.588L226.839 112.449C227.243 112.486 227.637 112.602 227.996 112.791C228.355 112.98 228.674 113.238 228.933 113.55C229.193 113.862 229.388 114.222 229.508 114.61C229.629 114.998 229.671 115.406 229.634 115.81Z" fill="#1890FF"/>
<path opacity="0.4" d="M222.743 124.156C222.707 124.561 222.59 124.954 222.401 125.313C222.212 125.672 221.955 125.991 221.642 126.25C221.33 126.51 220.97 126.705 220.582 126.826C220.195 126.946 219.787 126.988 219.383 126.951L205.248 125.649C204.844 125.612 204.451 125.496 204.092 125.307C203.732 125.118 203.414 124.86 203.154 124.548C202.895 124.236 202.699 123.876 202.579 123.488C202.459 123.1 202.416 122.693 202.454 122.288C202.491 121.884 202.607 121.491 202.796 121.132C202.985 120.773 203.243 120.454 203.555 120.194C203.867 119.935 204.227 119.739 204.615 119.619C205.003 119.499 205.41 119.456 205.814 119.494L219.949 120.803C220.763 120.879 221.514 121.275 222.038 121.903C222.561 122.532 222.815 123.342 222.743 124.156Z" fill="#1890FF"/>
<path d="M232.899 113.427L233.672 118.523L235.804 119.84L236.04 113.022L232.899 113.427Z" fill="#FFC3BD"/>
<path d="M254.101 85.5033C257.344 86.0769 261.889 95.3724 261.889 95.3724L253.718 102.726C253.718 102.726 247.217 95.6372 247.563 91.4159C247.865 87.8492 249.983 84.7678 254.101 85.5033Z" fill="#263238"/>
<path d="M286.665 243.983C286.749 243.982 286.833 243.97 286.915 243.947C287.694 243.682 288.202 242.248 288.437 241.417C288.442 241.393 288.44 241.368 288.433 241.345C288.425 241.322 288.411 241.301 288.393 241.284C288.373 241.268 288.349 241.26 288.323 241.26C288.298 241.26 288.273 241.268 288.253 241.284C288.018 241.402 285.944 242.513 285.878 243.329C285.868 243.418 285.884 243.508 285.923 243.588C285.962 243.669 286.023 243.737 286.098 243.785C286.259 243.914 286.459 243.984 286.665 243.983ZM288.136 241.645C287.775 242.792 287.312 243.549 286.871 243.697C286.771 243.727 286.664 243.732 286.562 243.708C286.46 243.685 286.366 243.635 286.29 243.564C286.25 243.542 286.218 243.508 286.197 243.468C286.176 243.427 286.167 243.382 286.172 243.336C286.172 242.836 287.385 242.049 288.099 241.645H288.136Z" fill="#1890FF"/>
<path d="M286.341 241.969C287.048 241.965 287.744 241.802 288.378 241.491C288.397 241.478 288.411 241.462 288.422 241.443C288.432 241.424 288.437 241.402 288.437 241.38C288.438 241.357 288.432 241.335 288.421 241.315C288.409 241.296 288.392 241.28 288.371 241.27C288.305 241.233 286.665 240.329 285.782 240.645C285.671 240.677 285.57 240.736 285.485 240.815C285.401 240.894 285.336 240.992 285.297 241.101C285.242 241.204 285.224 241.323 285.245 241.438C285.266 241.553 285.326 241.657 285.415 241.733C285.689 241.913 286.015 241.996 286.341 241.969ZM288.025 241.38C287.327 241.682 285.966 241.866 285.584 241.542C285.518 241.483 285.452 241.395 285.54 241.196C285.566 241.123 285.609 241.057 285.665 241.004C285.721 240.95 285.789 240.91 285.863 240.888C286.459 240.674 287.562 241.152 288.025 241.41V241.38Z" fill="#1890FF"/>
<path d="M243.607 260.347C244.318 260.33 245.025 260.239 245.717 260.075C245.742 260.066 245.763 260.05 245.777 260.029C245.792 260.008 245.8 259.983 245.8 259.957C245.8 259.931 245.792 259.906 245.777 259.885C245.763 259.864 245.742 259.848 245.717 259.839C245.401 259.685 242.585 258.369 241.879 258.869C241.814 258.911 241.762 258.971 241.73 259.041C241.697 259.111 241.685 259.189 241.695 259.266C241.696 259.41 241.732 259.551 241.798 259.679C241.865 259.807 241.96 259.917 242.077 260.001C242.537 260.276 243.073 260.398 243.607 260.347ZM245.276 259.906C244.445 260.06 242.901 260.266 242.261 259.788C242.179 259.723 242.112 259.642 242.063 259.55C242.015 259.457 241.987 259.355 241.981 259.251C241.975 259.219 241.979 259.185 241.992 259.155C242.005 259.125 242.027 259.099 242.055 259.082C242.445 258.81 244.107 259.391 245.276 259.906Z" fill="#1890FF"/>
<path d="M245.688 260.082C245.717 260.09 245.747 260.09 245.776 260.082C245.795 260.066 245.808 260.045 245.814 260.021C245.821 259.998 245.821 259.973 245.813 259.949C245.813 259.832 245.151 257.059 243.607 257.236C243.224 257.287 243.114 257.471 243.099 257.626C243.004 258.361 244.776 259.751 245.622 260.104L245.688 260.082ZM243.761 257.456C244.739 257.456 245.306 259.074 245.497 259.722C244.578 259.236 243.291 258.082 243.372 257.633C243.372 257.596 243.372 257.493 243.658 257.464L243.761 257.456Z" fill="#1890FF"/>
<path d="M232.951 64.221L231.781 63.6179C231.781 63.6179 232.23 64.7137 232.951 64.221Z" fill="#263238"/>
</svg>
