<svg width="31" height="18" viewBox="0 0 31 18" fill="none" xmlns="http://www.w3.org/2000/svg">
    <path d="M30.0208 17.7046H0V2.86102e-05H30.0208V17.7046Z" fill="#00247D"/>
    <path d="M18.5108 8.85231L30.0208 15.6391V17.7046H26.5204L15.0104 10.9178L3.50042 17.7046H0V15.6391L11.51 8.85231L0 2.06556V2.86102e-05H3.50042L15.0104 6.78678L26.5204 2.86102e-05H30.0208V2.06556L18.5108 8.85231Z" fill="white"/>
    <path d="M18.0125 11.8031V17.7046H12.0083V11.8031H0V5.90155H12.0083V2.86102e-05H18.0125V5.90155H30.0208V11.8031H18.0125Z" fill="white"/>
    <path d="M16.8116 10.6228V17.7046H13.2091V10.6228H0V7.08185H13.2091V2.86102e-05H16.8116V7.08185H30.0208V10.6228H16.8116Z" fill="#CF142B"/>
</svg>
