<svg width="184" height="183" viewBox="0 0 184 183" fill="none" xmlns="http://www.w3.org/2000/svg">
    <path d="M99.7593 138.641H61.6221V168.031H99.7593V138.641Z" fill="#EBEBEB"/>
    <path d="M90.2067 167.811C90.1701 167.811 90.0969 161.26 90.0969 153.171C90.0969 145.083 90.1335 138.531 90.2067 138.531C90.2799 138.531 90.3165 145.083 90.3165 153.171C90.2799 161.26 90.2433 167.811 90.2067 167.811Z"
          fill="#E0E0E0"/>
    <path d="M96.502 161.333H93.574V164.627H96.502V161.333Z" fill="#FAFAFA"/>
    <path d="M77.5798 138.714H73.261V144.973H77.5798V138.714Z" fill="#E0E0E0"/>
    <path d="M77.5798 161.663H73.261V167.921H77.5798V161.663Z" fill="#E0E0E0"/>
    <path d="M168.897 131.248H120.841V168.323H168.897V131.248Z" fill="#EBEBEB"/>
    <path d="M156.855 168.067C156.819 168.067 156.746 159.796 156.746 149.621C156.746 139.409 156.782 131.174 156.855 131.174C156.929 131.174 156.965 139.446 156.965 149.621C156.965 159.796 156.929 168.067 156.855 168.067Z"
          fill="#E0E0E0"/>
    <path d="M164.834 159.869H161.137V164.041H164.834V159.869Z" fill="#FAFAFA"/>
    <path d="M140.971 131.357H135.518V139.263H140.971V131.357Z" fill="#E0E0E0"/>
    <path d="M140.971 160.308H135.518V168.214H140.971V160.308Z" fill="#E0E0E0"/>
    <path d="M30.329 132.345C32.2688 131.357 34.5746 131.211 36.734 131.577C37.9052 131.76 39.113 132.126 39.8816 133.004C40.6868 133.883 40.8332 135.42 39.9182 136.152C39.3692 136.591 38.6372 136.664 37.9418 136.664C36.2582 136.628 34.3916 136.335 33.0374 137.36C32.2688 137.945 31.7564 138.897 30.8414 139.19C29.9264 139.482 28.9382 138.933 28.4624 138.128C27.9866 137.323 27.9866 136.298 28.2062 135.383C28.133 135.347 28.3526 133.37 30.329 132.345Z"
          fill="#EBEBEB"/>
    <path d="M25.8638 123.745C27.0716 125.428 29.3774 124.879 30.4388 123.854C31.5002 122.83 31.976 121.329 32.3786 119.865C33.3302 116.608 34.2818 113.167 33.5864 109.837C33.3668 108.848 33.0008 107.86 32.3054 107.092C31.61 106.36 30.512 105.92 29.5604 106.177C28.3892 106.469 27.6572 107.641 27.1448 108.702C25.6076 111.886 24.8024 115.436 24.7658 118.987C24.7292 120.634 24.9122 122.354 25.8638 123.745Z"
          fill="#EBEBEB"/>
    <path d="M22.6064 126.16C23.8874 124.623 24.1436 122.39 23.558 120.487C22.9724 118.584 21.6914 116.937 20.1908 115.583C18.434 114.009 16.3844 112.801 14.1518 112.032C13.2734 111.74 12.3584 111.483 11.4434 111.557C10.5284 111.63 9.61338 112.106 9.17418 112.947C8.55198 114.155 9.13758 115.619 9.79638 116.827C10.9676 118.95 12.2852 120.963 13.7492 122.866C14.9204 124.403 16.3112 125.904 18.1046 126.599C19.898 127.295 21.8012 127.221 22.7528 125.94"
          fill="#EBEBEB"/>
    <path d="M25.7906 149.365C25.8272 149.365 25.8638 149.108 25.9004 148.596C25.937 148.047 26.0102 147.315 26.12 146.473C26.2298 145.595 26.3396 144.533 26.5958 143.399C26.852 142.264 27.218 141.02 27.7304 139.739C28.2428 138.494 28.865 137.36 29.597 136.445C30.329 135.53 31.1708 134.871 31.9394 134.505C32.7446 134.102 33.44 133.956 33.9158 133.883C34.3916 133.846 34.6844 133.81 34.6844 133.773C34.6844 133.736 34.3916 133.736 33.9158 133.773C33.4034 133.81 32.6714 133.919 31.8662 134.322C31.0244 134.688 30.146 135.347 29.3774 136.298C28.6088 137.213 27.95 138.385 27.4376 139.666C26.9252 140.947 26.5592 142.191 26.3396 143.362C26.12 144.533 26.0102 145.595 25.937 146.51C25.8638 147.388 25.8272 148.12 25.8272 148.633C25.754 149.072 25.754 149.365 25.7906 149.365Z"
          fill="#E0E0E0"/>
    <path d="M25.9369 147.754C25.9369 147.754 25.9369 147.645 25.9735 147.388C25.9735 147.132 25.9735 146.766 25.9735 146.364C25.9735 145.485 25.9735 144.204 26.0101 142.594C26.0833 139.41 26.3761 136.006 26.8885 131.175C27.4009 126.636 28.0597 121.366 28.7551 117.925C28.9015 117.157 29.0479 116.461 29.1943 115.839C29.3407 115.217 29.4505 114.705 29.5603 114.265C29.6701 113.863 29.7433 113.533 29.8165 113.277C29.8531 113.058 29.8897 112.911 29.8897 112.911C29.8897 112.911 29.8531 113.021 29.7799 113.241C29.7067 113.497 29.5969 113.826 29.4871 114.229C29.3407 114.668 29.2309 115.18 29.0479 115.803C28.9015 116.425 28.7185 117.12 28.5355 117.889C27.8401 121 27.1081 125.355 26.5591 130.186C26.0467 135.018 25.7905 139.41 25.7539 142.594C25.7173 144.204 25.7539 145.485 25.8271 146.364C25.8637 146.766 25.8637 147.132 25.9003 147.388C25.9003 147.608 25.9003 147.754 25.9369 147.754Z"
          fill="#E0E0E0"/>
    <path d="M25.9371 139.263C25.9737 139.263 25.9737 138.897 25.9371 138.202C25.9005 137.506 25.7907 136.518 25.6077 135.31C25.3881 134.103 25.1319 132.639 24.6561 131.101C24.4731 130.369 23.9973 128.686 22.8993 126.087C21.4353 122.61 19.4589 119.755 17.7021 117.999C17.2995 117.523 16.8603 117.193 16.4943 116.864C16.3113 116.718 16.1283 116.535 15.9819 116.425C15.7989 116.315 15.6525 116.205 15.5061 116.095C14.9205 115.693 14.6277 115.51 14.5911 115.51C14.5545 115.583 15.8721 116.352 17.5557 118.145C19.2393 119.938 21.1425 122.757 22.6065 126.197C23.4117 128.064 23.9973 129.747 24.3999 131.138C24.8757 132.675 25.1685 134.103 25.3881 135.31C25.6077 136.518 25.7541 137.506 25.8273 138.165C25.8639 138.897 25.9371 139.263 25.9371 139.263Z"
          fill="#E0E0E0"/>
    <path d="M17.1895 152.951L18.0313 164.59H33.0007L33.8425 152.951H17.1895Z" fill="#EBEBEB"/>
    <path d="M35.636 148.34H15.7256V152.915H35.636V148.34Z" fill="#EBEBEB"/>
    <path d="M15.7256 164.151V165.395H16.6772H35.3066V164.151H15.7256Z" fill="#E0E0E0"/>
    <path d="M17.5922 167.518L16.6772 165.286H34.5746L33.5132 167.518H17.5922Z" fill="#E0E0E0"/>
    <path d="M33.5497 156.758C33.5497 156.758 33.5131 156.794 33.4765 156.868C33.4033 156.941 33.3301 157.051 33.2569 157.16C33.0373 157.417 32.7445 157.819 32.3785 158.258L32.3419 158.295L32.3053 158.258C31.7563 157.49 31.0243 156.502 30.1459 155.294H30.2557C29.6335 156.209 28.9015 157.197 28.1329 158.295L28.0597 158.405L27.9865 158.332C27.2179 157.417 26.3761 156.392 25.4977 155.367H25.6441C25.6075 155.404 25.5709 155.477 25.4977 155.55C24.7291 156.538 23.9605 157.453 23.2651 158.368L23.1919 158.478L23.1187 158.368C22.3501 157.307 21.6547 156.282 20.9959 155.367H21.1057C20.0809 156.538 19.2025 157.563 18.5071 158.332L18.4705 158.368L18.4339 158.295C18.1045 157.709 17.8117 157.27 17.6287 156.941C17.5555 156.794 17.4823 156.685 17.4091 156.575C17.3725 156.502 17.3359 156.465 17.3359 156.428C17.3359 156.428 17.3725 156.465 17.4091 156.538C17.4823 156.648 17.5555 156.758 17.6287 156.904C17.8483 157.234 18.1411 157.673 18.4705 158.258H18.3973C19.0561 157.49 19.9345 156.465 20.9593 155.257L21.0325 155.184L21.1057 155.257C21.7645 156.172 22.4599 157.16 23.2285 158.222H23.0821C23.7775 157.343 24.5461 156.392 25.3147 155.404C25.3513 155.33 25.4245 155.294 25.4611 155.221L25.5343 155.147L25.6075 155.221C26.4859 156.282 27.3277 157.27 28.0963 158.185H27.9499C28.7185 157.124 29.4505 156.099 30.0727 155.221L30.1459 155.147L30.2191 155.221C31.0609 156.428 31.7929 157.453 32.3053 158.222H32.2321C32.5981 157.746 32.9275 157.417 33.1471 157.124C33.2569 157.014 33.3301 156.904 33.4033 156.831C33.5131 156.758 33.5497 156.758 33.5497 156.758Z"
          fill="#F5F5F5"/>
    <path d="M34.0621 152.878C34.0621 152.915 30.3289 152.988 25.6807 152.988C21.0691 152.988 17.2993 152.952 17.2993 152.878C17.2993 152.842 21.0325 152.769 25.6807 152.769C30.2923 152.769 34.0621 152.805 34.0621 152.878Z"
          fill="#F5F5F5"/>
    <path d="M139.029 20.7809L135.954 20.7974L136.036 36.0596L139.11 36.0431L139.029 20.7809Z" fill="#E0E0E0"/>
    <path d="M117.306 20.8413L109.364 20.8838L109.409 29.3018L117.351 29.2593L117.306 20.8413Z" fill="#EBEBEB"/>
    <path d="M125.212 20.8046L117.27 20.8472L117.315 29.2652L125.257 29.2226L125.212 20.8046Z" fill="#F5F5F5"/>
    <path d="M109.385 23.2045C114.655 23.2411 119.962 23.2045 125.233 23.1313C125.342 23.1313 125.342 22.9483 125.233 22.9483C119.962 22.9117 114.655 22.9483 109.385 23.0581C109.275 23.0581 109.275 23.2045 109.385 23.2045Z"
          fill="#E0E0E0"/>
    <path d="M118.847 29.1322L104.427 29.2095L104.464 36.0903L118.884 36.013L118.847 29.1322Z" fill="#EBEBEB"/>
    <path d="M133.195 29.059L118.774 29.1362L118.811 36.017L133.232 35.9398L133.195 29.059Z" fill="#F5F5F5"/>
    <path d="M104.407 31.1102C113.996 31.22 123.622 31.1102 133.211 30.9638C133.321 30.9638 133.321 30.7808 133.211 30.7808C123.622 30.7442 113.996 30.7442 104.407 30.9638C104.334 30.9638 104.334 31.1102 104.407 31.1102Z"
          fill="#E0E0E0"/>
    <path d="M154.952 36.0513H99.0271V38.5035H154.952V36.0513Z" fill="#E0E0E0"/>
    <path d="M110.446 37.2593H108.177V45.6407H110.446V37.2593Z" fill="#E0E0E0"/>
    <path d="M144.338 37.2593H142.069V45.6407H144.338V37.2593Z" fill="#E0E0E0"/>
    <path d="M142.014 15.108L138.94 15.1245L139.053 36.1329L142.127 36.1164L142.014 15.108Z" fill="#EBEBEB"/>
    <path d="M146.783 19.0194L142.025 19.0449L142.117 36.0639L146.875 36.0384L146.783 19.0194Z" fill="#F5F5F5"/>
    <path d="M146.754 22.2895C146.754 22.3261 145.692 22.3627 144.375 22.3627C143.057 22.3627 141.996 22.3261 141.996 22.2895C141.996 22.2529 143.057 22.2163 144.375 22.2163C145.692 22.2163 146.754 22.2529 146.754 22.2895Z"
          fill="#E0E0E0"/>
    <path d="M146.754 21.5571C146.754 21.5937 145.692 21.6303 144.375 21.6303C143.057 21.6303 141.996 21.5937 141.996 21.5571C141.996 21.5205 143.057 21.4839 144.375 21.4839C145.692 21.4839 146.754 21.5205 146.754 21.5571Z"
          fill="#E0E0E0"/>
    <path d="M146.754 33.4521C146.754 33.4887 145.692 33.5253 144.375 33.5253C143.057 33.5253 141.996 33.4887 141.996 33.4521C141.996 33.4155 143.057 33.3789 144.375 33.3789C145.692 33.3789 146.754 33.4155 146.754 33.4521Z"
          fill="#E0E0E0"/>
    <path d="M146.754 32.7568C146.754 32.7934 145.692 32.83 144.375 32.83C143.057 32.83 141.996 32.7934 141.996 32.7568C141.996 32.7202 143.057 32.6836 144.375 32.6836C145.692 32.6836 146.754 32.7202 146.754 32.7568Z"
          fill="#E0E0E0"/>
    <path d="M144.448 31.1831C144.411 31.1831 144.375 29.4629 144.375 27.3401C144.375 25.2173 144.411 23.4971 144.448 23.4971C144.484 23.4971 144.521 25.2173 144.521 27.3401C144.521 29.4629 144.484 31.1831 144.448 31.1831Z"
          fill="#D46B08"/>
    <path d="M151.987 23.2046H146.79V36.0512H151.987V23.2046Z" fill="#EBEBEB"/>
    <path d="M140.422 19.581C140.907 19.581 141.3 19.1877 141.3 18.7026C141.3 18.2175 140.907 17.8242 140.422 17.8242C139.937 17.8242 139.543 18.2175 139.543 18.7026C139.543 19.1877 139.937 19.581 140.422 19.581Z"
          fill="#E0E0E0"/>
    <path d="M140.678 21.1182H140.129V33.5988H140.678V21.1182Z" fill="#E0E0E0"/>
    <path d="M170.58 168.141C170.58 168.177 135.407 168.25 92.0365 168.25C48.6289 168.25 13.4563 168.214 13.4563 168.141C13.4563 168.104 48.6289 168.031 92.0365 168.031C135.371 168.031 170.58 168.067 170.58 168.141Z"
          fill="#263238"/>
    <path d="M55.1071 33.8184C56.8273 35.9046 57.7789 38.613 57.7423 41.3214C57.7423 42.8586 57.4495 44.5788 58.3279 45.8232C59.0233 46.7748 60.2677 47.2506 60.8167 48.2754C61.4755 49.5198 60.9265 51.0936 61.3291 52.4478C61.9147 54.351 64.1473 55.1562 65.4649 56.6568C66.5995 57.9378 67.0387 59.841 66.5629 61.5246C66.0871 63.2082 64.7695 64.599 63.1225 65.148C62.2441 65.4408 61.2559 65.514 60.4141 65.1114C59.4991 64.6722 58.9501 63.7572 58.5109 62.8422C57.6325 61.0854 49.8733 51.5328 49.4341 49.6296"
          fill="#263238"/>
    <path d="M49.4707 31.5492C46.2865 31.0368 43.2487 33.1596 41.9311 36.051C40.6135 38.979 40.5769 42.273 40.4671 45.4938C40.3573 48.7146 40.1377 52.0452 38.4907 54.8268C37.4659 56.5836 35.8555 58.1208 35.5993 60.1338C35.3797 61.9272 36.2947 63.7572 36.0019 65.5506C35.7457 67.1244 34.5379 68.4786 34.5745 70.0524C34.6477 71.9556 36.5875 73.383 38.4907 73.4562C40.3939 73.4928 42.1873 72.5046 43.6879 71.3334C46.1035 69.3936 48.0799 66.9048 49.3975 64.0866"
          fill="#263238"/>
    <path d="M44.2736 39.125C43.871 35.7944 46.2866 32.72 49.6538 32.3906C52.838 32.0978 55.6928 34.4768 56.1686 37.661C56.5712 40.4426 56.9372 43.2608 56.9372 44.2856C56.9006 47.36 55.1072 48.5678 54.3752 48.9338C54.1922 49.007 53.753 49.1168 53.57 49.1534C53.57 49.1534 53.5334 49.1534 53.57 49.19L54.2654 52.7402C54.5582 55.046 53.2772 57.1322 50.9714 57.4616C48.6656 57.791 46.8356 56.0342 46.4696 53.6918L44.2736 39.125Z"
          fill="#FFBE9D"/>
    <path d="M55.5463 38.9785C55.5097 39.0517 55.1071 38.8321 54.5581 38.9053C54.0457 38.9785 53.6797 39.3079 53.6431 39.2347C53.6065 39.1981 53.6431 39.0883 53.7895 38.9419C53.9359 38.7955 54.1921 38.6491 54.5215 38.5759C54.8509 38.5393 55.1437 38.6125 55.3267 38.7223C55.5097 38.8687 55.5829 38.9419 55.5463 38.9785Z"
          fill="#263238"/>
    <path d="M50.8981 40.1133C50.8615 40.1865 50.4223 39.9669 49.9099 40.0401C49.3975 40.1133 49.0315 40.4427 48.9949 40.3695C48.9583 40.3329 48.9949 40.2231 49.1413 40.0767C49.2877 39.9303 49.5439 39.7839 49.8733 39.7107C50.2027 39.6741 50.4955 39.7473 50.6785 39.8571C50.8615 39.9669 50.9347 40.0767 50.8981 40.1133Z"
          fill="#263238"/>
    <path d="M52.8013 42.8949C52.8013 42.8583 53.0941 42.7485 53.6431 42.6021C53.7895 42.5655 53.8993 42.5289 53.8993 42.4191C53.8993 42.3093 53.8261 42.1995 53.7529 42.0531C53.5699 41.7603 53.3869 41.4309 53.2039 41.1015C52.4353 39.7473 51.8863 38.6127 51.9229 38.5761C51.9961 38.5395 52.6183 39.6375 53.3869 40.9917C53.5699 41.3211 53.7529 41.6505 53.8993 41.9433C53.9725 42.0897 54.0823 42.2361 54.0457 42.4557C54.0091 42.5655 53.9359 42.6387 53.8627 42.6753C53.7895 42.7119 53.7163 42.7119 53.6431 42.7485C53.1307 42.8949 52.8013 42.9315 52.8013 42.8949Z"
          fill="#263238"/>
    <path d="M53.5334 49.1168C53.5334 49.1168 51.557 49.5926 48.812 48.4214C48.812 48.4214 49.9832 50.9834 53.7164 50.0684L53.5334 49.1168Z"
          fill="#EB996E"/>
    <path d="M50.642 38.7591C50.6054 38.9055 50.093 38.9055 49.4708 39.0885C48.8486 39.2349 48.4094 39.4911 48.2996 39.3813C48.263 39.3081 48.3362 39.1617 48.4826 39.0153C48.6656 38.8323 48.9584 38.6859 49.3244 38.5761C49.6904 38.4663 50.0198 38.5029 50.276 38.5395C50.5322 38.5761 50.642 38.6859 50.642 38.7591Z"
          fill="#263238"/>
    <path d="M55.1072 37.8442C55.034 37.9906 54.668 37.9174 54.2288 37.954C53.7896 37.9906 53.4602 38.137 53.3504 38.0272C53.3138 37.9906 53.3504 37.8442 53.4968 37.6978C53.6432 37.5514 53.8994 37.4416 54.1922 37.405C54.485 37.3684 54.7778 37.4416 54.9242 37.5514C55.0706 37.6612 55.1438 37.771 55.1072 37.8442Z"
          fill="#263238"/>
    <path d="M49.7635 40.7722C49.8001 40.9918 50.0197 41.1382 50.2393 41.1382C50.4589 41.1016 50.6419 40.882 50.6053 40.6624C50.5687 40.4428 50.3491 40.2964 50.1295 40.2964C49.9099 40.3696 49.7269 40.5526 49.7635 40.7722Z"
          fill="#263238"/>
    <path d="M54.3752 39.7839C54.4118 40.0035 54.6314 40.1499 54.851 40.1499C55.0706 40.1133 55.2536 39.8937 55.217 39.6741C55.1804 39.4545 54.9608 39.3081 54.7412 39.3081C54.5216 39.3447 54.3752 39.5643 54.3752 39.7839Z"
          fill="#263238"/>
    <path d="M53.6431 43.9198C53.3137 43.81 53.0209 43.993 52.8745 44.2492C52.7281 44.5054 52.7647 44.8348 52.9843 45.0178C53.1673 45.2008 53.5333 45.2374 53.7529 45.0544C53.8993 44.9446 53.9725 44.7616 54.0091 44.542C54.0091 44.359 54.0091 44.176 53.8993 44.0296C53.7895 43.8832 53.6065 43.81 53.4235 43.8832"
          fill="#EB996E"/>
    <path d="M55.7659 35.1358C55.5097 33.9646 54.7411 32.9764 53.7529 32.3176C52.9111 31.732 51.9595 31.366 50.9347 31.3294C49.9465 31.2928 48.8851 31.6222 48.1897 32.3176C47.6407 32.83 47.3845 33.562 47.3479 34.294L47.4211 33.7816C47.2747 34.1842 47.2747 34.66 47.4211 35.0626C47.4943 35.2822 47.6041 35.5018 47.7139 35.7214C47.9701 36.3436 48.4825 36.8926 49.0681 37.222C49.3609 37.3684 49.6537 37.4782 49.9831 37.4416C50.3125 37.4416 50.6053 37.2952 50.8249 37.039C51.1177 36.673 51.0811 36.1606 51.0079 35.7214C51.2641 36.1606 51.5569 36.5998 51.9961 36.856C52.4353 37.1122 53.0575 37.1122 53.3869 36.7096C53.6797 36.307 53.5699 35.758 53.3869 35.3188C53.6797 35.758 54.0823 36.0874 54.5215 36.307C54.7777 36.4168 55.0705 36.49 55.3267 36.3802C55.5463 36.2704 55.6927 36.0508 55.7659 35.8312C55.8391 35.6482 55.8025 35.392 55.7659 35.1358Z"
          fill="#263238"/>
    <path d="M53.1307 36.124C53.0941 36.124 53.0941 35.6848 52.9477 35.026C52.8013 34.3672 52.4719 33.4156 51.6667 32.7202C51.2641 32.3908 50.8249 32.1346 50.3857 32.0248C49.9465 31.915 49.5439 31.915 49.2145 31.9882C48.5557 32.1346 48.2263 32.4274 48.1897 32.4274C48.1897 32.4274 48.2629 32.3176 48.4093 32.2078C48.5557 32.098 48.8119 31.9516 49.1779 31.8784C49.5073 31.8052 49.9465 31.7686 50.4223 31.8784C50.8981 31.9882 51.3739 32.2444 51.7765 32.5738C52.6183 33.3058 52.9477 34.294 53.0575 34.9894C53.1307 35.3554 53.1307 35.6116 53.1307 35.8312C53.1307 36.0142 53.1307 36.124 53.1307 36.124Z"
          fill="#455A64"/>
    <path d="M86.8394 78.7632L72.7484 73.2C72.7484 73.2 65.5382 63.7572 65.6846 63.5742L60.6338 69.1008L67.9904 79.056L85.046 83.0454L93.1346 83.1186C92.4758 80.0076 86.8394 78.7632 86.8394 78.7632Z"
          fill="#FFBE9D"/>
    <path d="M56.1685 51.8253L54.2653 51.0933L45.9937 52.1547V53.6187L45.7741 53.6553C45.7741 53.6553 43.2121 54.1311 40.6867 55.6317C37.6489 57.4617 36.0751 60.9387 36.6607 64.4523C36.9901 66.5385 37.6489 69.1005 38.8933 70.5645C41.3089 73.3827 43.5049 69.9057 43.5049 69.9057C43.5049 69.9057 45.0055 73.3461 44.9323 74.9931C44.8591 76.3473 44.2735 79.2021 44.0539 80.0805C44.0173 80.2269 44.1271 80.3733 44.2735 80.4099L61.7317 83.6307L61.8049 79.3485L61.2559 61.7805L60.4873 54.9729C60.4507 54.8997 60.4873 51.6423 56.1685 51.8253Z"
          fill="#D46B08"/>
    <path d="M60.1946 53.7651L66.8558 63.3909L61.4756 69.9057L60.1946 53.7651Z" fill="#D46B08"/>
    <path d="M61.6221 74.0047C61.6221 74.0047 61.5855 73.7851 61.5855 73.3825C61.5855 72.9433 61.5855 72.3943 61.5489 71.6989C61.5123 70.2715 61.4391 68.2951 61.1463 66.1357C60.8535 63.9763 60.4509 62.0365 60.1215 60.6457C59.9751 59.9869 59.8287 59.4013 59.7189 58.9987C59.6457 58.5961 59.5725 58.3765 59.6091 58.3765C59.6091 58.3765 59.6823 58.5961 59.7921 58.9621C59.9019 59.3281 60.0483 59.9137 60.2313 60.6091C60.5973 61.9999 61.0365 63.9397 61.2927 66.0991C61.5855 68.2585 61.6221 70.2349 61.6221 71.6623C61.6221 72.3943 61.6221 72.9433 61.5855 73.3459C61.6587 73.7851 61.6221 74.0047 61.6221 74.0047Z"
          fill="#D46B08"/>
    <path d="M45.2252 59.3647C45.2252 59.4013 44.7128 59.4013 43.9076 59.4379C43.1024 59.4745 41.9678 59.5843 40.76 59.8405C39.5522 60.0967 38.4908 60.4261 37.7222 60.7189C36.9536 61.0117 36.5144 61.1947 36.4778 61.1947C36.4778 61.1947 36.5876 61.1215 36.7706 61.0117C36.9902 60.9019 37.283 60.7555 37.649 60.6091C38.4176 60.2797 39.479 59.9137 40.6868 59.6575C41.8946 59.4013 43.0292 59.3281 43.871 59.2915C44.2736 59.2915 44.603 59.2915 44.8226 59.3281C45.1154 59.3647 45.2252 59.3647 45.2252 59.3647Z"
          fill="#D46B08"/>
    <path d="M60.6339 63.7935C60.6339 63.8301 60.3045 63.9033 59.7921 63.9765C59.2797 64.0497 58.5477 64.1229 57.7425 64.1595C56.9373 64.1961 56.2053 64.1595 55.6929 64.1229C55.1805 64.0863 54.8511 64.0131 54.8511 64.0131C54.8511 63.9765 55.1805 63.9765 55.6929 64.0131C56.2053 64.0131 56.9373 64.0131 57.7425 64.0131C58.5477 63.9765 59.2431 63.9399 59.7555 63.9033C60.3411 63.7935 60.6339 63.7569 60.6339 63.7935Z"
          fill="#FAFAFA"/>
    <path d="M63.7082 59.4379C63.7448 59.4745 63.1592 60.0601 62.2808 60.6091C61.4024 61.1581 60.6338 61.4143 60.5972 61.3411C60.5606 61.3045 61.3292 60.9751 62.171 60.4261C63.0494 59.9137 63.6716 59.4013 63.7082 59.4379Z"
          fill="#FAFAFA"/>
    <path d="M60.9998 54.9727C61.0364 55.0093 60.2312 55.7047 59.06 56.2171C57.8888 56.7295 56.8274 56.8027 56.8274 56.7661C56.8274 56.6929 57.8522 56.5465 58.9868 56.0707C60.158 55.5583 60.9998 54.9361 60.9998 54.9727Z"
          fill="#D46B08"/>
    <path d="M61.3657 71.2231C61.3657 71.2231 61.2559 71.2963 61.0363 71.4061C60.8167 71.5159 60.4873 71.6623 60.0481 71.8087C59.2063 72.1015 57.9985 72.4675 56.6443 72.6871C55.2901 72.9067 54.0457 72.9067 53.1307 72.8701C52.6915 72.8335 52.3255 72.8335 52.0693 72.7969C51.8131 72.7603 51.6667 72.7237 51.6667 72.7237C51.6667 72.6871 52.2157 72.7237 53.1307 72.7603C54.0091 72.7603 55.2535 72.7237 56.6077 72.5041C57.9619 72.2845 59.1331 71.9917 59.9749 71.6989C60.8533 71.4061 61.3657 71.2231 61.3657 71.2231Z"
          fill="#FAFAFA"/>
    <path d="M61.5121 76.2007C61.5121 76.2007 61.4755 76.2373 61.3657 76.2739C61.2559 76.3471 61.0729 76.4203 60.8899 76.4935C60.4873 76.6765 59.9017 76.9327 59.1331 77.2255C58.4011 77.5183 57.4861 77.8111 56.4613 78.0673C55.4365 78.3235 54.3019 78.5797 53.0941 78.7627C51.8863 78.9457 50.7151 79.0555 49.6903 79.0921C48.6289 79.1287 47.6773 79.1287 46.8721 79.0921C46.0669 79.0555 45.4447 78.9823 45.0055 78.9457C44.7859 78.9091 44.6395 78.9091 44.4931 78.8725C44.3833 78.8725 44.3101 78.8359 44.3101 78.8359C44.3101 78.8359 44.3833 78.8359 44.4931 78.8359C44.6395 78.8359 44.7859 78.8725 45.0055 78.8725C45.4447 78.9091 46.1035 78.9457 46.8721 78.9823C47.6773 79.0189 48.6289 78.9823 49.6537 78.9457C50.7151 78.8725 51.8497 78.7627 53.0575 78.5797C54.2653 78.3967 55.3633 78.1405 56.3881 77.8843C57.4129 77.6281 58.2913 77.3353 59.0599 77.0791C59.7919 76.8229 60.4141 76.6033 60.8167 76.4203C60.9997 76.3471 61.1461 76.2739 61.2925 76.2373C61.4389 76.2007 61.5121 76.2007 61.5121 76.2007Z"
          fill="#FAFAFA"/>
    <path d="M29.414 154.013L27.4376 162.943L23.8508 169.568C23.5946 170.043 23.7776 170.629 24.29 170.885C24.5828 170.995 24.8756 170.995 25.1318 170.849C26.8154 169.897 32.9642 166.274 33.074 165.615C33.1838 164.846 35.7824 156.318 35.7824 156.318L29.414 154.013Z"
          fill="#FA8C16"/>
    <g opacity="0.6">
        <path opacity="0.6"
              d="M24.2534 170.885L33.1838 165.029L33.074 165.395C33.0008 165.725 32.8178 166.018 32.525 166.201C31.793 166.713 29.7434 168.14 25.0952 170.849C24.8756 170.995 24.5462 170.995 24.2534 170.885Z"
              fill="#D46B08"/>
    </g>
    <g opacity="0.6">
        <g opacity="0.6">
            <path opacity="0.6"
                  d="M32.0858 161.699C31.8296 161.808 31.6832 162.101 31.7564 162.394C31.8296 162.65 32.159 162.833 32.4152 162.723C32.6714 162.614 32.891 162.248 32.7446 161.991C32.6348 161.735 32.2322 161.552 32.0126 161.735"
                  fill="white"/>
        </g>
    </g>
    <path d="M27.2547 167.482C27.1815 167.482 27.1083 166.969 26.6325 166.603C26.1933 166.201 25.6443 166.201 25.6443 166.164C25.6443 166.127 25.7541 166.091 25.9737 166.127C26.1933 166.164 26.4861 166.237 26.7423 166.457C26.9985 166.676 27.1449 166.933 27.2181 167.152C27.2913 167.335 27.2547 167.482 27.2547 167.482Z"
          fill="#263238"/>
    <path d="M26.3031 168.506C26.2665 168.543 26.0469 168.177 25.6077 167.921C25.1685 167.664 24.7659 167.664 24.7659 167.591C24.7659 167.555 25.2417 167.445 25.7175 167.738C26.1933 168.067 26.3763 168.506 26.3031 168.506Z"
          fill="#263238"/>
    <path d="M28.7919 166.237C28.7553 166.274 28.4259 165.725 27.7671 165.286C27.1449 164.846 26.5227 164.7 26.5227 164.663C26.5227 164.627 27.2181 164.663 27.8769 165.139C28.5723 165.578 28.8285 166.237 28.7919 166.237Z"
          fill="#263238"/>
    <path d="M29.6337 163.565C29.5971 163.602 29.1579 163.272 28.5357 163.089C27.9135 162.906 27.3645 162.943 27.3645 162.87C27.3645 162.833 27.9135 162.687 28.6089 162.87C29.2311 163.126 29.6703 163.529 29.6337 163.565Z"
          fill="#FFA940"/>
    <path d="M30.2557 160.967C30.2191 161.003 29.7799 160.601 29.1211 160.454C28.4257 160.308 27.8767 160.528 27.8767 160.454C27.8767 160.418 27.9865 160.345 28.2427 160.271C28.4623 160.198 28.8283 160.162 29.1943 160.235C29.5603 160.308 29.8531 160.491 30.0361 160.637C30.2191 160.82 30.2923 160.967 30.2557 160.967Z"
          fill="#263238"/>
    <path d="M29.2676 159.978C29.2676 159.978 29.2676 159.869 29.3408 159.649C29.414 159.429 29.5604 159.137 29.8166 158.844C29.963 158.697 30.1094 158.514 30.3656 158.441C30.512 158.405 30.695 158.478 30.7682 158.624C30.8414 158.771 30.8414 158.917 30.8048 159.063C30.6584 159.612 30.0362 160.052 29.3774 159.978C28.7186 159.905 28.2428 159.393 28.0964 158.844C28.0598 158.697 28.0598 158.551 28.1696 158.405C28.2794 158.258 28.4624 158.258 28.6088 158.295C28.865 158.405 28.9748 158.588 29.1212 158.734C29.3774 159.063 29.4872 159.356 29.5604 159.576C29.6336 159.795 29.6336 159.905 29.6336 159.905C29.597 159.905 29.5238 159.429 29.0114 158.807C28.9016 158.661 28.7552 158.478 28.5722 158.441C28.499 158.405 28.3892 158.441 28.3526 158.478C28.316 158.551 28.2794 158.661 28.316 158.771C28.4258 159.21 28.865 159.686 29.4506 159.759C29.9996 159.832 30.5486 159.466 30.6584 158.99C30.695 158.88 30.695 158.771 30.6584 158.697C30.6218 158.624 30.5486 158.588 30.4388 158.588C30.2558 158.624 30.0728 158.771 29.963 158.917C29.3774 159.466 29.3042 159.978 29.2676 159.978Z"
          fill="#263238"/>
    <g opacity="0.3">
        <path opacity="0.3"
              d="M29.1577 154.964L28.7551 157.014L35.2333 158.112L35.7457 156.318L29.4139 154.013L29.1577 154.964Z"
              fill="#D46B08"/>
    </g>
    <path d="M58.328 157.306L57.779 164.443C57.779 164.443 64.8794 167.371 64.8794 168.726L50.9714 168.177L51.3374 157.014L58.328 157.306Z"
          fill="#D46B08"/>
    <g opacity="0.6">
        <g opacity="0.6">
            <path opacity="0.6"
                  d="M53.5333 163.675C53.2771 163.748 53.0575 164.041 53.1307 164.297C53.1673 164.553 53.4967 164.773 53.7529 164.7C54.0091 164.627 54.2653 164.297 54.1921 164.041C54.1189 163.785 53.7529 163.565 53.4967 163.675"
                  fill="white"/>
        </g>
    </g>
    <g opacity="0.6">
        <path opacity="0.6"
              d="M51.0081 168.177L51.0813 167.042L64.3671 167.994C64.3671 167.994 64.9893 168.286 64.8795 168.726L51.0081 168.177Z"
              fill="white"/>
    </g>
    <path d="M58.0353 164.407C58.0353 164.48 57.7059 164.48 57.3399 164.7C57.0105 164.883 56.7909 165.176 56.7543 165.139C56.6811 165.139 56.7909 164.737 57.2301 164.48C57.6327 164.224 58.0353 164.334 58.0353 164.407Z"
          fill="#263238"/>
    <path d="M59.4626 165.066C59.4626 165.139 59.1698 165.249 58.9502 165.505C58.694 165.761 58.6208 166.09 58.5476 166.09C58.4744 166.09 58.4378 165.688 58.7672 165.358C59.06 164.992 59.4626 164.992 59.4626 165.066Z"
          fill="#263238"/>
    <path d="M60.2313 166.822C60.1581 166.822 60.0849 166.493 60.2679 166.127C60.4509 165.761 60.7803 165.615 60.8169 165.688C60.8535 165.761 60.6339 165.944 60.4875 166.237C60.3045 166.53 60.3045 166.822 60.2313 166.822Z"
          fill="#263238"/>
    <path d="M57.962 162.76C57.9254 162.833 57.6326 162.723 57.23 162.723C56.8274 162.723 56.5345 162.833 56.4979 162.796C56.4613 162.76 56.7541 162.504 57.23 162.504C57.7058 162.467 57.9986 162.687 57.962 162.76Z"
          fill="#263238"/>
    <g opacity="0.3">
        <path opacity="0.3" d="M58.2182 158.734L58.145 160.015L51.3008 159.686L51.374 158.185L58.2182 158.734Z"
              fill="#D46B08"/>
    </g>
    <path d="M58.0352 161.296C58.0352 161.332 57.779 161.369 57.3398 161.259C57.1202 161.223 56.864 161.149 56.6078 161.003C56.4614 160.93 56.3516 160.856 56.2052 160.783C56.132 160.747 56.0588 160.71 55.9856 160.6C55.9124 160.527 55.8758 160.344 55.9856 160.234C56.0588 160.124 56.2052 160.088 56.2784 160.088C56.3882 160.088 56.4614 160.124 56.5346 160.124C56.681 160.161 56.8274 160.234 56.9738 160.307C57.23 160.454 57.4496 160.6 57.596 160.747C57.8888 161.04 57.9986 161.332 57.9986 161.332C57.962 161.369 57.8156 161.149 57.4862 160.893C57.3398 160.747 57.1202 160.637 56.864 160.527C56.7542 160.49 56.6078 160.417 56.4614 160.381C56.315 160.344 56.2052 160.344 56.1686 160.381C56.1686 160.417 56.1686 160.417 56.1686 160.454C56.2052 160.49 56.2418 160.527 56.315 160.564C56.4248 160.637 56.5712 160.71 56.681 160.783C56.9006 160.93 57.1568 161.003 57.3398 161.076C57.779 161.259 58.0718 161.259 58.0352 161.296Z"
          fill="#263238"/>
    <path d="M57.9621 161.405C57.9255 161.405 57.8157 161.149 57.8157 160.71C57.8157 160.49 57.8523 160.234 57.9255 159.941C57.9621 159.795 58.0353 159.649 58.1085 159.539C58.1817 159.392 58.2915 159.209 58.5477 159.209C58.6941 159.209 58.8039 159.319 58.8405 159.429C58.8771 159.539 58.8771 159.612 58.9137 159.685C58.9503 159.832 58.9137 160.015 58.9137 160.161C58.8405 160.454 58.7307 160.71 58.5843 160.856C58.2915 161.222 57.9987 161.259 57.9987 161.259C57.9621 161.222 58.2183 161.113 58.4379 160.747C58.5477 160.564 58.6575 160.344 58.6941 160.088C58.7307 159.941 58.7307 159.832 58.6941 159.685C58.6941 159.539 58.6209 159.429 58.5843 159.429C58.5111 159.429 58.4013 159.539 58.3281 159.649C58.2549 159.758 58.1817 159.905 58.1451 160.015C58.0353 160.271 57.9987 160.49 57.9987 160.71C57.9255 161.149 57.9987 161.405 57.9621 161.405Z"
          fill="#263238"/>
    <path d="M43.9442 80.2636C43.9442 80.2636 41.7482 80.3734 40.2842 87.8764C38.8202 95.3794 27.6572 156.245 27.6572 156.245L35.7458 156.318L51.008 98.4538L49.9832 158.112L58.2182 158.734C58.2182 158.734 64.4036 92.7442 64.4402 88.9012C64.5134 84.1066 61.7684 79.2754 61.7684 79.2754L43.9442 80.2636Z"
          fill="#263238"/>
    <path d="M55.0707 79.605C55.1073 79.605 54.2655 83.9238 53.2041 89.1942C52.1061 94.4646 51.1911 98.7468 51.1545 98.7468C51.1179 98.7468 51.9597 94.428 53.0211 89.1576C54.0825 83.8872 55.0341 79.605 55.0707 79.605Z"
          fill="#455A64"/>
    <path d="M56.3517 80.703C56.3517 80.6664 56.5713 80.6298 56.8275 80.8494C56.9373 80.9592 57.0471 81.1422 57.0471 81.3618C57.0471 81.5814 56.8641 81.8376 56.6445 81.9108C56.4249 82.0206 56.1321 81.984 55.9491 81.8376C55.7661 81.6912 55.7295 81.4716 55.7295 81.3252C55.7295 80.9958 55.9491 80.886 55.9491 80.886C55.9857 80.9226 55.8393 81.0324 55.8393 81.3252C55.8393 81.4716 55.9125 81.618 56.0223 81.7278C56.1321 81.8376 56.3517 81.8376 56.5347 81.7644C56.7177 81.6912 56.8275 81.5448 56.8641 81.3618C56.8641 81.2154 56.7909 81.0324 56.7177 80.9592C56.5347 80.703 56.3151 80.7396 56.3517 80.703Z"
          fill="#455A64"/>
    <path d="M55.9857 83.6674C55.9857 83.6308 56.2053 83.6674 56.3517 83.9602C56.4249 84.1066 56.4249 84.2896 56.3151 84.5092C56.2053 84.6922 55.9491 84.8386 55.7295 84.802C55.4733 84.802 55.2537 84.619 55.1805 84.3994C55.1073 84.1798 55.1805 83.9968 55.2537 83.8504C55.4367 83.5942 55.6563 83.5942 55.6563 83.5942C55.6563 83.6308 55.4733 83.6674 55.3635 83.887C55.3269 83.9968 55.2903 84.1432 55.3635 84.2896C55.4001 84.436 55.5831 84.5458 55.7661 84.5458C55.9491 84.5458 56.1321 84.4726 56.2053 84.3628C56.2785 84.2164 56.2785 84.07 56.2419 83.9602C56.1321 83.7772 55.9857 83.704 55.9857 83.6674Z"
          fill="#455A64"/>
    <path d="M48.2265 80.7761C48.2265 80.7761 48.2265 80.9225 48.1167 81.1421C48.0435 81.3617 47.8971 81.7277 47.6775 82.0937C47.2749 82.8989 46.4697 83.8871 45.3351 84.6557C44.2005 85.4243 42.9561 85.7171 42.0411 85.7903C41.6019 85.8269 41.2359 85.8269 40.9797 85.7903C40.7235 85.7537 40.5771 85.7537 40.6137 85.7171C40.6137 85.6805 41.1627 85.7537 42.0411 85.6439C42.9195 85.5341 44.1273 85.2047 45.2253 84.4727C46.3599 83.7407 47.1285 82.7525 47.5677 82.0205C48.0435 81.2885 48.1899 80.7395 48.2265 80.7761Z"
          fill="#455A64"/>
    <path d="M63.9644 86.1194C63.9644 86.1194 63.8546 86.0828 63.7082 85.973C63.5618 85.8632 63.3423 85.7168 63.1226 85.4606C62.6468 85.0214 62.0978 84.2528 61.7318 83.3378C61.3658 82.3862 61.2926 81.4712 61.3292 80.8124C61.3292 80.483 61.3658 80.2268 61.439 80.0438C61.4756 79.8608 61.5122 79.7876 61.5122 79.7876C61.5488 79.7876 61.4756 80.1902 61.4756 80.8124C61.4756 81.4346 61.5854 82.3496 61.9148 83.2646C62.2808 84.1796 62.7932 84.9116 63.1958 85.3874C63.6716 85.8266 64.001 86.0828 63.9644 86.1194Z"
          fill="#455A64"/>
    <path d="M40.7234 65.8065L44.3102 65.9895C44.5298 67.1607 45.335 68.9541 45.335 68.9541C48.2264 63.9399 50.459 57.2055 51.0446 54.4971C50.9714 54.2409 50.8616 53.9115 50.7518 53.5821C50.6054 53.1795 50.7152 52.4841 50.7884 52.0449C50.8982 51.4593 51.0446 50.6175 51.1178 50.2515C51.2642 49.1169 51.4472 48.9339 51.8498 49.0437C52.3988 49.2267 51.6302 52.2645 52.0694 52.3011C52.3256 52.3377 52.6184 51.3129 52.6916 50.4345C52.7648 49.5927 53.1674 46.9575 53.4602 46.7745C53.8628 46.5183 54.2288 46.9209 54.119 47.7627C54.0092 48.6045 53.8628 51.2031 54.3386 51.2031C54.7778 51.2397 55.1438 46.8843 55.1438 46.8843C55.1438 46.8843 55.0706 45.9327 55.583 45.9693C56.5346 46.0059 55.8026 50.5809 55.6928 51.0201C55.6196 51.3129 56.132 51.3861 56.1686 51.0567C56.2052 50.7273 56.4248 46.7013 57.413 46.7379C58.145 46.7745 56.8274 50.5077 57.2666 51.3861C57.6692 52.2645 57.962 48.4215 58.6574 48.4947C58.9136 48.5313 59.0966 48.5679 58.6208 50.7273C58.3646 51.8985 57.596 54.0213 56.9372 55.8147C55.8392 61.8171 50.9348 81.0321 43.2854 77.5185C39.0032 75.5421 36.9902 65.8065 36.9902 65.8065H40.7234Z"
          fill="#FFBE9D"/>
    <path d="M56.9374 55.8881C56.9374 55.8881 56.9374 55.8515 56.974 55.7417C57.0106 55.6319 57.0472 55.5221 57.1204 55.3757C57.2302 55.0463 57.4132 54.5339 57.6328 53.9117C57.8524 53.2895 58.1086 52.5209 58.3648 51.6059C58.5112 51.1667 58.621 50.6543 58.6942 50.1419C58.7308 49.8857 58.804 49.5929 58.8406 49.3367C58.8406 49.1903 58.8772 49.0439 58.8772 48.9341C58.8772 48.7877 58.8406 48.6779 58.7308 48.6779C58.621 48.6413 58.5478 48.7511 58.438 48.8609C58.3648 48.9707 58.2916 49.1171 58.255 49.2635C58.1452 49.5563 58.072 49.8491 57.9988 50.1785C57.9256 50.5079 57.8524 50.8007 57.7426 51.1301C57.6694 51.3131 57.6694 51.4595 57.523 51.6425C57.4864 51.6791 57.4864 51.6791 57.4132 51.7157C57.34 51.7157 57.3034 51.7157 57.2668 51.6791C57.2302 51.6425 57.1936 51.5693 57.157 51.5327C57.1204 51.4229 57.0838 51.3497 57.0838 51.2399C57.0106 50.5079 57.1936 49.8125 57.3034 49.0439C57.3766 48.6779 57.4498 48.3119 57.4864 47.9459C57.523 47.7629 57.523 47.5799 57.523 47.3969C57.523 47.2139 57.4864 46.9943 57.4132 46.9577C57.3034 46.9211 57.157 47.0309 57.0472 47.1773C56.9374 47.3237 56.8642 47.5067 56.791 47.6897C56.6812 48.0557 56.5714 48.4583 56.4982 48.8609C56.425 49.2635 56.3884 49.6661 56.3152 50.1053C56.2786 50.3249 56.2786 50.5079 56.242 50.7275L56.2054 51.0569C56.2054 51.1301 56.2054 51.3131 56.059 51.4229C55.9492 51.5327 55.7662 51.5327 55.6198 51.4229C55.5466 51.3863 55.51 51.3131 55.4734 51.2033C55.4734 51.1667 55.4734 51.1301 55.4734 51.0935V51.0203C55.51 50.8007 55.5466 50.5811 55.5832 50.3981C55.6564 49.9589 55.693 49.5197 55.7296 49.0805C55.7662 48.6413 55.8028 48.2021 55.8028 47.7629C55.8028 47.3237 55.8028 46.8479 55.6564 46.4453C55.6198 46.3355 55.5466 46.2257 55.4734 46.1891C55.4002 46.1525 55.2904 46.1891 55.2172 46.2623C55.1074 46.4453 55.0708 46.7381 55.0708 46.9577C54.9976 47.8361 54.8878 48.6779 54.778 49.4831C54.7048 49.8857 54.6316 50.3249 54.5584 50.7275C54.5218 50.8373 54.4852 50.9471 54.4486 51.0203C54.412 51.1301 54.3754 51.2399 54.229 51.3497C54.1192 51.4229 54.0094 51.3497 53.9728 51.2765C53.9362 51.2033 53.8996 51.1667 53.863 51.0935C53.8264 50.9837 53.7898 50.8739 53.7898 50.7641C53.68 49.9223 53.7166 49.1537 53.7532 48.3485C53.7532 47.9459 53.863 47.5799 53.8264 47.2139C53.7898 47.0309 53.7532 46.8845 53.6068 46.8113C53.5336 46.7747 53.497 46.7747 53.4238 46.7747C53.3872 46.7747 53.3506 46.8113 53.314 46.8113C53.2774 46.8479 53.2774 46.8113 53.2774 46.8845C53.131 47.1773 53.0578 47.5433 52.9846 47.9093C52.9114 48.2753 52.8382 48.6047 52.8016 48.9341C52.7284 49.2635 52.6918 49.6295 52.6552 49.9589C52.6186 50.2883 52.582 50.6177 52.5088 50.9471C52.4356 51.2765 52.3624 51.6059 52.2526 51.8987C52.216 51.9719 52.1794 52.0451 52.1428 52.1183C52.1062 52.1915 52.0696 52.2647 51.9232 52.3379C51.85 52.3745 51.7768 52.3013 51.7402 52.2647C51.7036 52.2281 51.7036 52.1549 51.667 52.1183C51.6304 52.0451 51.6304 51.9353 51.6304 51.8621C51.6304 51.2399 51.7036 50.6543 51.7402 50.1053C51.7402 49.8491 51.7768 49.5563 51.7402 49.3001C51.7402 49.1903 51.7036 49.0439 51.6304 49.0073C51.5206 48.9707 51.4108 48.9341 51.3376 49.0073C51.1912 49.1171 51.118 49.4099 51.0814 49.5929C51.0448 49.8125 51.0082 50.0321 50.9716 50.2517C50.8252 51.1301 50.6422 51.8621 50.569 52.4843C50.5324 52.7771 50.5324 53.0699 50.569 53.2895C50.6056 53.5091 50.6788 53.6921 50.752 53.8751C50.7886 54.0215 50.8252 54.1313 50.8618 54.2411C50.8984 54.3143 50.8984 54.3509 50.8984 54.3509C50.8984 54.3509 50.8618 54.3143 50.8618 54.2411C50.8252 54.1679 50.7886 54.0215 50.752 53.9117C50.7154 53.7653 50.6422 53.5823 50.569 53.3261C50.5324 53.0699 50.5324 52.8137 50.569 52.4843C50.6422 51.8621 50.7886 51.1301 50.935 50.2517C50.9716 50.0321 51.0082 49.8125 51.0448 49.5563C51.0814 49.4465 51.0814 49.3367 51.1546 49.1903C51.1912 49.0805 51.2644 48.9341 51.3742 48.8609C51.5206 48.7877 51.667 48.7877 51.8134 48.8609C51.9964 48.9707 51.9964 49.1171 52.033 49.2635C52.0696 49.5197 52.0696 49.8125 52.033 50.1053C51.9964 50.6543 51.9232 51.2399 51.9232 51.8255C51.9232 51.8987 51.9232 51.9719 51.9598 52.0451C51.9598 52.1183 51.9964 52.1549 51.9964 52.1183C51.9964 52.1183 52.0696 52.0451 52.1062 52.0085C52.1428 51.9353 52.1794 51.8621 52.216 51.7889C52.3258 51.4961 52.399 51.2033 52.4722 50.8739C52.5454 50.5445 52.5454 50.2151 52.582 49.8857C52.6186 49.5563 52.6552 49.1903 52.7284 48.8609C52.765 48.5315 52.8382 48.1655 52.9114 47.7995C52.9846 47.4335 53.0578 47.1041 53.2042 46.7015C53.2042 46.6649 53.2774 46.5917 53.3506 46.5551C53.3872 46.5185 53.4604 46.5185 53.497 46.4819C53.6068 46.4453 53.7532 46.4819 53.863 46.5551C54.0826 46.7015 54.1192 46.9211 54.1558 47.1041C54.1924 47.2871 54.1924 47.5067 54.1558 47.6897C54.1192 47.8727 54.1192 48.0557 54.1192 48.2753C54.0826 49.0439 54.046 49.8491 54.1558 50.6177C54.1558 50.7275 54.1924 50.8007 54.229 50.8739C54.229 50.9105 54.2656 50.9471 54.2656 50.9837C54.2656 51.0569 54.2656 50.9837 54.2656 51.0203C54.2656 51.0203 54.2656 51.0203 54.2656 50.9837C54.3022 50.9837 54.3388 50.8739 54.3754 50.8007C54.412 50.7275 54.4486 50.6177 54.4486 50.5079C54.5584 50.1053 54.6316 49.7027 54.6682 49.3001C54.778 48.4583 54.8878 47.6165 54.961 46.7747C54.961 46.4819 54.961 46.1891 55.144 45.8963C55.2538 45.7499 55.4734 45.6767 55.6564 45.7499C55.8394 45.8231 55.9126 46.0061 55.9858 46.1525C56.1322 46.6283 56.1322 47.0675 56.1322 47.5433C56.1322 47.9825 56.0956 48.4583 56.059 48.8975C56.0224 49.3367 55.9492 49.7759 55.9126 50.2151C55.876 50.4347 55.8394 50.6543 55.8028 50.8739C55.7662 51.0203 55.7662 51.0203 55.8394 51.0569C55.876 51.0935 55.9858 51.0935 56.0224 51.0569C56.059 51.0203 56.059 50.9471 56.0956 50.8373L56.1322 50.5079C56.1688 50.2883 56.1688 50.0687 56.2054 49.8857C56.242 49.4831 56.3152 49.0439 56.3884 48.6413C56.4616 48.2387 56.5348 47.8361 56.6812 47.4335C56.7544 47.2505 56.8276 47.0309 56.9374 46.8479C57.0106 46.7747 57.0838 46.6649 57.157 46.5917C57.2668 46.5185 57.3766 46.4819 57.523 46.5185C57.6694 46.5917 57.706 46.7381 57.706 46.8479C57.706 46.9577 57.7426 47.0675 57.7426 47.1407C57.7426 47.3603 57.706 47.5433 57.706 47.7263C57.6694 48.0923 57.5962 48.4949 57.523 48.8609C57.4132 49.5929 57.2302 50.3249 57.3034 50.9837C57.3034 51.0569 57.34 51.1301 57.3766 51.2033C57.3766 51.2399 57.4132 51.2765 57.4132 51.2765C57.4132 51.3131 57.4132 51.2765 57.4132 51.2765C57.4132 51.2399 57.4132 51.2765 57.4132 51.2399C57.4864 51.1301 57.5596 50.9471 57.5962 50.8007C57.706 50.4713 57.7792 50.1419 57.8524 49.8491C57.9256 49.5197 58.0354 49.2269 58.1086 48.9341C58.1452 48.7877 58.2184 48.6413 58.2916 48.4949C58.3282 48.4217 58.3648 48.3485 58.4746 48.3119C58.5112 48.2753 58.5478 48.2753 58.621 48.2387C58.6942 48.2387 58.7308 48.2387 58.7674 48.2387C58.8406 48.2387 58.987 48.3119 58.987 48.4217C59.0236 48.4949 59.0236 48.6047 59.0236 48.6779C59.0236 48.8243 59.0236 48.9707 58.987 49.1171C58.9504 49.4099 58.9138 49.6661 58.8406 49.9223C58.7308 50.4347 58.621 50.9471 58.4746 51.3863C58.2184 52.3013 57.9256 53.0699 57.706 53.6921C57.4864 54.3143 57.3034 54.7901 57.157 55.1195C57.0838 55.2659 57.0472 55.4123 57.0106 55.4855C56.974 55.8515 56.9374 55.8881 56.9374 55.8881Z"
          fill="#EB996E"/>
    <path d="M36.9902 66.2094C37.6856 68.6616 39.0398 72.468 40.5038 76.4574C40.7234 77.043 41.5286 77.0796 41.7848 76.5306L45.3716 68.9544C45.3716 68.9544 44.4932 62.7324 44.5664 62.952C44.6396 63.1716 37.1732 63.7572 37.1732 63.7572L36.9902 66.2094Z"
          fill="#D46B08"/>
    <path d="M45.0423 65.0015C45.0423 65.0381 44.6031 65.1479 43.8711 65.4407C43.1757 65.6969 42.1875 66.1361 41.1993 66.7217C40.2111 67.3073 39.4059 67.9661 38.8203 68.4785C38.2347 68.9909 37.9419 69.3203 37.9053 69.2837C37.9053 69.2837 37.9785 69.1739 38.0883 69.0275C38.2347 68.8811 38.4543 68.6249 38.7105 68.3687C39.2595 67.8197 40.0647 67.1609 41.0895 66.5387C42.0777 65.9165 43.0659 65.5139 43.7979 65.2943C44.1639 65.1845 44.4567 65.0747 44.6763 65.0381C44.9325 65.0015 45.0423 64.9649 45.0423 65.0015Z"
          fill="#FAFAFA"/>
    <path d="M46.4697 66.8681C46.4331 66.8681 46.2135 66.6119 45.8841 66.0995C45.5547 65.5871 45.1521 64.8551 44.7861 64.0133C44.4201 63.1715 44.2005 62.3297 44.0907 61.7441C43.9809 61.1585 43.9443 60.7559 43.9443 60.7559C43.9809 60.7559 44.0541 61.1219 44.2005 61.7075C44.3469 62.2931 44.6031 63.0983 44.9325 63.9401C45.2985 64.7819 45.6645 65.5139 45.9939 66.0263C46.2867 66.5387 46.4697 66.8681 46.4697 66.8681Z"
          fill="#263238"/>
    <path d="M48.8486 33.3424C47.6042 35.3554 47.348 37.9906 48.1532 40.2232C48.5192 41.2114 49.1048 42.2362 48.995 43.2976C48.8852 44.3956 48.0434 45.4204 48.3362 46.4818C48.5192 47.104 49.0316 47.5798 49.2512 48.202C49.5074 48.934 49.2512 49.7026 49.1414 50.4712C48.8486 52.3744 49.4708 54.3142 49.6172 56.254C49.7636 58.1938 49.2512 60.463 47.531 61.3048C47.0186 61.561 46.3232 61.6342 45.884 61.2316C45.335 60.7192 45.4814 59.8408 45.6278 59.1088C47.1284 51.7888 42.4802 44.6518 43.5416 37.222C43.7246 36.0508 44.3834 34.0378 45.2252 33.196C46.067 32.3542 48.446 32.464 49.2512 33.3424"
          fill="#263238"/>
    <path d="M41.6384 54.5705C41.6384 54.5705 41.858 54.3143 42.1874 53.8019C42.5168 53.2895 42.9194 52.4843 43.139 51.4229C43.2488 50.8739 43.2854 50.2883 43.2488 49.6295C43.2122 48.9707 43.139 48.2753 43.1756 47.5433C43.1756 47.1773 43.2854 46.8113 43.3952 46.4087C43.5416 46.0427 43.688 45.6767 43.9076 45.3473C44.3102 44.6519 44.8226 43.9931 45.2984 43.3343C45.7742 42.6389 46.1768 41.9069 46.2866 41.1383C46.433 40.3697 46.2866 39.6011 46.1768 38.9057C46.067 38.1737 45.9572 37.4783 46.0304 36.8195C46.067 36.1607 46.2134 35.5751 46.3964 35.0261C46.7624 33.9647 47.2748 33.2327 47.6774 32.7569C47.897 32.5373 48.0434 32.3543 48.1898 32.2445C48.2996 32.1347 48.3728 32.0981 48.3728 32.0981C48.3728 32.0981 48.1166 32.3543 47.7506 32.8301C47.3846 33.3059 46.8722 34.0745 46.5428 35.0993C46.3598 35.6117 46.25 36.1973 46.2134 36.8561C46.1768 37.5149 46.25 38.1737 46.3964 38.9057C46.5062 39.6377 46.6526 40.4063 46.5428 41.2115C46.3964 42.0167 45.9938 42.7853 45.518 43.4807C45.0422 44.1761 44.5298 44.8349 44.1272 45.4937C43.9442 45.8231 43.7612 46.1891 43.6514 46.5185C43.5416 46.8845 43.4684 47.2505 43.4318 47.5799C43.3952 48.3119 43.4684 49.0073 43.505 49.6295C43.5416 50.2883 43.4684 50.9105 43.3586 51.4595C43.139 52.5575 42.6998 53.3627 42.3338 53.8751C42.1508 54.1313 42.0044 54.3143 41.8946 54.4241C41.7116 54.5339 41.6384 54.5705 41.6384 54.5705Z"
          fill="#455A64"/>
    <path d="M38.1614 55.1195C38.1614 55.1195 38.198 55.0463 38.2712 54.8633C38.3444 54.6803 38.4908 54.4607 38.6372 54.1679C38.93 53.5823 39.4058 52.7039 39.845 51.6059C40.2842 50.5079 40.7234 49.1171 40.7234 47.5433C40.7234 47.1407 40.6868 46.7381 40.6502 46.3355C40.577 45.9329 40.5038 45.5303 40.4306 45.0911C40.3574 44.6519 40.3574 44.2127 40.4672 43.7369C40.577 43.2977 40.8698 42.8585 41.1992 42.5657C41.8946 41.9435 42.7364 41.5409 43.139 40.8089C43.5782 40.0769 43.688 39.2351 43.7978 38.4665C43.9076 37.6613 44.054 36.9293 44.3102 36.2705C44.5664 35.6117 44.8958 35.0261 45.2252 34.5137C45.9206 33.5255 46.6892 32.9033 47.2748 32.5373C47.5676 32.3543 47.7872 32.2079 47.9336 32.1347C48.08 32.0615 48.1898 32.0249 48.1898 32.0249C48.1898 32.0615 47.8604 32.2079 47.3114 32.5739C46.7624 32.9765 46.0304 33.5987 45.335 34.5869C45.0056 35.0627 44.6762 35.6483 44.4566 36.3071C44.2004 36.9659 44.054 37.6979 43.9808 38.5031C43.871 39.2717 43.7978 40.1501 43.322 40.9187C42.8462 41.7239 42.0044 42.1265 41.3456 42.7487C41.0162 43.0415 40.76 43.4075 40.6502 43.8467C40.5404 44.2493 40.577 44.6885 40.6136 45.1277C40.6868 45.5669 40.76 45.9695 40.8332 46.3721C40.9064 46.7747 40.9064 47.2139 40.9064 47.6165C40.8698 49.2269 40.4306 50.6177 39.9548 51.7157C39.479 52.8137 39.0032 53.6921 38.6738 54.2777C38.5274 54.5705 38.381 54.7901 38.2712 54.9365C38.2346 55.0463 38.1614 55.1195 38.1614 55.1195Z"
          fill="#455A64"/>
    <path d="M159.271 158.551C159.271 158.551 159.308 158.515 159.344 158.405C159.381 158.295 159.454 158.149 159.564 157.966C159.747 157.563 159.966 156.977 160.186 156.209C160.589 154.635 160.735 152.219 160.149 149.365C159.857 147.937 159.417 146.4 158.868 144.79C158.319 143.143 157.697 141.422 157.185 139.556C156.672 137.689 156.27 135.676 156.343 133.553C156.416 131.431 157.038 129.308 157.734 127.185C158.429 125.062 159.125 123.013 159.344 120.927C159.6 118.84 159.125 116.827 158.21 115.144C157.295 113.46 156.123 111.996 155.282 110.532C154.403 109.032 153.854 107.494 153.525 106.067C152.866 103.176 153.086 100.76 153.415 99.1861C153.744 97.5757 154.147 96.7705 154.147 96.7705C154.147 96.7705 154.147 96.8437 154.11 96.9169C154.074 97.0267 154.037 97.1731 153.964 97.3927C153.854 97.7953 153.671 98.4175 153.525 99.2227C153.232 100.833 153.049 103.212 153.708 106.067C154.037 107.494 154.586 108.995 155.465 110.459C156.343 111.923 157.478 113.387 158.429 115.071C159.381 116.754 159.857 118.877 159.6 120.963C159.381 123.086 158.649 125.172 157.99 127.258C157.295 129.381 156.672 131.467 156.599 133.553C156.526 135.64 156.892 137.653 157.404 139.519C157.917 141.386 158.539 143.106 159.051 144.753C159.6 146.4 160.04 147.937 160.296 149.365C160.881 152.256 160.698 154.672 160.296 156.245C160.076 157.051 159.82 157.636 159.637 158.002C159.527 158.185 159.454 158.332 159.417 158.441C159.308 158.515 159.271 158.551 159.271 158.551Z"
          fill="#263238"/>
    <path d="M156.453 111.959C156.453 111.959 154.696 106.36 157.843 103.066C157.953 102.956 158.136 102.992 158.173 103.175C158.319 104.09 158.539 106.909 156.453 111.959Z"
          fill="#FA8C16"/>
    <path d="M157.478 104.932C157.514 104.932 157.441 105.335 157.368 105.957C157.258 106.652 157.112 107.494 156.965 108.446C156.819 109.361 156.672 110.203 156.563 110.898C156.453 111.52 156.416 111.923 156.38 111.923C156.343 111.923 156.343 111.52 156.416 110.898C156.489 110.276 156.599 109.361 156.746 108.409C156.892 107.458 157.075 106.579 157.221 105.957C157.368 105.335 157.441 104.932 157.478 104.932Z"
          fill="#263238"/>
    <path d="M158.502 125.172C158.502 125.172 159.563 119.389 163.882 117.962C164.029 117.925 164.175 118.035 164.138 118.218C163.846 119.097 162.711 121.695 158.502 125.172Z"
          fill="#FA8C16"/>
    <path d="M162.711 119.463C162.748 119.499 162.491 119.792 162.125 120.304C161.686 120.89 161.174 121.549 160.625 122.317C160.076 123.049 159.563 123.745 159.124 124.33C158.758 124.843 158.502 125.172 158.465 125.136C158.429 125.136 158.648 124.77 158.978 124.221C159.344 123.672 159.856 122.94 160.442 122.171C161.027 121.402 161.576 120.707 162.016 120.195C162.418 119.719 162.674 119.426 162.711 119.463Z"
          fill="#263238"/>
    <path d="M157.331 139.629C157.331 139.629 156.672 133.81 160.405 131.174C160.552 131.065 160.698 131.174 160.698 131.321C160.698 132.272 160.369 135.091 157.331 139.629Z"
          fill="#FA8C16"/>
    <path d="M159.71 132.968C159.747 132.968 159.6 133.37 159.381 133.956C159.124 134.615 158.832 135.42 158.502 136.298C158.173 137.177 157.88 137.982 157.66 138.641C157.441 139.226 157.331 139.629 157.294 139.592C157.258 139.592 157.331 139.19 157.514 138.568C157.697 137.945 157.99 137.104 158.319 136.189C158.649 135.274 158.978 134.432 159.234 133.846C159.49 133.297 159.673 132.931 159.71 132.968Z"
          fill="#263238"/>
    <path d="M160.589 154.196C160.589 154.196 160.149 148.34 163.956 145.851C164.102 145.778 164.249 145.851 164.249 146.034C164.212 146.986 163.773 149.767 160.589 154.196Z"
          fill="#FA8C16"/>
    <path d="M163.187 147.608C163.224 147.608 163.077 148.011 162.821 148.596C162.565 149.255 162.236 150.06 161.87 150.902C161.504 151.78 161.211 152.549 160.918 153.208C160.698 153.793 160.552 154.159 160.515 154.159C160.479 154.159 160.589 153.757 160.772 153.135C160.955 152.512 161.284 151.707 161.65 150.792C162.016 149.877 162.382 149.072 162.675 148.486C162.968 147.937 163.151 147.608 163.187 147.608Z"
          fill="#263238"/>
    <path d="M153.927 107.019C153.927 107.019 148.73 104.31 148.62 99.7717C148.62 99.6253 148.803 99.5155 148.913 99.5887C149.682 100.138 151.841 101.968 153.927 107.019Z"
          fill="#FA8C16"/>
    <path d="M149.682 101.346C149.718 101.346 149.938 101.639 150.34 102.151C150.78 102.737 151.255 103.432 151.804 104.164C152.353 104.933 152.866 105.591 153.268 106.177C153.634 106.689 153.891 107.019 153.854 107.019C153.817 107.055 153.561 106.762 153.122 106.25C152.719 105.774 152.17 105.042 151.585 104.274C150.999 103.469 150.523 102.737 150.157 102.188C149.865 101.712 149.682 101.346 149.682 101.346Z"
          fill="#263238"/>
    <path d="M159.49 119.06C159.49 119.06 154.147 116.681 153.744 112.142C153.744 111.996 153.891 111.886 154.037 111.959C154.879 112.435 157.111 114.155 159.49 119.06Z"
          fill="#FA8C16"/>
    <path d="M154.952 113.643C154.988 113.606 155.245 113.936 155.647 114.412C156.086 114.961 156.635 115.619 157.221 116.351C157.807 117.083 158.356 117.742 158.795 118.291C159.197 118.767 159.454 119.096 159.454 119.096C159.417 119.133 159.124 118.84 158.685 118.401C158.246 117.925 157.66 117.266 157.038 116.498C156.416 115.729 155.867 115.034 155.501 114.521C155.135 113.972 154.915 113.643 154.952 113.643Z"
          fill="#263238"/>
    <path d="M156.416 132.492C156.416 132.492 152.719 127.917 154.476 123.708C154.549 123.562 154.732 123.525 154.805 123.671C155.318 124.477 156.526 127.002 156.416 132.492Z"
          fill="#FA8C16"/>
    <path d="M154.842 125.575C154.878 125.575 154.952 125.941 155.098 126.563C155.244 127.258 155.427 128.1 155.647 129.015C155.83 129.93 156.013 130.772 156.196 131.467C156.342 132.089 156.416 132.492 156.379 132.492C156.342 132.492 156.196 132.126 156.013 131.504C155.83 130.882 155.61 130.04 155.427 129.052C155.208 128.1 155.061 127.222 154.952 126.6C154.842 125.977 154.805 125.575 154.842 125.575Z"
          fill="#263238"/>
    <path d="M160.076 148.267C160.076 148.267 154.769 145.778 154.476 141.24C154.476 141.093 154.622 140.983 154.769 141.057C155.537 141.569 157.77 143.326 160.076 148.267Z"
          fill="#FA8C16"/>
    <path d="M155.611 142.777C155.647 142.777 155.904 143.07 156.306 143.545C156.745 144.094 157.294 144.79 157.843 145.522C158.429 146.254 158.941 146.913 159.417 147.462C159.82 147.974 160.076 148.267 160.039 148.303C160.003 148.34 159.71 148.047 159.307 147.571C158.868 147.096 158.283 146.437 157.697 145.668C157.075 144.9 156.562 144.204 156.196 143.655C155.794 143.106 155.574 142.777 155.611 142.777Z"
          fill="#263238"/>
    <path d="M170.653 125.209C170.653 125.209 170.653 125.246 170.653 125.355C170.653 125.465 170.653 125.575 170.653 125.721C170.653 126.087 170.617 126.563 170.58 127.149C170.507 128.393 170.434 130.15 170.287 132.236C169.921 134.359 168.823 136.701 167.359 139.007C166.298 140.691 165.163 142.228 164.212 143.655C163.26 145.083 162.418 146.4 161.869 147.572C161.284 148.743 160.954 149.731 160.771 150.426C160.662 150.792 160.625 151.049 160.552 151.232C160.515 151.415 160.479 151.524 160.479 151.524C160.479 151.524 160.479 151.415 160.515 151.232C160.552 151.049 160.588 150.756 160.698 150.39C160.881 149.694 161.174 148.67 161.76 147.498C162.309 146.327 163.114 144.973 164.102 143.546C165.054 142.118 166.188 140.581 167.213 138.897C168.64 136.628 169.738 134.322 170.141 132.2C170.287 130.113 170.397 128.357 170.507 127.112C170.544 126.527 170.58 126.051 170.617 125.685C170.617 125.538 170.653 125.429 170.653 125.319C170.653 125.246 170.653 125.209 170.653 125.209Z"
          fill="#263238"/>
    <path d="M167.506 138.531C167.506 138.531 169.775 133.115 166.92 129.564C166.811 129.455 166.628 129.491 166.591 129.638C166.335 130.553 165.859 133.334 167.506 138.531Z"
          fill="#FA8C16"/>
    <path d="M167.067 131.468C167.103 131.468 167.177 131.87 167.25 132.493C167.323 133.115 167.433 133.993 167.506 134.981C167.579 135.97 167.616 136.848 167.616 137.47C167.616 138.129 167.579 138.495 167.543 138.495C167.506 138.495 167.506 138.092 167.433 137.47C167.396 136.738 167.323 135.896 167.25 134.981C167.177 134.066 167.14 133.188 167.067 132.493C167.067 131.87 167.067 131.468 167.067 131.468Z"
          fill="#263238"/>
    <g opacity="0.3">
        <g opacity="0.3">
            <path opacity="0.3"
                  d="M167.506 138.531C167.506 138.531 169.775 133.115 166.92 129.564C166.811 129.455 166.628 129.491 166.591 129.638C166.335 130.553 165.859 133.334 167.506 138.531Z"
                  fill="black"/>
        </g>
    </g>
    <path d="M160.515 151.598C160.515 151.598 162.309 145.998 159.198 142.704C159.088 142.594 158.905 142.631 158.868 142.814C158.685 143.729 158.466 146.547 160.515 151.598Z"
          fill="#FA8C16"/>
    <path d="M159.527 144.57C159.563 144.57 159.673 144.936 159.783 145.595C159.929 146.217 160.076 147.096 160.222 148.047C160.369 148.999 160.478 149.914 160.515 150.536C160.552 151.195 160.552 151.561 160.552 151.561C160.515 151.561 160.478 151.158 160.369 150.536C160.259 149.841 160.149 148.999 160.003 148.047C159.856 147.132 159.746 146.291 159.637 145.559C159.563 144.973 159.49 144.57 159.527 144.57Z"
          fill="#263238"/>
    <g opacity="0.3">
        <g opacity="0.3">
            <path opacity="0.3"
                  d="M160.515 151.598C160.515 151.598 162.309 145.998 159.198 142.704C159.088 142.594 158.905 142.631 158.868 142.814C158.685 143.729 158.466 146.547 160.515 151.598Z"
                  fill="black"/>
        </g>
    </g>
    <path d="M170.36 131.907C170.36 131.907 175.155 128.539 174.679 124.038C174.679 123.891 174.46 123.818 174.35 123.928C173.654 124.55 171.788 126.636 170.36 131.907Z"
          fill="#FA8C16"/>
    <g opacity="0.3">
        <g opacity="0.3">
            <path opacity="0.3"
                  d="M170.36 131.907C170.36 131.907 175.155 128.539 174.679 124.038C174.679 123.891 174.46 123.818 174.35 123.928C173.654 124.55 171.788 126.636 170.36 131.907Z"
                  fill="black"/>
        </g>
    </g>
    <path d="M173.801 125.721C173.837 125.721 173.691 126.087 173.398 126.673C173.142 127.258 172.739 128.027 172.264 128.905C171.788 129.784 171.349 130.516 171.019 131.065C170.69 131.614 170.434 131.907 170.397 131.907C170.36 131.907 170.58 131.541 170.873 130.992C171.202 130.369 171.641 129.601 172.081 128.796C172.52 127.99 172.922 127.222 173.288 126.6C173.581 126.051 173.801 125.721 173.801 125.721Z"
          fill="#263238"/>
    <path d="M162.455 146.071C162.455 146.071 168.238 145.156 169.812 140.91C169.848 140.764 169.738 140.618 169.592 140.654C168.677 140.91 166.042 141.972 162.455 146.071Z"
          fill="#FA8C16"/>
    <g opacity="0.3">
        <g opacity="0.3">
            <path opacity="0.3"
                  d="M162.455 146.071C162.455 146.071 168.238 145.156 169.812 140.91C169.848 140.764 169.738 140.618 169.592 140.654C168.677 140.91 166.042 141.972 162.455 146.071Z"
                  fill="black"/>
        </g>
    </g>
    <path d="M168.274 142.008C168.311 142.045 167.982 142.301 167.506 142.704C166.993 143.106 166.298 143.655 165.493 144.204C164.688 144.79 163.956 145.266 163.407 145.595C162.858 145.924 162.492 146.107 162.492 146.071C162.492 146.034 162.784 145.815 163.333 145.449C163.919 145.046 164.614 144.534 165.383 144.021C166.152 143.472 166.847 142.996 167.433 142.557C167.945 142.228 168.274 142.008 168.274 142.008Z"
          fill="#263238"/>
    <path d="M156.928 156.721L155.245 168.14H165.785L164.395 156.721H156.928Z" fill="#455A64"/>
    <path d="M164.834 160.271C164.834 160.345 162.931 160.381 160.588 160.381C158.246 160.381 156.343 160.345 156.343 160.271C156.343 160.198 158.246 160.162 160.588 160.162C162.931 160.162 164.834 160.198 164.834 160.271Z"
          fill="#263238"/>
    <path d="M165.054 161.186C165.054 161.26 163.077 161.296 160.662 161.296C158.246 161.296 156.27 161.26 156.27 161.186C156.27 161.113 158.246 161.077 160.662 161.077C163.077 161.077 165.054 161.113 165.054 161.186Z"
          fill="#263238"/>
    <path d="M124.061 46.299C124.061 46.299 123.952 46.299 123.769 46.299C123.586 46.299 123.293 46.2624 122.927 46.299C122.195 46.3356 121.097 46.482 119.816 47.031C118.535 47.58 117.034 48.5316 115.863 50.1054C115.277 50.9106 114.765 51.8622 114.472 52.9236C114.179 54.0216 114.07 55.1928 114.216 56.4372C114.362 57.6816 114.765 58.9626 115.424 60.1338C115.753 60.7194 116.156 61.2684 116.668 61.7808C117.144 62.2932 117.73 62.769 118.352 63.0984C118.974 63.4278 119.706 63.6474 120.475 63.6474C121.207 63.6108 121.975 63.3546 122.524 62.8056C123.073 62.2566 123.329 61.488 123.329 60.6828C123.329 59.8776 123.073 59.109 122.597 58.4502C121.646 57.1326 120.109 56.2176 118.462 55.7418C116.815 55.266 114.985 55.266 113.264 55.6686C112.386 55.8882 111.544 56.2176 110.776 56.6568C109.97 57.096 109.275 57.6816 108.616 58.3404C108.47 58.5234 108.287 58.6698 108.177 58.8528L107.774 59.4018C107.518 59.8044 107.299 60.207 107.116 60.6096C106.713 61.4514 106.457 62.3664 106.31 63.318C106.054 65.1846 106.274 67.1244 107.042 68.808C107.774 70.4916 109.019 71.9556 110.593 72.834C111.361 73.2732 112.24 73.5294 113.081 73.6026C113.96 73.6392 114.802 73.4196 115.534 73.017C116.266 72.5778 116.888 71.9556 117.217 71.187C117.547 70.4184 117.547 69.54 117.254 68.808C116.998 68.0394 116.485 67.3806 115.863 66.8682C115.277 66.3558 114.582 65.9532 113.85 65.697C112.386 65.2212 110.812 65.2578 109.385 65.6238C107.957 65.9898 106.713 66.7218 105.725 67.6734C104.737 68.625 104.041 69.7596 103.639 70.9308C102.797 73.2732 103.016 75.6888 103.748 77.5188C104.48 79.3488 105.688 80.6664 106.75 81.5448C107.848 82.4232 108.836 82.899 109.531 83.1552C109.861 83.3016 110.153 83.3748 110.336 83.448C110.519 83.5212 110.593 83.5212 110.593 83.5212C110.593 83.5212 110.483 83.4846 110.3 83.448C110.117 83.4114 109.861 83.3016 109.495 83.1918C108.799 82.9356 107.811 82.4598 106.676 81.618C105.578 80.7396 104.371 79.422 103.602 77.592C102.87 75.762 102.614 73.3098 103.492 70.9308C103.895 69.7596 104.627 68.5884 105.615 67.6368C106.603 66.6852 107.884 65.9532 109.312 65.5506C110.739 65.148 112.349 65.1114 113.85 65.6238C114.582 65.88 115.314 66.2826 115.936 66.8316C116.558 67.3806 117.071 68.0394 117.364 68.8446C117.656 69.6498 117.656 70.5648 117.327 71.37C116.998 72.1752 116.339 72.834 115.57 73.2732C114.802 73.7124 113.887 73.932 113.008 73.8954C112.093 73.8588 111.215 73.566 110.41 73.1268C108.799 72.2484 107.555 70.7478 106.786 69.0276C106.018 67.3074 105.798 65.331 106.018 63.4278C106.164 62.4762 106.42 61.5612 106.823 60.6828C107.006 60.2436 107.262 59.841 107.518 59.4384L107.957 58.8528C108.104 58.6698 108.287 58.4868 108.433 58.3038C109.092 57.6084 109.824 57.0228 110.629 56.5836C111.434 56.1444 112.313 55.815 113.191 55.5588C114.948 55.1196 116.815 55.1562 118.498 55.632C120.182 56.1444 121.719 57.0228 122.707 58.4136C123.183 59.109 123.476 59.9142 123.476 60.756C123.476 61.5612 123.183 62.403 122.597 62.9886C122.012 63.5742 121.207 63.8304 120.438 63.867C119.669 63.9036 118.901 63.684 118.242 63.318C117.583 62.952 116.998 62.4762 116.522 61.9638C116.009 61.4514 115.607 60.8658 115.277 60.2802C114.582 59.0724 114.216 57.7914 114.033 56.547C113.887 55.3026 113.996 54.0582 114.289 52.9602C114.582 51.8622 115.094 50.9106 115.717 50.1054C116.924 48.495 118.425 47.5434 119.743 47.031C121.06 46.482 122.158 46.3722 122.89 46.3356C123.256 46.299 123.549 46.3356 123.732 46.3356C123.952 46.299 124.061 46.299 124.061 46.299Z"
          fill="#263238"/>
    <path d="M136.286 82.9355H84.9727V122.5H136.286V82.9355Z" fill="#FA8C16"/>
    <path d="M84.9727 82.9355L94.4521 91.7927H144.887L136.286 82.9355H84.9727Z" fill="#FA8C16"/>
    <path d="M84.9727 82.9355C85.8877 82.9355 107.079 82.8989 136.286 82.8257H136.322L136.359 82.8623C139.104 85.6805 141.959 88.6085 144.887 91.6097C144.923 91.6463 144.96 91.6829 144.96 91.6829L145.106 91.8293H144.887C124.208 91.8293 105.835 91.7927 94.4521 91.7927H94.4155C88.4497 86.2295 85.2655 83.2283 84.9727 82.9355C85.3021 83.2283 88.5229 86.1929 94.4886 91.7195H94.4521C105.871 91.7195 124.208 91.6829 144.887 91.6829L144.814 91.8293C144.777 91.7927 144.74 91.7561 144.74 91.7561C141.812 88.7549 138.958 85.8269 136.213 83.0087L136.286 83.0453C107.079 82.9721 85.8877 82.9355 84.9727 82.9355Z"
          fill="#263238"/>
    <path d="M100.381 101.199C99.8322 101.199 99.3564 101.675 99.3198 102.224C99.3198 102.773 99.7956 103.285 100.345 103.285C100.894 103.322 101.406 102.846 101.443 102.297C101.479 101.748 101.003 101.235 100.454 101.199"
          fill="#263238"/>
    <path d="M112.496 101.199C111.947 101.199 111.471 101.675 111.434 102.224C111.434 102.773 111.91 103.285 112.459 103.285C113.008 103.322 113.521 102.846 113.557 102.297C113.594 101.748 113.118 101.235 112.569 101.199"
          fill="#263238"/>
    <path d="M112.569 110.678C112.532 110.715 112.423 109.69 111.544 108.409C111.105 107.787 110.483 107.091 109.604 106.542C108.763 105.993 107.665 105.591 106.493 105.554C105.322 105.518 104.224 105.884 103.346 106.359C102.467 106.872 101.772 107.494 101.296 108.116C100.345 109.361 100.198 110.349 100.162 110.349C100.162 110.349 100.162 110.276 100.198 110.166C100.235 110.056 100.271 109.873 100.345 109.69C100.491 109.287 100.747 108.702 101.223 108.043C101.699 107.421 102.358 106.725 103.273 106.213C104.188 105.701 105.322 105.335 106.53 105.371C107.738 105.408 108.872 105.81 109.714 106.396C110.593 106.982 111.251 107.677 111.654 108.336C112.093 108.995 112.313 109.58 112.423 110.019C112.496 110.239 112.496 110.385 112.532 110.495C112.569 110.605 112.569 110.678 112.569 110.678Z"
          fill="#263238"/>
    <path opacity="0.5" d="M85.0825 83.375L94.1593 94.8674H136.286V91.793H94.4521L85.0825 83.375Z" fill="black"/>
    <path d="M126.148 122.427C126.111 122.427 126.038 115.546 126.038 107.055C126.038 98.5639 126.075 91.6831 126.148 91.6831C126.184 91.6831 126.258 98.5639 126.258 107.055C126.258 115.546 126.221 122.427 126.148 122.427Z"
          fill="#263238"/>
    <path d="M134.236 113.46H129.698V118.584H134.236V113.46Z" fill="#F5F5F5"/>
    <path d="M84.9727 82.9355L74.4319 91.7927H84.9727V82.9355Z" fill="#FA8C16"/>
    <g opacity="0.4">
        <path opacity="0.4" d="M84.9727 82.9355L74.4319 91.7927H84.9727V82.9355Z" fill="black"/>
    </g>
    <path d="M137.787 122.5H78.7874V167.994H137.787V122.5Z" fill="#FA8C16"/>
    <path opacity="0.3" d="M137.787 122.5H78.7874V167.994H137.787V122.5Z" fill="black"/>
    <path d="M123 167.701C122.963 167.701 122.89 157.563 122.89 145.046C122.89 132.528 122.927 122.39 123 122.39C123.073 122.39 123.11 132.528 123.11 145.046C123.11 157.563 123.073 167.701 123 167.701Z"
          fill="#263238"/>
    <path d="M132.809 157.672H128.271V162.796H132.809V157.672Z" fill="#F5F5F5"/>
    <path d="M103.492 122.646H96.7944V132.346H103.492V122.646Z" fill="#263238"/>
    <path d="M103.492 158.185H96.7944V167.884H103.492V158.185Z" fill="#263238"/>
    <path d="M137.274 122.5C137.274 122.5 137.238 122.5 137.128 122.5C137.018 122.5 136.872 122.5 136.689 122.5C136.286 122.5 135.7 122.5 134.968 122.5C133.468 122.5 131.345 122.5 128.71 122.537C123.403 122.537 116.119 122.537 108.031 122.573C99.9422 122.573 92.6588 122.537 87.3518 122.537C84.7166 122.537 82.5572 122.5 81.0932 122.5C80.3612 122.5 79.7756 122.5 79.373 122.5C79.19 122.5 79.0436 122.5 78.9338 122.5C78.824 122.5 78.7874 122.5 78.7874 122.5C78.7874 122.5 78.824 122.5 78.9338 122.5C79.0436 122.5 79.19 122.5 79.373 122.5C79.7756 122.5 80.3612 122.5 81.0932 122.5C82.5938 122.5 84.7166 122.5 87.3518 122.463C92.6588 122.463 99.9422 122.463 108.031 122.427C116.083 122.427 123.403 122.463 128.71 122.463C131.345 122.463 133.504 122.5 134.968 122.5C135.7 122.5 136.286 122.5 136.689 122.5C136.872 122.5 137.018 122.5 137.128 122.5C137.238 122.5 137.274 122.5 137.274 122.5Z"
          fill="#263238"/>
    <path d="M36.1484 43.7371C35.7092 43.6273 33.6962 43.1149 29.7068 42.1633H29.7434C28.316 43.0783 26.4128 43.7737 24.1802 43.8103C23.0822 43.8103 21.911 43.6639 20.7398 43.2979C19.5686 42.9319 18.434 42.3463 17.3726 41.5045C15.2864 39.8941 13.676 37.3321 13.31 34.3309C13.127 32.8669 13.2368 31.2931 13.7126 29.8291C14.1884 28.3651 14.9936 26.9377 16.055 25.7665C16.604 25.1443 17.2628 24.6319 17.9216 24.1561C18.251 23.9365 18.617 23.7169 18.983 23.5339L19.532 23.2777L19.7882 23.1313L20.081 23.0215C21.5816 22.4359 23.1554 22.2163 24.6926 22.3261C26.2298 22.4359 27.6938 22.8385 28.9748 23.5339C30.2558 24.1927 31.3538 25.1077 32.2322 26.1691C33.1106 27.1939 33.7328 28.3651 34.1354 29.5363C34.538 30.7075 34.721 31.8787 34.721 33.0133C34.721 35.2459 34.0256 37.1857 33.1838 38.5765V38.5033C35.0504 41.7241 35.9654 43.3711 36.1484 43.7371C35.9288 43.3711 35.0138 41.7607 33.1472 38.5765V38.5399V38.5033C33.989 37.1125 34.6478 35.2093 34.6478 33.0133C34.6478 31.9153 34.4282 30.7441 34.0622 29.6095C33.6596 28.4749 33.0374 27.3037 32.1956 26.3155C31.3538 25.2907 30.2558 24.4123 29.0114 23.7535C27.767 23.0947 26.303 22.6921 24.8024 22.5823C23.3018 22.4725 21.728 22.6921 20.264 23.2777L19.9712 23.3875L19.715 23.5339L19.166 23.7169C18.8 23.8999 18.4706 24.1195 18.1412 24.3391C17.4824 24.8149 16.8602 25.3273 16.3112 25.9129C15.2498 27.0841 14.4446 28.4383 14.0054 29.9023C13.5662 31.3663 13.4198 32.8669 13.6028 34.3309C13.9322 37.2589 15.5426 39.7843 17.5556 41.3581C18.5804 42.1633 19.715 42.7489 20.8496 43.1149C21.9842 43.4809 23.1554 43.6273 24.2168 43.6273C26.4128 43.5907 28.2794 42.8953 29.7068 42.0169H29.7434H29.78C33.6962 43.0783 35.7458 43.6273 36.1484 43.7371Z"
          fill="#263238"/>
    <path d="M23.1921 28.2921L23.5215 33.6723C23.5581 34.1115 23.8875 34.4775 24.3267 34.4775C24.8025 34.5141 25.2051 34.1481 25.2417 33.7089L25.8273 28.3287C25.8639 27.9261 25.5345 27.5601 25.1319 27.5601H23.8143C23.4483 27.5601 23.1555 27.8895 23.1921 28.2921Z"
          fill="#FA8C16"/>
    <path d="M25.754 37.4786C25.5344 38.174 24.8024 38.54 24.107 38.3204C23.4116 38.1008 23.0456 37.3688 23.2652 36.6734C23.4848 35.978 24.2168 35.612 24.9122 35.8316C25.6076 36.0512 25.9736 36.8198 25.754 37.4786Z"
          fill="#FA8C16"/>
</svg>
