<svg width="48" height="48" viewBox="0 0 48 48" fill="none" xmlns="http://www.w3.org/2000/svg">
<path d="M24 44C35.0457 44 44 35.0457 44 24C44 12.9543 35.0457 4 24 4C12.9543 4 4 12.9543 4 24C4 35.0457 12.9543 44 24 44Z" fill="#1890FF"/>
<path d="M24.3529 33.4199C26.4203 33.4199 26.8022 31.4634 26.6875 29.4479L26.372 22.3152C25.9245 20.0866 22.7802 20.0919 22.3338 22.3152L22.0183 29.4479C21.9035 31.6223 22.2849 33.4199 24.3529 33.4199Z" fill="white"/>
<path d="M24.3529 18.6452C25.6524 18.6452 26.7059 17.6053 26.7059 16.3226C26.7059 15.0399 25.6524 14 24.3529 14C23.0534 14 22 15.0399 22 16.3226C22 17.6053 23.0534 18.6452 24.3529 18.6452Z" fill="white"/>
</svg>
