<svg width="65" height="64" viewBox="0 0 65 64" fill="none" xmlns="http://www.w3.org/2000/svg">
    <defs>
        <linearGradient id="paint0_linear_2713_69887" x1="34.1289" y1="13.7129" x2="34.1289" y2="51.8081"
                        gradientUnits="userSpaceOnUse">
            <stop stop-color="#F79D64"/>
            <stop offset="1" stop-color="#F37322"/>
        </linearGradient>
        <clipPath id="clip0_2713_69887">
            <rect width="12" height="12" fill="white" transform="translate(29.625 34)"/>
        </clipPath>
    </defs>
    <circle cx="32.5" cy="32" r="32" fill="#FEF1E9"/>
    <path d="M21.6119 48.4599L23.7888 24.8736V17.0611C23.7888 16.7709 23.8976 16.4808 24.1154 16.2798L26.2923 14.0477C26.7059 13.6013 27.4023 13.6013 27.816 14.0477L29.231 15.4762L30.646 14.0477C31.0596 13.6013 31.7561 13.6013 32.1698 14.0477L33.5847 15.4762L34.9998 14.0477C35.4134 13.6013 36.1098 13.6013 36.5235 14.0477L37.9385 15.4762L39.3535 14.0477C39.7671 13.6013 40.4636 13.6013 40.8772 14.0477L42.2922 15.4762L43.7072 14.0477C44.1208 13.6013 44.8173 13.6013 45.231 14.0477L47.4078 16.2798C47.6255 16.4808 47.7344 16.7709 47.7344 17.0611V46.2278C47.7344 49.3081 45.2963 51.8081 42.2922 51.8081H20.5235L21.6119 48.4599Z"
          fill="url(#paint0_linear_2713_69887)"/>
    <path d="M35.0685 22.9082H41.5991C42.2007 22.9082 42.6875 23.4074 42.6875 24.0243C42.6875 24.6412 42.2007 25.1403 41.5991 25.1403H35.0685C34.4668 25.1403 33.98 24.6412 33.98 24.0243C33.98 23.4074 34.4668 22.9082 35.0685 22.9082ZM35.0685 27.3725H41.5991C42.2007 27.3725 42.6875 27.8717 42.6875 28.4886C42.6875 29.1055 42.2007 29.6046 41.5991 29.6046H35.0685C34.4668 29.6046 33.98 29.1055 33.98 28.4886C33.98 27.8717 34.4668 27.3725 35.0685 27.3725ZM30.7147 22.9082C31.3158 22.9082 31.8031 23.4078 31.8031 24.0243C31.8031 24.6406 31.3158 25.1403 30.7147 25.1403C30.1136 25.1403 29.6263 24.6406 29.6263 24.0243C29.6263 23.4078 30.1136 22.9082 30.7147 22.9082ZM30.7147 27.3725C31.3158 27.3725 31.8031 27.8721 31.8031 28.4886C31.8031 29.1049 31.3158 29.6046 30.7147 29.6046C30.1136 29.6046 29.6263 29.1049 29.6263 28.4886C29.6263 27.872 30.1136 27.3725 30.7147 27.3725Z"
          fill="white"/>
    <path d="M17.5851 26.7722L18.6735 25.6562C19.0871 25.2321 19.7835 25.2321 20.1972 25.6562L20.8504 26.3258C21.264 26.7499 21.9604 26.7499 22.3741 26.3258L23.7891 24.875V48.4613C23.7891 50.2617 22.3843 51.8095 20.5238 51.8095C18.613 51.8095 17.2584 50.1111 17.2584 48.2827V27.5758C17.2584 27.2634 17.3673 26.9955 17.5851 26.7722Z"
          fill="#FBD5BD"/>
    <g clip-path="url(#clip0_2713_69887)">
        <path d="M32.4375 36.3155V35.0548C32.4375 34.9216 32.3623 34.8001 32.2432 34.7403L30.837 34.0372C30.7013 33.9696 30.5379 33.9957 30.4311 34.1031L29.728 34.8062C29.6209 34.9134 29.5945 35.0768 29.6621 35.212L30.3652 36.6183C30.425 36.7374 30.5465 36.8126 30.6797 36.8126H31.9404L34.8793 39.7515C35.0166 39.8888 35.2391 39.8888 35.3764 39.7515C35.5137 39.6142 35.5137 39.3917 35.3764 39.2544L32.4375 36.3155ZM37.4871 41.3651L36.3707 40.2486C36.2333 40.1113 36.0109 40.1113 35.8735 40.2486C35.7362 40.386 35.7362 40.6085 35.8735 40.7458L36.99 41.8623C37.1273 41.9996 37.3498 41.9996 37.4871 41.8623C37.6245 41.7249 37.6245 41.5024 37.4871 41.3651Z"
              fill="white"/>
        <path d="M38.3417 38.7744C38.6102 38.8719 38.8855 38.9214 39.164 38.9214C40.5208 38.9214 41.6249 37.8173 41.6249 36.4605C41.6249 35.4268 40.9657 34.4981 39.9848 34.1489C39.8791 34.1115 39.7582 34.1273 39.6645 34.1929C39.5711 34.2588 39.5155 34.3659 39.5155 34.4802V36.1089H38.8124V34.4802C38.8124 34.3659 38.7568 34.2588 38.6634 34.1928C38.5693 34.1269 38.4495 34.1115 38.3431 34.1489C37.3622 34.498 36.7031 35.4267 36.7031 36.4605C36.7031 36.7389 36.7525 37.0142 36.85 37.2827L32.9082 41.2246C32.6397 41.1271 32.3643 41.0776 32.0859 41.0776C30.7291 41.0776 29.625 42.1817 29.625 43.5385C29.625 44.5722 30.2842 45.5009 31.265 45.8501C31.3722 45.8892 31.492 45.8724 31.5854 45.8061C31.6787 45.7402 31.7344 45.6331 31.7344 45.5188V43.8901H32.4375V45.5188C32.4375 45.6331 32.4931 45.7402 32.5865 45.8061C33.0172 46.1089 34.5468 45.093 34.5468 43.5385C34.5468 43.2601 34.4974 42.9847 34.3999 42.7163L38.3417 38.7744ZM41.1267 43.5155L37.9605 40.8482C37.8215 40.7311 37.6152 40.7397 37.4857 40.8688L36.4942 41.8603C36.3651 41.9894 36.3562 42.1957 36.4736 42.3351L39.1454 45.5064C39.4191 45.8195 39.8104 45.9994 40.2186 45.9994C40.9942 45.9994 41.6249 45.3688 41.6249 44.5932C41.6249 44.185 41.445 43.7936 41.1267 43.5155Z"
              fill="white"/>
    </g>

</svg>
