<svg width="65" height="64" viewBox="0 0 65 64" fill="none" xmlns="http://www.w3.org/2000/svg">
    <defs>
        <linearGradient id="paint0_linear_2713_72265" x1="32.5" y1="12" x2="32.5" y2="52"
                        gradientUnits="userSpaceOnUse">
            <stop stop-color="#619EDA"/>
            <stop offset="0.284375" stop-color="#619EDA"/>
            <stop offset="1" stop-color="#0064C5"/>
        </linearGradient>
    </defs>
    <circle cx="32.5" cy="32" r="32" fill="#E8F4FF"/>
    <path d="M31.549 23.3105C31.7698 23.6161 32.1235 23.7969 32.5 23.7969C32.8765 23.7969 33.2302 23.6161 33.451 23.3105L37.0673 18.623C37.3237 18.2659 37.3603 17.7955 37.1601 17.403C36.9586 17.0116 36.5558 16.7656 36.1163 16.7656H34.8438V13.1719C34.8438 12.5241 34.3196 12 33.6719 12H31.3281C30.6804 12 30.1562 12.5241 30.1562 13.1719V16.7656H28.8837C28.4442 16.7656 28.0414 17.0116 27.84 17.403C27.6398 17.7955 27.6763 18.2659 27.9327 18.623L31.549 23.3105ZM19.6094 32V50.8281C19.6094 51.4759 20.1335 52 20.7812 52H44.2188C44.8665 52 45.3906 51.4759 45.3906 50.8281V32H19.6094Z"
          fill="url(#paint0_linear_2713_72265)"/>
    <path d="M49.735 31.1715L45.0475 26.484C44.8278 26.2642 44.5302 26.1406 44.219 26.1406H20.7815C20.4702 26.1406 20.1726 26.2642 19.953 26.484L15.2655 31.1715C14.9301 31.5068 14.8294 32.0103 15.0114 32.4487C15.1922 32.887 15.6202 33.1719 16.094 33.1719H48.9065C49.3802 33.1719 49.8083 32.887 49.989 32.4486C50.1711 32.0103 50.0703 31.5068 49.735 31.1715ZM27.8127 44.9688H25.469C24.8212 44.9688 24.2971 45.4929 24.2971 46.1406C24.2971 46.7884 24.8212 47.3125 25.469 47.3125H27.8127C28.4605 47.3125 28.9846 46.7884 28.9846 46.1406C28.9846 45.4929 28.4605 44.9688 27.8127 44.9688Z"
          fill="#A9D5FF"/>

</svg>
