<svg width="21" height="20" viewBox="0 0 21 20" fill="none" xmlns="http://www.w3.org/2000/svg">
    <path fill-rule="evenodd" clip-rule="evenodd"
          d="M8.43038 4.59678C7.94714 5.02633 7.76423 5.49758 7.76423 5.73447V13.8468C7.76423 14.1171 7.54506 14.3363 7.27469 14.3363C7.00433 14.3363 6.78516 14.1171 6.78516 13.8468V5.73447C6.78516 5.13215 7.16171 4.41453 7.77992 3.86501C8.41852 3.29737 9.3554 2.86719 10.5616 2.86719C11.8196 2.86719 12.7443 3.36249 13.3525 3.96052C13.6538 4.25676 13.8777 4.57822 14.0281 4.87773C14.1732 5.16668 14.2681 5.47194 14.2681 5.73447V10.49C14.2681 10.7603 14.0489 10.9795 13.7785 10.9795C13.5082 10.9795 13.289 10.7603 13.289 10.49V5.73447C13.289 5.6823 13.2615 5.53298 13.1531 5.3171C13.05 5.11178 12.8893 4.87814 12.666 4.65862C12.2252 4.22512 11.5414 3.84626 10.5616 3.84626C9.5998 3.84626 8.89324 4.18535 8.43038 4.59678Z"
          fill="#004588"/>
    <path fill-rule="evenodd" clip-rule="evenodd"
          d="M9.44266 10.1406C9.71302 10.1406 9.9322 10.3598 9.9322 10.6302V14.6863C9.9322 14.7906 10.0332 15.0491 10.3593 15.3085C10.6638 15.5507 11.0999 15.7353 11.6106 15.7353C12.1315 15.7353 12.5682 15.5616 12.8673 15.3305C13.1807 15.0883 13.289 14.8319 13.289 14.6863V12.1687C13.289 11.8983 13.5082 11.6792 13.7785 11.6792C14.0489 11.6792 14.2681 11.8983 14.2681 12.1687V14.6863C14.2681 15.2401 13.9218 15.7529 13.466 16.1052C12.9958 16.4685 12.3485 16.7144 11.6106 16.7144C10.8625 16.7144 10.2146 16.4444 9.74983 16.0747C9.30671 15.7222 8.95312 15.2115 8.95312 14.6863V10.6302C8.95312 10.3598 9.1723 10.1406 9.44266 10.1406Z"
          fill="#004588"/>
    <path fill-rule="evenodd" clip-rule="evenodd"
          d="M9.55467 4.93759C9.89247 4.7214 10.2871 4.68555 10.5616 4.68555C11.2298 4.68555 12.1001 5.17103 12.1001 6.15415V14.1266C12.1001 14.397 11.881 14.6161 11.6106 14.6161C11.3402 14.6161 11.1211 14.397 11.1211 14.1266V6.15415C11.1211 5.9995 11.0577 5.88842 10.9579 5.80601C10.8485 5.7156 10.6977 5.66462 10.5616 5.66462C10.3466 5.66462 10.1817 5.6987 10.0824 5.76224C10.0405 5.7891 10.009 5.82182 9.98504 5.86897C9.95985 5.91854 9.9322 6.00564 9.9322 6.15415V8.67177C9.9322 8.94213 9.71302 9.1613 9.44266 9.1613C9.1723 9.1613 8.95312 8.94213 8.95312 8.67177V6.15415C8.95312 5.59091 9.17698 5.17931 9.55467 4.93759Z"
          fill="#004588"/>
    <path fill-rule="evenodd" clip-rule="evenodd"
          d="M15.9447 12.5176C16.215 12.5176 16.4342 12.7368 16.4342 13.0071C16.4342 15.6936 15.2804 17.2167 13.9264 18.0409C12.6102 18.842 11.1601 18.9515 10.5598 18.9515L10.5374 18.9515C10.1305 18.9515 9.47069 18.9515 9.0107 18.8749C8.74401 18.8304 8.56385 18.5782 8.6083 18.3115C8.65275 18.0448 8.90497 17.8647 9.17165 17.9091C9.54232 17.9709 10.1253 17.9724 10.5598 17.9724C11.0784 17.9724 12.3208 17.872 13.4173 17.2046C14.476 16.5601 15.4551 15.3559 15.4551 13.0071C15.4551 12.7368 15.6743 12.5176 15.9447 12.5176Z"
          fill="#004588"/>
    <path fill-rule="evenodd" clip-rule="evenodd"
          d="M5.10672 8.46191C5.37709 8.46191 5.59626 8.68109 5.59626 8.95145V14.2664C5.59626 15.307 6.36764 16.7543 8.10289 17.5255C8.34995 17.6354 8.46122 17.9246 8.35141 18.1717C8.24161 18.4188 7.95231 18.53 7.70525 18.4202C5.66408 17.513 4.61719 15.7435 4.61719 14.2664V8.95145C4.61719 8.68109 4.83636 8.46191 5.10672 8.46191Z"
          fill="#004588"/>
    <path fill-rule="evenodd" clip-rule="evenodd"
          d="M8.17478 2.49107C7.57252 2.79532 7.05716 3.2534 6.35405 3.92135C6.15803 4.10757 5.84818 4.09962 5.66197 3.90361C5.47575 3.7076 5.4837 3.39774 5.67971 3.21153C6.37527 2.55074 6.98584 1.99478 7.73331 1.61718C8.49512 1.23233 9.36282 1.04883 10.5626 1.04883C12.8307 1.04883 14.3131 1.89208 15.2227 2.92889C16.113 3.94355 16.437 5.12439 16.437 5.80432V11.1193C16.437 11.3896 16.2178 11.6088 15.9475 11.6088C15.6771 11.6088 15.4579 11.3896 15.4579 11.1193V5.80432C15.4579 5.36531 15.2225 4.41317 14.4868 3.57459C13.7705 2.75816 12.5604 2.0279 10.5626 2.0279C9.46849 2.0279 8.76268 2.19407 8.17478 2.49107Z"
          fill="#004588"/>
    <path d="M4.61719 6.08426C4.61719 5.8139 4.83636 5.59473 5.10672 5.59473C5.37709 5.59473 5.59626 5.8139 5.59626 6.08426V7.2032C5.59626 7.47357 5.37709 7.69274 5.10672 7.69274C4.83636 7.69274 4.61719 7.47357 4.61719 7.2032V6.08426Z"
          fill="#004588"/>
</svg>
