<svg width="57" height="56" viewBox="0 0 57 56" fill="none" xmlns="http://www.w3.org/2000/svg">
<circle cx="28.1665" cy="28" r="28" fill="#FFF7E6"/>
<path d="M16.282 20.8693H13.4297V14.6893C13.4297 14.502 13.4665 14.3166 13.5382 14.1435C13.6098 13.9705 13.7149 13.8133 13.8473 13.6808C13.9798 13.5484 14.137 13.4433 14.31 13.3717C14.4831 13.3 14.6685 13.2632 14.8558 13.2632H21.0358V16.1155H16.282V20.8693Z" fill="#FA8C16"/>
<path d="M40.0531 20.8693H42.9054V14.6893C42.9055 14.502 42.8686 14.3166 42.7969 14.1435C42.7253 13.9705 42.6202 13.8133 42.4878 13.6808C42.3554 13.5484 42.1981 13.4433 42.0251 13.3717C41.852 13.3 41.6666 13.2632 41.4793 13.2632H35.2993V16.1155H40.0531V20.8693Z" fill="#FA8C16"/>
<path d="M16.282 35.1313H13.4297V41.3113C13.4297 41.4986 13.4665 41.6841 13.5382 41.8571C13.6098 42.0302 13.7149 42.1874 13.8473 42.3198C13.9798 42.4523 14.137 42.5573 14.31 42.629C14.4831 42.7006 14.6685 42.7375 14.8558 42.7375H21.0358V39.8852H16.282V35.1313Z" fill="#FA8C16"/>
<path d="M40.0531 35.1313H42.9054V41.3113C42.9055 41.4986 42.8686 41.6841 42.7969 41.8571C42.7253 42.0302 42.6202 42.1874 42.4878 42.3198C42.3554 42.4523 42.1981 42.5573 42.0251 42.629C41.852 42.7006 41.6666 42.7375 41.4793 42.7375H35.2993V39.8852H40.0531V35.1313Z" fill="#FA8C16"/>
<path d="M18.1831 18.0164H24.8385V24.6717H18.1831V18.0164Z" fill="#FA8C16"/>
<path d="M20.0854 19.9189H22.9377V22.7712H20.0854V19.9189Z" fill="#FFD591"/>
<path d="M18.1831 31.3279H24.8385V37.9832H18.1831V31.3279Z" fill="#FA8C16"/>
<path d="M20.0854 33.229H22.9377V36.0813H20.0854V33.229Z" fill="#FFD591"/>
<path d="M31.4946 18.0164H38.15V24.6717H31.4946V18.0164Z" fill="#FA8C16"/>
<path d="M33.397 19.9189H36.2493V22.7712H33.397V19.9189Z" fill="#FFD591"/>
<path d="M28.1661 29.4255H18.1831V26.5732H26.74V18.0164H29.5923V27.9994C29.5923 28.1867 29.5554 28.3721 29.4838 28.5452C29.4121 28.7182 29.3071 28.8755 29.1746 29.0079C29.0422 29.1403 28.885 29.2454 28.7119 29.317C28.5389 29.3887 28.3534 29.4256 28.1661 29.4255V29.4255Z" fill="#FA8C16"/>
<path d="M36.7242 37.9824H26.7412V35.1301H35.2981V26.5732H38.1504V36.5563C38.1504 36.7436 38.1136 36.929 38.0419 37.1021C37.9702 37.2751 37.8652 37.4323 37.7327 37.5648C37.6003 37.6972 37.4431 37.8023 37.27 37.8739C37.097 37.9456 36.9115 37.9825 36.7242 37.9824V37.9824Z" fill="#FA8C16"/>
<path d="M31.4946 31.3279H33.3962V33.2294H31.4946V31.3279Z" fill="#FA8C16"/>
<path d="M31.4946 26.5732H33.3962V28.4748H31.4946V26.5732Z" fill="#FA8C16"/>
<path d="M26.7412 31.3279H28.6427V33.2294H26.7412V31.3279Z" fill="#FA8C16"/>
</svg>
