<svg width="57" height="56" viewBox="0 0 57 56" fill="none" xmlns="http://www.w3.org/2000/svg">
    <defs>
        <linearGradient id="paint0_linear_19182_21531" x1="28.4014" y1="8.22721" x2="28.3779"
                y2="45.1938" gradientUnits="userSpaceOnUse">
            <stop stop-color="#FFDB95" />
            <stop offset="0.374593" stop-color="#FFA768" />
            <stop offset="1" stop-color="#FF6B00" />
        </linearGradient>
    </defs>
    <circle cx="28.1665" cy="28" r="28" fill="#FFF7E6" />
    <path d="M20.6367 10.8079H41.1152L36.87 16.8254V40.8956C36.87 43.1456 35.3351 45.1938 33.2353 45.1938C31.8136 45.1938 29.7138 44.3757 28.4671 43.1711H15.781V15.8533C15.781 13.0578 17.9682 10.8079 20.6367 10.8079Z"
            fill="url(#paint0_linear_19182_21531)" />
    <path d="M27.1283 31.363H21.1585C20.6086 31.363 20.1636 31.8136 20.1636 32.3704C20.1636 32.9273 20.6086 33.3778 21.1585 33.3778H27.1283C27.6783 33.3778 28.1233 32.9273 28.1233 32.3704C28.1233 31.8136 27.6783 31.363 27.1283 31.363ZM27.1283 35.3926H21.1585C20.6086 35.3926 20.1636 35.8432 20.1636 36.4C20.1636 36.9569 20.6086 37.4074 21.1585 37.4074H27.1283C27.6783 37.4074 28.1233 36.9569 28.1233 36.4C28.1233 35.8432 27.6783 35.3926 27.1283 35.3926ZM31.1082 31.363C30.5587 31.363 30.1132 31.814 30.1132 32.3704C30.1132 32.9268 30.5587 33.3778 31.1082 33.3778C31.6577 33.3778 32.1032 32.9268 32.1032 32.3704C32.1032 31.814 31.6577 31.363 31.1082 31.363ZM31.1082 35.3926C30.5587 35.3926 30.1132 35.8436 30.1132 36.4C30.1132 36.9564 30.5587 37.4074 31.1082 37.4074C31.6577 37.4074 32.1032 36.9564 32.1032 36.4C32.1032 35.8436 31.6577 35.3926 31.1082 35.3926Z"
            fill="white" />
    <path d="M29.0215 41.9233C29.3806 43.7857 30.9968 45.1938 32.9272 45.1938H14.0272C12.3886 45.1938 10.9745 43.8538 10.9745 42.1731C10.9745 41.6053 11.4234 41.1511 11.9846 41.1511H28.0787C28.5277 41.1511 28.9317 41.4464 29.0215 41.9233ZM44.936 14.8279V15.8272C44.936 16.395 44.4871 16.8493 43.9259 16.8493H36.9002V14.8279C36.9002 12.6248 38.6959 10.8079 40.8732 10.8079C43.073 10.8079 44.936 12.6021 44.936 14.8279Z"
            fill="#FFA940" />
    <path d="M32.2606 27.578L29.4545 24.783C30.2101 23.6412 30.5148 22.2595 30.3095 20.9058C30.1041 19.5521 29.4033 18.3229 28.343 17.4566C27.2827 16.5903 25.9384 16.1487 24.571 16.2174C23.2035 16.2861 21.9103 16.8602 20.9421 17.8284C19.974 18.7965 19.3999 20.0897 19.3312 21.4572C19.2625 22.8247 19.7041 24.1689 20.5704 25.2292C21.4367 26.2895 22.6658 26.9903 24.0195 27.1957C25.3732 27.4011 26.755 27.0964 27.8967 26.3407L30.6918 29.1468C30.7945 29.2504 30.9167 29.3326 31.0513 29.3886C31.186 29.4447 31.3304 29.4736 31.4762 29.4736C31.622 29.4736 31.7664 29.4447 31.9011 29.3886C32.0357 29.3326 32.1579 29.2504 32.2606 29.1468C32.3641 29.0441 32.4463 28.9219 32.5024 28.7873C32.5585 28.6527 32.5874 28.5083 32.5874 28.3624C32.5874 28.2166 32.5585 28.0722 32.5024 27.9376C32.4463 27.8029 32.3641 27.6807 32.2606 27.578ZM22.5054 24.0759C22.0415 23.6126 21.7255 23.022 21.5972 22.379C21.469 21.736 21.5344 21.0694 21.7851 20.4635C22.0359 19.8576 22.4607 19.3398 23.0058 18.9754C23.5509 18.611 24.1919 18.4166 24.8476 18.4166C25.5033 18.4166 26.1442 18.611 26.6893 18.9754C27.2345 19.3398 27.6593 19.8576 27.91 20.4635C28.1607 21.0694 28.2261 21.736 28.0979 22.379C27.9697 23.022 27.6536 23.6126 27.1897 24.0759C26.5574 24.6758 25.7191 25.0102 24.8476 25.0102C23.976 25.0102 23.1377 24.6758 22.5054 24.0759Z"
            fill="white" />
</svg>
