<svg width="56" height="56" viewBox="0 0 56 56" fill="none" xmlns="http://www.w3.org/2000/svg">
    <defs>
        <linearGradient id="paint0_linear_2713_73186" x1="20.2148" y1="20.5209" x2="32.6579" y2="20.5209"
                        gradientUnits="userSpaceOnUse">
            <stop stop-color="#BBDEFB"/>
            <stop offset="1" stop-color="#64B5F6"/>
        </linearGradient>
        <clipPath id="clip0_2713_73186">
            <rect width="16.3333" height="16.3333" fill="white" transform="translate(29.1641 29.166)"/>
        </clipPath>
    </defs>
    <path d="M43.5504 18.2269V45.1043H9.33203V18.2269L10.0004 17.1074H42.8821L43.5504 18.2269Z" fill="#FFC043"/>
    <path d="M43.5536 18.2298V45.1072H26.25V18.2298L26.9183 17.1104H42.8853L43.5536 18.2298Z" fill="#E79C07"/>
    <path d="M43.5504 18.2294H9.33203L14.6665 9.33301H38.216L43.5504 18.2294Z" fill="#FFC043"/>
    <path d="M43.5565 18.2294H24.418L29.7524 9.33301L38.222 9.33301L43.5565 18.2294Z" fill="#E79C07"/>
    <path d="M30.8215 9.33301H22.0512L20.2148 18.2248V31.7114L26.4364 29.6365L32.6579 31.7114V18.2248L30.8215 9.33301Z"
          fill="#FFEAC2"/>
    <mask id="mask0_2713_73186" style="mask-type:alpha" maskUnits="userSpaceOnUse" x="20" y="9" width="13" height="23">
        <path d="M30.8215 9.33301H22.0512L20.2148 18.2248V31.7114L26.4364 29.6365L32.6579 31.7114V18.2248L30.8215 9.33301Z"
              fill="url(#paint0_linear_2713_73186)"/>
    </mask>
    <g mask="url(#mask0_2713_73186)">
        <rect x="26.2383" y="9.33301" width="6.41899" height="22.3784" fill="#FFC043"/>
    </g>
    <ellipse cx="37.3349" cy="36.9551" rx="14.2217" ry="14.2217" fill="#FFEAC2"/>
    <g clip-path="url(#clip0_2713_73186)">
        <path d="M39.2773 30.6016C36.6389 30.6016 34.4922 32.7483 34.4922 35.3867C34.4922 38.0251 36.6389 40.1719 39.2773 40.1719C41.9157 40.1719 44.0625 38.0251 44.0625 35.3867C44.0625 32.7483 41.9157 30.6016 39.2773 30.6016ZM34.8791 39.1088L33.6753 40.3121C33.4884 40.499 33.4884 40.8018 33.6753 40.9887C33.8622 41.1757 34.1651 41.1756 34.352 40.9887L35.5557 39.7854C35.7427 39.5985 35.7427 39.2957 35.5557 39.1088C35.3688 38.9219 35.066 38.9218 34.8791 39.1088Z"
              fill="#FFEAC2"/>
        <path d="M39.2767 29.166C35.8504 29.166 33.056 31.9605 33.056 35.3867C33.056 38.8129 35.8504 41.6074 39.2767 41.6074C42.7029 41.6074 45.4974 38.8129 45.4974 35.3867C45.4974 31.9605 42.7029 29.166 39.2767 29.166ZM39.2767 39.6934C36.9033 39.6934 34.97 37.7601 34.97 35.3867C34.97 33.0133 36.9033 31.0801 39.2767 31.0801C41.6501 31.0801 43.5833 33.0133 43.5833 35.3867C43.5833 37.7601 41.6501 39.6934 39.2767 39.6934ZM33.6747 39.6354C33.4878 39.4485 33.1849 39.4485 32.998 39.6354L29.3042 43.3292C29.1173 43.5161 29.1173 43.819 29.3042 44.0059L30.6575 45.3592C30.8445 45.5461 31.1473 45.5461 31.3342 45.3592L35.028 41.6654C35.2149 41.4785 35.2149 41.1756 35.028 40.9887L33.6747 39.6354Z"
              fill="#FFC043"/>
    </g>

</svg>
