<svg width="184" height="183" viewBox="0 0 184 183" fill="none" xmlns="http://www.w3.org/2000/svg">
    <defs>
        <clipPath id="clip0_505_64809">
            <rect width="183" height="183" fill="white" transform="translate(0.5)"/>
        </clipPath>
    </defs>
    <g clip-path="url(#clip0_505_64809)">
        <path d="M183.5 139.958H0.5V140.05H183.5V139.958Z" fill="#EBEBEB"/>
        <path d="M132.992 142.864H120.87V142.956H132.992V142.864Z" fill="#EBEBEB"/>
        <path d="M161.877 142.912H146.819V143.003H161.877V142.912Z" fill="#EBEBEB"/>
        <path d="M138.098 145.302H131.074V145.393H138.098V145.302Z" fill="#EBEBEB"/>
        <path d="M83.0948 144.61H64.1836V144.702H83.0948V144.61Z" fill="#EBEBEB"/>
        <path d="M60.9266 144.61H48.3398V144.702H60.9266V144.61Z" fill="#EBEBEB"/>
        <path d="M40.8075 143.066H23.6641V143.157H40.8075V143.066Z" fill="#EBEBEB"/>
        <path d="M87.2415 123.635H16.5706C16.0169 123.634 15.4863 123.413 15.0952 123.021C14.7041 122.629 14.4844 122.098 14.4844 121.545V22.2015C14.4892 21.651 14.711 21.1247 15.1016 20.7368C15.4922 20.3489 16.0201 20.1308 16.5706 20.1299H87.2415C87.7958 20.1299 88.3273 20.3501 88.7193 20.742C89.1112 21.1339 89.3314 21.6655 89.3314 22.2198V121.545C89.3314 122.099 89.1112 122.631 88.7193 123.023C88.3273 123.415 87.7958 123.635 87.2415 123.635V123.635ZM16.5706 20.2031C16.0412 20.2041 15.5339 20.415 15.1599 20.7897C14.7859 21.1644 14.5759 21.6721 14.5759 22.2015V121.545C14.5759 122.074 14.7859 122.582 15.1599 122.957C15.5339 123.331 16.0412 123.542 16.5706 123.543H87.2415C87.7712 123.542 88.2789 123.331 88.6535 122.957C89.0281 122.582 89.2389 122.075 89.2399 121.545V22.2015C89.2389 21.6718 89.0281 21.164 88.6535 20.7895C88.2789 20.4149 87.7712 20.2041 87.2415 20.2031H16.5706Z"
              fill="#EBEBEB"/>
        <path d="M166.412 123.635H95.7373C95.1833 123.634 94.6524 123.413 94.2606 123.022C93.8689 122.63 93.6484 122.099 93.6475 121.545V22.2015C93.6532 21.6507 93.8759 21.1244 94.2671 20.7366C94.6582 20.3488 95.1865 20.1308 95.7373 20.1299H166.412C166.962 20.1318 167.489 20.3503 167.878 20.7381C168.268 21.1259 168.49 21.6516 168.494 22.2015V121.545C168.494 122.098 168.275 122.628 167.885 123.02C167.495 123.412 166.965 123.633 166.412 123.635V123.635ZM95.7373 20.2031C95.2076 20.2041 94.6999 20.4149 94.3253 20.7895C93.9508 21.164 93.7399 21.6718 93.739 22.2015V121.545C93.7399 122.075 93.9508 122.582 94.3253 122.957C94.6999 123.331 95.2076 123.542 95.7373 123.543H166.412C166.942 123.542 167.449 123.331 167.824 122.957C168.198 122.582 168.409 122.075 168.41 121.545V22.2015C168.409 21.6718 168.198 21.164 167.824 20.7895C167.449 20.4149 166.942 20.2041 166.412 20.2031H95.7373Z"
              fill="#EBEBEB"/>
        <path d="M64.2096 13.9592H13.2295V113.416H64.2096V13.9592Z" fill="#F5F5F5"/>
        <path d="M37.8319 113.42H24.5352V53.9959L37.8319 49.6515V113.42Z" fill="#EBEBEB"/>
        <path d="M48.9325 113.42H35.6357V68.2296L48.9325 63.8852V113.42Z" fill="#E6E6E6"/>
        <path d="M47.3441 66.967H44.1709V56.1846L47.3441 55.1488V66.967Z" fill="#E6E6E6"/>
        <path d="M117.382 13.9592H66.4023V113.416H117.382V13.9592Z" fill="#F5F5F5"/>
        <path d="M81.3681 78.0934H66.4023V113.42H81.3681V78.0934Z" fill="#E6E6E6"/>
        <path d="M170.774 13.9592H119.794V113.416H170.774V13.9592Z" fill="#F5F5F5"/>
        <path d="M159.67 113.42H148.851V41.9142L159.67 37.5661V113.42Z" fill="#EBEBEB"/>
        <path d="M170.77 113.42H157.474V68.2296L170.77 63.8852V113.42Z" fill="#E6E6E6"/>
        <path d="M123.11 113.416H149.704V78.2837L123.11 74.9055V113.416Z" fill="#E6E6E6"/>
        <path d="M169.186 66.967H167.598V56.1846L169.186 55.1488V66.967Z" fill="#E6E6E6"/>
        <path d="M163.996 69.5618H162.411V58.7795L163.996 57.74V69.5618Z" fill="#E6E6E6"/>
        <path d="M21.2013 83.8944H27.2586V113.42H17.2559V87.8399C17.2559 86.7935 17.6715 85.7899 18.4115 85.05C19.1514 84.3101 20.1549 83.8944 21.2013 83.8944V83.8944Z"
              fill="#EBEBEB"/>
        <path d="M64.2094 84.9302H50.9199V113.42H64.2094V84.9302Z" fill="#EBEBEB"/>
        <path d="M94.6576 89.3442L81.3682 84.9302V113.42H94.6576V89.3442Z" fill="#EBEBEB"/>
        <path d="M99.6898 89.3442L86.4004 84.9302V113.42H99.6898V89.3442Z" fill="#E6E6E6"/>
        <path d="M99.6895 84.8205L112.979 80.4066V113.42H99.6895V84.8205Z" fill="#F0F0F0"/>
        <path opacity="0.5" d="M41.0715 113.416H27.3721L55.609 13.9592H69.3084L41.0715 113.416Z" fill="white"/>
        <path opacity="0.5" d="M82.1359 113.416H68.4365L96.6698 13.9592H110.373L82.1359 113.416Z" fill="white"/>
        <path opacity="0.5" d="M99.2834 113.416H85.584L113.821 13.9592H127.52L99.2834 113.416Z" fill="white"/>
        <path opacity="0.5" d="M132.26 113.416H125.412L153.649 13.9592H160.497L132.26 113.416Z" fill="white"/>
        <path d="M41.0674 121.878C45.0202 100.679 55.4365 90.7313 64.3011 85.6659C55.8099 93.6959 50.0344 121.479 41.0674 121.878Z"
              fill="#FAFAFA"/>
        <path d="M32.4042 120.209C29.4762 104.229 22.438 97.9782 16.4795 95.321C22.2294 100.35 26.4384 121.216 32.4042 120.209Z"
              fill="#FAFAFA"/>
        <path d="M37.5213 124.44C36.394 101.455 27.6393 91.3645 19.7666 86.5187C26.9109 94.6658 28.9532 124.751 37.5213 124.44Z"
              fill="#FAFAFA"/>
        <path d="M37.5205 122.467C39.3505 99.3726 49.1154 88.5646 57.7969 83.0782C49.8254 91.8037 46.8169 122.079 37.5205 122.467Z"
              fill="#FAFAFA"/>
        <path d="M38.9632 126.08C41.8912 102.355 35.4166 88.0595 28.8506 79.4658C34.1722 91.0388 30.8489 122.361 38.9632 126.08Z"
              fill="#FAFAFA"/>
        <path d="M48.0801 118.862C55.4696 105.042 64.7404 101.748 71.8701 101.411C64.3268 104.032 54.2216 121.944 48.0801 118.862Z"
              fill="#FAFAFA"/>
        <path d="M46.5469 119.386C51.2061 103.724 60.0267 97.0595 67.2734 93.9778C60.0889 99.3434 53.5265 119.825 46.5469 119.386Z"
              fill="#FAFAFA"/>
        <path d="M38.3699 126.156C46.3341 101.594 42.7363 86.4491 37.8539 77.2259C40.8294 89.4979 30.8779 121.951 38.3699 126.156Z"
              fill="#FAFAFA"/>
        <path d="M24.8574 117.325V132.777C24.8574 136.727 31.9834 139.958 40.6979 139.958C49.4087 139.958 56.5384 136.727 56.5384 132.777V117.325H24.8574Z"
              fill="#F5F5F5"/>
        <path d="M146.9 127.536C146.025 112.959 139.748 106.118 134.115 102.648C139.254 108.157 140.806 127.269 146.9 127.536Z"
              fill="#E0E0E0"/>
        <path d="M152.99 126.398C156.365 115.418 161.738 111.106 166.049 109.276C161.675 112.728 156.991 127.086 152.99 126.398Z"
              fill="#E0E0E0"/>
        <path d="M149.122 129.308C151.878 113.504 158.744 106.564 164.556 103.234C158.978 108.83 154.952 129.516 149.122 129.308Z"
              fill="#E0E0E0"/>
        <path d="M149.294 127.95C150.026 112.065 144.279 104.636 138.808 100.866C143.514 106.872 142.958 127.683 149.294 127.95Z"
              fill="#E0E0E0"/>
        <path d="M147.998 130.431C148.038 114.119 153.711 104.288 158.952 98.3771C154.312 106.338 153.872 127.873 147.998 130.431Z"
              fill="#E0E0E0"/>
        <path d="M142.38 125.468C138.504 115.952 132.439 113.698 127.586 113.467C132.523 115.268 137.9 127.588 142.38 125.468Z"
              fill="#E0E0E0"/>
        <path d="M143.375 125.831C141.545 115.059 136.074 110.488 131.378 108.358C135.832 112.047 138.559 126.131 143.375 125.831Z"
              fill="#E0E0E0"/>
        <path d="M148.393 130.486C145.059 113.595 148.832 103.183 152.972 96.8435C149.876 105.276 153.876 127.591 148.393 130.486Z"
              fill="#E0E0E0"/>
        <path d="M157.609 124.44V135.054C157.609 137.766 152.716 139.984 146.735 139.984C140.755 139.984 135.865 137.766 135.865 135.054V124.44H157.609Z"
              fill="#F5F5F5"/>
        <path d="M91.9999 156.487C131.192 156.487 162.964 154.632 162.964 152.344C162.964 150.056 131.192 148.201 91.9999 148.201C52.8077 148.201 21.0361 150.056 21.0361 152.344C21.0361 154.632 52.8077 156.487 91.9999 156.487Z"
              fill="#F5F5F5"/>
        <path d="M98.2215 47.1736V51.9719C98.2205 52.3104 98.0856 52.6347 97.8463 52.874C97.6069 53.1134 97.2826 53.2483 96.9441 53.2492H85.1699C84.8314 53.2483 84.5071 53.1134 84.2678 52.874C84.0284 52.6347 83.8935 52.3104 83.8926 51.9719V34.5759C83.8955 34.2387 84.0312 33.9162 84.2703 33.6785C84.5095 33.4407 84.8327 33.3068 85.1699 33.3059H96.9258C97.0944 33.304 97.2616 33.3353 97.418 33.3981C97.5744 33.4609 97.7169 33.554 97.8372 33.672C97.9576 33.79 98.0535 33.9306 98.1194 34.0857C98.1854 34.2408 98.22 34.4074 98.2215 34.5759V42.1667"
              fill="white"/>
        <path d="M96.926 53.4579H85.1701C84.7818 53.4579 84.4094 53.3036 84.1348 53.0291C83.8603 52.7545 83.7061 52.3822 83.7061 51.9939V34.5759C83.7061 34.1877 83.8603 33.8153 84.1348 33.5407C84.4094 33.2662 84.7818 33.1119 85.1701 33.1119H96.926C97.3142 33.1119 97.6866 33.2662 97.9612 33.5407C98.2357 33.8153 98.39 34.1877 98.39 34.5759V42.1668H98.002V34.5759C98.002 34.2847 97.8863 34.0055 97.6804 33.7995C97.4745 33.5936 97.1952 33.4779 96.904 33.4779H85.1701C84.8788 33.4779 84.5996 33.5936 84.3937 33.7995C84.1877 34.0055 84.0721 34.2847 84.0721 34.5759V51.9719C84.0721 52.2631 84.1877 52.5424 84.3937 52.7483C84.5996 52.9542 84.8788 53.0699 85.1701 53.0699H96.926C97.2172 53.0699 97.4965 52.9542 97.7024 52.7483C97.9083 52.5424 98.024 52.2631 98.024 51.9719V47.1737H98.4119V51.9719C98.4149 52.1679 98.3785 52.3624 98.3049 52.5441C98.2312 52.7257 98.1219 52.8907 97.9833 53.0293C97.8447 53.1678 97.6797 53.2772 97.4981 53.3508C97.3165 53.4244 97.1219 53.4608 96.926 53.4579Z"
              fill="#004390"/>
        <path d="M90.1694 50.8739C90.4107 50.7228 90.6613 50.5871 90.9197 50.4676C91.039 50.4135 91.1612 50.3659 91.2857 50.3249C91.4233 50.2688 91.5692 50.2354 91.7175 50.2261L91.5675 50.1419C91.5419 50.1016 91.5272 50.2041 91.5199 50.2297L91.4687 50.3578C91.4256 50.4485 91.3949 50.5445 91.3772 50.6433C91.3676 50.6785 91.3667 50.7155 91.3745 50.7511C91.3823 50.7867 91.3985 50.8199 91.4219 50.8479C91.4452 50.8759 91.4749 50.8979 91.5086 50.912C91.5422 50.9261 91.5787 50.9318 91.6151 50.9288C91.9989 50.8601 92.3657 50.7171 92.6948 50.5079H92.5593C92.5996 50.5079 92.6472 50.5628 92.6874 50.5774C92.7474 50.5991 92.8104 50.6114 92.8741 50.614C93.0168 50.614 93.1596 50.5921 93.3023 50.614C93.5256 50.636 93.5219 50.2883 93.3023 50.27C93.1523 50.27 92.9949 50.3029 92.8485 50.27C92.7021 50.2371 92.6582 50.1346 92.5044 50.2041C92.3507 50.2736 92.2263 50.3652 92.0762 50.4274C92.0069 50.4568 91.936 50.4825 91.8639 50.5042L91.7249 50.5445C91.6846 50.5445 91.6114 50.5445 91.67 50.6031L91.7212 50.7238C91.7212 50.4896 91.9701 50.27 91.9042 50.0284C91.8383 49.7869 91.5382 49.893 91.3589 49.9369C90.8728 50.0778 90.4103 50.29 89.9864 50.5665C89.9466 50.5893 89.9175 50.627 89.9054 50.6712C89.8934 50.7155 89.8995 50.7627 89.9223 50.8025C89.9451 50.8423 89.9828 50.8714 90.0271 50.8834C90.0714 50.8955 90.1186 50.8894 90.1584 50.8666L90.1694 50.8739Z"
              fill="#E0E0E0"/>
        <path d="M96.8378 35.9008H85.2539V36.2851H96.8378V35.9008Z" fill="#E0E0E0"/>
        <path d="M95.5275 38.6276H85.2539V39.0119H95.5275V38.6276Z" fill="#E0E0E0"/>
        <path d="M96.8378 41.358H85.2539V41.7423H96.8378V41.358Z" fill="#E0E0E0"/>
        <path d="M88.4381 44.0882H85.2539V44.4725H88.4381V44.0882Z" fill="#E0E0E0"/>
        <path d="M94.009 44.0882H89.7744V44.4725H94.009V44.0882Z" fill="#E0E0E0"/>
        <path d="M96.8378 46.815H85.2539V47.1993H96.8378V46.815Z" fill="#E0E0E0"/>
        <path d="M86.8466 51.6901C86.4934 51.6901 86.148 51.5854 85.8543 51.3891C85.5606 51.1929 85.3317 50.9139 85.1965 50.5875C85.0613 50.2612 85.026 49.9021 85.0949 49.5556C85.1638 49.2091 85.3339 48.8909 85.5837 48.6411C85.8335 48.3913 86.1517 48.2212 86.4982 48.1523C86.8446 48.0834 87.2038 48.1187 87.5301 48.2539C87.8565 48.3891 88.1354 48.618 88.3317 48.9117C88.5279 49.2055 88.6327 49.5508 88.6327 49.904C88.6327 50.3777 88.4445 50.832 88.1096 51.167C87.7746 51.5019 87.3203 51.6901 86.8466 51.6901ZM86.8466 48.5059C86.5692 48.5059 86.2981 48.5882 86.0675 48.7424C85.8369 48.8966 85.6572 49.1158 85.5512 49.3721C85.4452 49.6285 85.4177 49.9105 85.4721 50.1825C85.5264 50.4545 85.6603 50.7043 85.8567 50.9002C86.0531 51.0961 86.3032 51.2293 86.5754 51.283C86.8476 51.3367 87.1295 51.3084 87.3856 51.2017C87.6417 51.0951 87.8603 50.9148 88.0139 50.6838C88.1675 50.4528 88.2491 50.1814 88.2484 49.904C88.2474 49.5329 88.0993 49.1773 87.8365 48.9152C87.5738 48.6531 87.2178 48.5059 86.8466 48.5059V48.5059Z"
              fill="#004390"/>
        <path d="M87.9002 49.9041C87.9009 50.1127 87.8397 50.3168 87.7243 50.4907C87.6089 50.6645 87.4445 50.8002 87.252 50.8805C87.0594 50.9608 86.8474 50.9822 86.6427 50.942C86.438 50.9017 86.2498 50.8016 86.102 50.6543C85.9542 50.5071 85.8535 50.3193 85.8125 50.1147C85.7715 49.9101 85.7922 49.698 85.8719 49.5052C85.9516 49.3124 86.0867 49.1475 86.2601 49.0315C86.4335 48.9155 86.6374 48.8536 86.8461 48.8536C87.125 48.8536 87.3926 48.9642 87.5901 49.1611C87.7877 49.358 87.8992 49.6251 87.9002 49.9041V49.9041Z"
              fill="#004390"/>
        <path d="M93.8594 49.5893C93.9213 49.088 94.0993 48.608 94.3791 48.1875C94.6426 47.7886 94.961 47.4555 95.2538 47.0639C95.8431 46.3319 96.4543 45.5999 97.0838 44.8679C98.3209 43.4295 99.5763 42.0058 100.945 40.6699C100.98 40.64 101.024 40.6232 101.07 40.6224C101.116 40.6215 101.161 40.6367 101.197 40.6653C101.233 40.6939 101.258 40.7341 101.267 40.779C101.277 40.8239 101.27 40.8707 101.249 40.9114C100.261 42.5475 99.1591 44.0956 98.0391 45.6292C97.4755 46.3905 96.9045 47.1481 96.3189 47.8947C96.0224 48.2607 95.7516 48.656 95.4222 48.9927C95.0774 49.3615 94.6513 49.6448 94.1778 49.8199C94.1205 49.8389 94.058 49.8351 94.0034 49.8092C93.9489 49.7832 93.9065 49.7373 93.885 49.6808C93.8706 49.6523 93.8619 49.6212 93.8594 49.5893V49.5893Z"
              fill="#004390"/>
        <path d="M94.8057 62.5488L92.4004 64.6464L92.653 64.936L95.0583 62.8384L94.8057 62.5488Z" fill="#004390"/>
        <path d="M91.941 59.3012L90.9238 63.8405L91.2988 63.9245L92.316 59.3852L91.941 59.3012Z" fill="#004390"/>
        <path d="M88.3586 62.7796L88.0781 63.0423L89.4165 64.4715L89.6971 64.2088L88.3586 62.7796Z" fill="#004390"/>
        <path d="M116.544 149.434H113.429L113.049 142.224H116.16L116.544 149.434Z" fill="#FFC3BD"/>
        <path d="M132.245 149.434H129.13L127.911 142.224H131.022L132.245 149.434Z" fill="#FFC3BD"/>
        <path d="M128.929 149.072H132.424C132.485 149.071 132.545 149.092 132.592 149.131C132.638 149.17 132.67 149.224 132.68 149.284L133.164 152.051C133.174 152.12 133.169 152.191 133.149 152.258C133.129 152.325 133.095 152.387 133.049 152.44C133.003 152.492 132.947 152.535 132.883 152.564C132.82 152.593 132.75 152.607 132.68 152.607C131.462 152.585 130.872 152.512 129.332 152.512C128.387 152.512 125.836 152.611 124.53 152.611C123.223 152.611 123.113 151.319 123.651 151.202C126.078 150.679 127.611 149.954 128.409 149.266C128.554 149.141 128.738 149.072 128.929 149.072V149.072Z"
              fill="#263238"/>
        <path d="M113.352 149.072H116.749C116.81 149.071 116.869 149.092 116.916 149.131C116.963 149.17 116.994 149.224 117.005 149.284L117.488 152.051C117.499 152.12 117.495 152.19 117.476 152.257C117.457 152.324 117.424 152.387 117.379 152.439C117.334 152.492 117.277 152.535 117.214 152.564C117.151 152.593 117.082 152.608 117.012 152.607C115.79 152.585 114.018 152.512 112.477 152.512C110.677 152.512 110.219 152.611 108.104 152.611C106.826 152.611 106.534 151.319 107.075 151.202C109.535 150.671 110.424 150.613 112.587 149.317C112.815 149.167 113.08 149.082 113.352 149.072V149.072Z"
              fill="#263238"/>
        <path d="M113.254 52.488L109.001 51.24C109.001 51.24 104.667 61.5356 103.2 62.22C101.205 63.135 95.8795 65.9422 93.6249 67.2671C93.4712 67.7759 93.4676 69.1703 93.7128 69.5729C97.4057 69.2801 104.982 66.773 106.439 65.3749C109.762 62.1834 113.254 52.488 113.254 52.488Z"
              fill="#FFC3BD"/>
        <path d="M114.541 50.5446C115.749 53.2383 107.456 65.0528 107.456 65.0528L103.43 60.8731C103.43 60.8731 106.991 51.9317 108.92 48.5023C110.889 44.9777 113.227 47.58 114.541 50.5446Z"
              fill="#99B4D3"/>
        <path d="M103.137 60.5035C102.885 60.6536 102.343 61.6381 102.222 62.1285C102.102 62.619 104.935 66.4034 106.036 66.2497C107.138 66.096 108.397 65.0236 108.624 64.4453C108.851 63.867 103.668 60.1924 103.137 60.5035Z"
              fill="#004390"/>
        <path d="M94.0971 67.0329L91.5352 66.5645L91.6889 70.2245C91.6889 70.2245 92.5892 70.5905 94.529 69.39L94.0971 67.0329Z"
              fill="#FFC3BD"/>
        <path d="M88.4385 67.7832L88.907 70.0341L91.6703 70.2391L91.5165 66.5681L88.4385 67.7832Z" fill="#FFC3BD"/>
        <path opacity="0.2" d="M113.049 142.228L113.246 145.943H116.357L116.163 142.228H113.049Z" fill="black"/>
        <path opacity="0.2" d="M131.026 142.228H127.911L128.541 145.943H131.655L131.026 142.228Z" fill="black"/>
        <path d="M110.585 46.8699C110.585 46.8699 106.431 57.5645 109.088 75.0702H125.737C125.972 72.5082 125.005 58.7503 128.032 46.7089C126.203 46.3521 124.352 46.1161 122.491 46.0025C120.133 45.867 117.77 45.867 115.412 46.0025C113.784 46.1682 112.17 46.4582 110.585 46.8699V46.8699Z"
              fill="#4072AC"/>
        <path opacity="0.2"
              d="M124.274 49.6809C123.908 51.6646 124.3 56.4043 125.928 61.8833C126.127 57.1794 126.739 52.5021 127.758 47.9058V47.8838C126.653 47.7704 124.629 47.8216 124.274 49.6809Z"
              fill="black"/>
        <path d="M121.883 39.3853C121.327 41.6618 120.972 44.4837 122.491 46.0026C122.491 46.0026 121.466 48.3157 117.235 48.3157C113.366 48.3157 115.405 46.0026 115.405 46.0026C117.967 45.3987 117.993 42.2584 117.634 40.4869L121.883 39.3853Z"
              fill="#FFC3BD"/>
        <path d="M117.254 48.312C119.746 49.0915 120.24 49.8894 120.24 49.8894C120.24 49.8894 123.348 48.6267 123.231 45.889C122.853 45.61 122.446 45.3743 122.016 45.1863C122.016 45.1863 121.752 47.214 117.254 48.312Z"
              fill="#004390"/>
        <path d="M117.254 48.312C115.855 48.4438 114.692 49.6406 114.692 49.6406C114.692 49.6406 113.802 48.7073 114.655 45.9989C114.655 45.9989 115.486 45.7171 116.174 45.5707C116.156 45.5744 115.596 47.7264 117.254 48.312Z"
              fill="#004390"/>
        <path opacity="0.2"
              d="M117.642 40.4906C117.854 41.5264 117.935 43.0526 117.444 44.2275C117.844 44.1619 118.233 44.0386 118.597 43.8615C120.061 43.188 120.815 42.123 121.628 40.5675C121.701 40.1612 121.789 39.7659 121.884 39.3853L117.642 40.4906Z"
              fill="black"/>
        <path d="M117.147 32.1093C116.152 32.435 113.927 34.3455 116.049 35.3081C118.172 36.2707 118.882 31.5456 117.147 32.1093Z"
              fill="#263238"/>
        <path d="M123.863 36.6C122.893 39.5866 122.476 41.358 120.569 42.6024C117.704 44.4324 114.391 42.2364 114.468 39.0815C114.534 36.2231 116.108 31.8201 119.332 31.2528C122.557 30.6855 124.833 33.6245 123.863 36.6Z"
              fill="#FFC3BD"/>
        <path d="M119.186 33.3316C117.539 33.6098 116.166 33.5219 115.669 32.1531C115.171 30.7843 117.436 29.3495 118.999 29.9937C120.152 28.7932 123.3 29.7155 123.706 30.8684C125.536 30.7513 127.267 32.8595 126.026 33.9392C126.307 34.1135 126.544 34.3496 126.72 34.6293C126.896 34.909 127.005 35.2252 127.041 35.5536C127.076 35.8821 127.036 36.2143 126.924 36.525C126.811 36.8357 126.63 37.1167 126.392 37.3466C126.927 38.9351 125.002 40.5199 123.483 39.8757C121.986 39.4292 121.17 39.7952 120.961 38.8289C120.752 37.8627 121.279 36.9294 122.553 36.7427C121.909 35.9741 121.752 34.759 122.187 34.2356C120.646 34.9347 119.384 34.0563 119.186 33.3316Z"
              fill="#263238"/>
        <path d="M117.21 39.7696C117.501 39.794 117.794 39.7607 118.072 39.6715C118.351 39.5823 118.608 39.439 118.831 39.2499C118.845 39.2356 118.852 39.2166 118.852 39.1968C118.852 39.177 118.845 39.158 118.831 39.1437C118.825 39.1366 118.817 39.131 118.808 39.1271C118.799 39.1232 118.79 39.1212 118.78 39.1212C118.77 39.1212 118.761 39.1232 118.752 39.1271C118.743 39.131 118.735 39.1366 118.729 39.1437C118.485 39.3463 118.198 39.491 117.89 39.5671C117.582 39.6431 117.26 39.6486 116.95 39.5829C116.931 39.5796 116.911 39.5839 116.894 39.5948C116.878 39.6056 116.867 39.6224 116.862 39.6415C116.859 39.6507 116.859 39.6603 116.86 39.6698C116.861 39.6792 116.865 39.6883 116.87 39.6963C116.875 39.7043 116.882 39.7111 116.89 39.7162C116.898 39.7212 116.908 39.7245 116.917 39.7257C117.014 39.7452 117.112 39.7599 117.21 39.7696Z"
              fill="#263238"/>
        <path d="M124.036 40.7248C123.413 41.2112 122.626 41.4381 121.84 41.3579C120.819 41.2445 120.742 40.238 121.382 39.4767C121.961 38.7886 123.19 38.0127 124.043 38.5178C124.896 39.0229 124.801 40.1172 124.036 40.7248Z"
              fill="#FFC3BD"/>
        <path d="M120.032 75.0703C120.032 75.0703 119.607 78.9865 119.065 84.2898C118.443 90.3032 117.671 98.1099 117.18 104.054C117.18 104.083 117.18 104.109 117.18 104.134C117.085 105.265 117.001 106.33 116.932 107.289C116.236 116.992 117.481 145.218 117.481 145.218H112.203C112.203 145.218 107.342 116.414 107.463 106.539C107.577 97.0486 109.085 75.0629 109.085 75.0629L120.032 75.0703Z"
              fill="#004390"/>
        <path d="M117.912 143.157C117.938 143.157 117.821 145.331 117.821 145.331H111.742L111.588 142.945L117.912 143.157Z"
              fill="#263238"/>
        <path opacity="0.2"
              d="M119.084 84.2898C118.462 90.3032 117.69 98.11 117.199 104.054C117.199 104.083 117.199 104.109 117.199 104.134C116.039 98.4943 115.677 91.4817 116.127 79.9344L119.084 84.2898Z"
              fill="black"/>
        <path d="M114.992 75.0703C114.992 75.0703 117.422 97.5646 118.934 106.477C120.592 116.238 127.136 145.221 127.136 145.221H132.838C132.838 145.221 128.995 117.039 128.241 107.362C127.429 96.8729 125.749 75.0703 125.749 75.0703H114.992Z"
              fill="#004390"/>
        <path d="M132.908 143.289C132.933 143.289 133.105 145.331 133.105 145.331H126.839L126.382 143.051L132.908 143.289Z"
              fill="#263238"/>
        <path d="M118.692 36.4683C118.626 36.7135 118.447 36.8855 118.289 36.8343C118.132 36.783 118.055 36.5708 118.117 36.3255C118.18 36.0803 118.363 35.9083 118.52 35.9595C118.677 36.0108 118.754 36.234 118.692 36.4683Z"
              fill="#263238"/>
        <path d="M115.955 35.868C115.889 36.1133 115.709 36.2853 115.552 36.234C115.395 36.1828 115.318 35.9742 115.38 35.7253C115.442 35.4764 115.625 35.3081 115.783 35.3593C115.94 35.4105 116.017 35.6228 115.955 35.868Z"
              fill="#263238"/>
        <path d="M117.232 36.1828C116.748 36.8724 116.176 37.4962 115.53 38.0384C115.852 38.5361 116.628 38.5105 116.628 38.5105L117.232 36.1828Z"
              fill="#FF5652"/>
        <path d="M120.181 35.7508C120.16 35.7451 120.139 35.7345 120.122 35.72C120.105 35.7054 120.092 35.6872 120.082 35.6666C120.018 35.4974 119.913 35.3467 119.776 35.2279C119.64 35.1091 119.476 35.026 119.299 34.9859C119.28 34.9833 119.262 34.9768 119.245 34.9667C119.229 34.9567 119.215 34.9433 119.204 34.9275C119.193 34.9116 119.185 34.8937 119.181 34.8747C119.178 34.8558 119.178 34.8363 119.182 34.8175C119.189 34.7786 119.211 34.744 119.243 34.7208C119.275 34.6976 119.315 34.6877 119.354 34.6931C119.579 34.7391 119.789 34.841 119.964 34.9894C120.139 35.1378 120.274 35.3279 120.357 35.5422C120.371 35.5792 120.37 35.6201 120.355 35.6567C120.34 35.6934 120.312 35.723 120.276 35.7398C120.247 35.7541 120.213 35.7579 120.181 35.7508V35.7508Z"
              fill="#263238"/>
        <path d="M115.424 34.6162C115.404 34.608 115.385 34.5969 115.369 34.5833C115.355 34.5697 115.344 34.5534 115.337 34.5355C115.329 34.5176 115.325 34.4984 115.325 34.479C115.325 34.4596 115.329 34.4404 115.337 34.4225C115.344 34.4045 115.355 34.3883 115.369 34.3747C115.524 34.1952 115.719 34.0551 115.938 33.9661C116.158 33.877 116.396 33.8414 116.632 33.8623C116.651 33.8649 116.669 33.8714 116.686 33.8814C116.702 33.8915 116.716 33.9049 116.727 33.9207C116.738 33.9365 116.746 33.9545 116.749 33.9734C116.753 33.9923 116.753 34.0118 116.749 34.0306C116.741 34.0691 116.719 34.1032 116.687 34.1262C116.655 34.1493 116.616 34.1596 116.577 34.1551V34.1551C116.389 34.1412 116.201 34.1717 116.027 34.2442C115.854 34.3167 115.7 34.4291 115.577 34.5723C115.558 34.5924 115.533 34.607 115.506 34.6147C115.48 34.6224 115.451 34.6229 115.424 34.6162V34.6162Z"
              fill="#263238"/>
        <path d="M129.877 50.9582L125.946 53.3372C125.946 53.3372 130.338 62.8532 130.313 64.4526C130.239 67.4392 131.524 73.9137 131.176 77.3248C131.66 77.4969 133.006 77.5371 133.431 77.2992C134.211 74.2138 135.29 66.1069 134.979 64.0756C134.298 59.658 129.877 50.9582 129.877 50.9582Z"
              fill="#FFC3BD"/>
        <path d="M128.032 46.709C130.96 47.1372 135.132 61.9968 135.132 61.9968L129.716 64.05C129.716 64.05 124.998 55.998 123.841 52.3783C122.597 48.6012 124.895 46.2478 128.032 46.709Z"
              fill="#99B4D3"/>
        <path d="M127.867 149.617C127.658 149.635 127.449 149.578 127.278 149.456C127.224 149.409 127.183 149.348 127.159 149.28C127.135 149.212 127.13 149.139 127.143 149.068C127.145 149.025 127.159 148.982 127.183 148.946C127.206 148.909 127.239 148.879 127.278 148.86C127.644 148.684 128.607 149.299 128.717 149.372C128.729 149.379 128.738 149.39 128.743 149.404C128.749 149.417 128.749 149.431 128.746 149.445C128.742 149.459 128.735 149.472 128.725 149.483C128.714 149.493 128.701 149.5 128.687 149.504C128.419 149.573 128.144 149.611 127.867 149.617V149.617ZM127.439 148.962C127.406 148.96 127.374 148.966 127.344 148.98C127.329 148.988 127.316 149 127.307 149.015C127.298 149.03 127.293 149.047 127.293 149.065C127.284 149.113 127.287 149.164 127.302 149.211C127.317 149.258 127.344 149.301 127.381 149.335C127.542 149.478 127.948 149.496 128.479 149.39C128.165 149.179 127.811 149.033 127.439 148.962V148.962Z"
              fill="#F06D1A"/>
        <path d="M128.672 149.507C128.662 149.51 128.65 149.51 128.64 149.507C128.325 149.335 127.735 148.651 127.82 148.303C127.833 148.249 127.864 148.201 127.908 148.167C127.952 148.133 128.006 148.114 128.061 148.113C128.117 148.105 128.173 148.11 128.226 148.126C128.28 148.141 128.33 148.168 128.372 148.204C128.72 148.501 128.738 149.401 128.738 149.438C128.738 149.451 128.735 149.465 128.729 149.477C128.722 149.489 128.713 149.5 128.702 149.507C128.692 149.509 128.682 149.509 128.672 149.507V149.507ZM128.105 148.23H128.072C127.977 148.23 127.966 148.285 127.962 148.303C127.911 148.508 128.284 149.035 128.592 149.266C128.591 148.916 128.479 148.575 128.274 148.292C128.227 148.252 128.167 148.229 128.105 148.23V148.23Z"
              fill="#F06D1A"/>
        <path d="M112.031 149.617C111.767 149.642 111.501 149.575 111.281 149.427C111.232 149.38 111.196 149.323 111.175 149.259C111.154 149.195 111.149 149.127 111.16 149.061C111.164 149.02 111.179 148.98 111.202 148.946C111.225 148.911 111.255 148.883 111.292 148.863C111.68 148.651 112.902 149.288 113.041 149.361C113.054 149.369 113.065 149.38 113.071 149.394C113.076 149.408 113.078 149.423 113.074 149.438C113.071 149.453 113.064 149.468 113.053 149.479C113.042 149.49 113.027 149.497 113.012 149.5C112.689 149.569 112.361 149.608 112.031 149.617ZM111.497 148.962C111.449 148.96 111.401 148.968 111.358 148.988C111.343 148.996 111.331 149.008 111.322 149.022C111.314 149.036 111.308 149.052 111.306 149.068C111.299 149.111 111.302 149.156 111.316 149.197C111.331 149.239 111.355 149.276 111.387 149.306C111.57 149.474 112.079 149.504 112.774 149.39C112.376 149.174 111.944 149.03 111.497 148.962Z"
              fill="#F06D1A"/>
        <path d="M113 149.507H112.967C112.601 149.339 111.869 148.666 111.961 148.314C111.961 148.23 112.045 148.128 112.246 148.109C112.319 148.1 112.392 148.106 112.461 148.128C112.531 148.149 112.595 148.185 112.649 148.234C113.015 148.559 113.074 149.398 113.077 149.434C113.077 149.447 113.074 149.46 113.067 149.472C113.061 149.483 113.052 149.493 113.041 149.5C113.029 149.508 113.014 149.51 113 149.507V149.507ZM112.298 148.23H112.254C112.122 148.23 112.111 148.296 112.107 148.311C112.063 148.523 112.543 149.042 112.916 149.28C112.897 148.93 112.769 148.595 112.55 148.321C112.481 148.26 112.39 148.227 112.298 148.23Z"
              fill="#F06D1A"/>
        <path d="M140.55 80.3328L121.841 82.7727C121.021 82.8796 120.443 83.6308 120.55 84.4506L122.143 96.6667C122.25 97.4865 123.001 98.0644 123.821 97.9575L142.53 95.5177C143.35 95.4108 143.928 94.6595 143.821 93.8397L142.228 81.6236C142.121 80.8038 141.369 80.2259 140.55 80.3328Z"
              fill="#263238"/>
        <path opacity="0.3"
              d="M140.55 80.3328L121.841 82.7727C121.021 82.8796 120.443 83.6308 120.55 84.4506L122.143 96.6667C122.25 97.4865 123.001 98.0644 123.821 97.9575L142.53 95.5177C143.35 95.4108 143.928 94.6595 143.821 93.8397L142.228 81.6236C142.121 80.8038 141.369 80.2259 140.55 80.3328Z"
              fill="black"/>
        <path d="M130.316 84.3704C130.003 84.3702 129.699 84.2659 129.452 84.0739C129.153 83.8432 128.957 83.5039 128.907 83.1296L128.577 80.5896C128.553 80.4045 128.566 80.2165 128.614 80.0363C128.663 79.8561 128.747 79.6873 128.86 79.5394C128.974 79.3915 129.116 79.2676 129.278 79.1746C129.44 79.0816 129.618 79.0214 129.803 78.9975L134.031 78.4448C134.405 78.396 134.783 78.4977 135.082 78.7276C135.382 78.9575 135.577 79.2968 135.627 79.6709L135.96 82.211C136.006 82.5848 135.904 82.962 135.674 83.2608C135.445 83.5595 135.107 83.7557 134.733 83.8067V83.8067L130.503 84.3557C130.441 84.3642 130.378 84.3691 130.316 84.3704V84.3704ZM134.217 79.2464H134.141L129.91 79.799C129.832 79.809 129.757 79.8341 129.69 79.873C129.622 79.9119 129.563 79.9637 129.515 80.0256C129.467 80.0875 129.432 80.1582 129.412 80.2336C129.392 80.3091 129.387 80.3877 129.397 80.4652L129.727 83.0052C129.748 83.1622 129.831 83.3043 129.957 83.4005C130.019 83.4481 130.09 83.483 130.165 83.5031C130.24 83.5232 130.319 83.5281 130.396 83.5176L134.624 82.9686C134.78 82.9467 134.922 82.8643 135.018 82.7391C135.115 82.6139 135.159 82.4558 135.14 82.2988L134.821 79.7881C134.811 79.7105 134.786 79.6356 134.747 79.5677C134.708 79.4999 134.656 79.4404 134.594 79.3928C134.488 79.3061 134.355 79.2583 134.217 79.2574V79.2464Z"
              fill="#263238"/>
        <path d="M142.331 80.101L123.622 82.5408C122.802 82.6477 122.224 83.399 122.331 84.2188L123.924 96.4349C124.031 97.2547 124.783 97.8326 125.602 97.7257L144.311 95.2859C145.131 95.1789 145.709 94.4277 145.602 93.6079L144.009 81.3918C143.902 80.572 143.151 79.9941 142.331 80.101Z"
              fill="#263238"/>
        <path d="M131.352 76.8125L130.159 79.1366L133.658 79.2976C133.911 78.7901 134.002 78.2177 133.921 77.6567C133.84 77.0956 133.59 76.5726 133.204 76.1574L131.352 76.8125Z"
              fill="#FFC3BD"/>
        <path d="M131.495 80.9373L133.581 80.6518L133.658 79.2976L130.159 79.1366L130.214 79.8942C130.225 80.0487 130.267 80.1994 130.338 80.3369C130.409 80.4744 130.508 80.5959 130.628 80.6937C130.748 80.7915 130.887 80.8636 131.036 80.9055C131.185 80.9474 131.342 80.9582 131.495 80.9373V80.9373Z"
              fill="#FFC3BD"/>
        <path d="M128.9 63.2046C128.845 63.49 129.233 64.5478 129.518 64.9577C129.804 65.3676 134.525 65.73 135.133 64.8003C135.74 63.8707 135.766 62.2164 135.477 61.6637C135.188 61.111 129.013 62.586 128.9 63.2046Z"
              fill="#004390"/>
        <path d="M59.9307 51.7817C59.3415 52.5539 58.701 53.3994 58.1007 54.2302C57.5005 55.061 56.9222 55.9065 56.3695 56.7629C55.2612 58.4064 54.3044 60.1472 53.5111 61.9638C53.4196 62.1797 53.3354 62.3957 53.2622 62.6116C53.2232 62.719 53.1866 62.8251 53.1524 62.93L53.1012 63.0911L53.0792 63.1679V63.1899C53.0122 63.4703 52.9985 63.7608 53.039 64.0463C53.1652 64.967 53.3822 65.873 53.6868 66.7511C54.3126 68.6433 55.1508 70.5941 55.9743 72.4863L54.104 73.6721C52.7009 71.9407 51.4862 70.0648 50.4806 68.076C49.9267 67.0025 49.5051 65.8656 49.2252 64.6905C49.0435 63.9303 49.0136 63.1418 49.1374 62.37L49.1667 62.1944L49.196 62.0772L49.2509 61.8503C49.2838 61.7003 49.3204 61.5502 49.3643 61.4038C49.4448 61.1073 49.5327 60.8219 49.6278 60.5364C50.3933 58.3829 51.3924 56.3198 52.6071 54.3839C53.1927 53.436 53.7929 52.5063 54.4371 51.6096C55.0812 50.7129 55.7181 49.8419 56.461 48.9488L59.9307 51.7817Z"
              fill="#263238"/>
        <path d="M55.48 71.8092L57.4051 72.8304L55.2091 75.4253C55.2091 75.4253 53.8256 74.4884 53.7451 73.0609L55.48 71.8092Z"
              fill="#FFC3BD"/>
        <path d="M59.997 74.4298L57.6253 76.3146L55.1914 75.4253L57.4057 72.8303L59.997 74.4298Z" fill="#FFC3BD"/>
        <path d="M88.7711 66.246L91.0476 67.4209L90.8463 68.2407L89.0163 70.0707C89.0163 70.0707 87.6987 69.0459 87.728 67.6185L88.7711 66.246Z"
              fill="#FFC3BD"/>
        <path d="M89.1006 66.5681L91.1868 66.1765L92.5263 66.7474L91.6333 66.8975L91.0477 67.4282L89.1006 66.5681Z"
              fill="#FFC3BD"/>
        <path d="M93.3283 70.3415L91.0664 70.8283C90.8293 70.8786 90.5822 70.849 90.3637 70.7441L89.0059 70.0853L90.8359 68.2553L92.0473 67.8893L93.5626 69.6278C93.6097 69.6859 93.6415 69.7548 93.6551 69.8283C93.6687 69.9018 93.6636 69.9776 93.6402 70.0486C93.6169 70.1196 93.5762 70.1837 93.5217 70.2349C93.4672 70.286 93.4007 70.3227 93.3283 70.3415V70.3415Z"
              fill="#FFC3BD"/>
        <path d="M68.2716 36.944C68.3229 37.1892 68.4912 37.3613 68.6376 37.31C68.7841 37.2588 68.8865 37.0502 68.839 36.8049C68.7914 36.5597 68.6157 36.3877 68.4729 36.4389C68.3302 36.4902 68.2094 36.6988 68.2716 36.944Z"
              fill="#263238"/>
        <path d="M68.4697 37.3648C68.9151 38.0561 69.4532 38.683 70.0691 39.2278C69.7031 39.7219 68.9419 39.6853 68.9419 39.6853L68.4697 37.3648Z"
              fill="#348A5F"/>
        <path d="M67.1117 35.7618C67.0751 35.7603 67.0401 35.7461 67.0129 35.7216C66.9858 35.6936 66.9707 35.6562 66.9707 35.6173C66.9707 35.5783 66.9858 35.5409 67.0129 35.5129C67.1675 35.3378 67.3619 35.2022 67.5796 35.1175C67.7974 35.0329 68.0323 35.0015 68.2646 35.0262C68.2987 35.0372 68.3277 35.0601 68.3464 35.0907C68.3651 35.1213 68.3722 35.1576 68.3664 35.193C68.3607 35.2284 68.3425 35.2605 68.3151 35.2836C68.2877 35.3067 68.2529 35.3193 68.217 35.319V35.319C68.0328 35.3018 67.8471 35.3287 67.6753 35.3975C67.5035 35.4662 67.3504 35.5748 67.2288 35.7142C67.2143 35.7306 67.1961 35.7435 67.1758 35.7517C67.1555 35.76 67.1336 35.7634 67.1117 35.7618Z"
              fill="#263238"/>
        <path d="M61.6218 41.2811C62.0464 43.4405 62.2989 46.4307 60.791 47.8691C60.791 47.8691 61.3803 50.0651 65.3916 50.0651C69.8056 50.0651 67.5144 48.14 67.5144 48.14C65.6844 47.5727 65.6844 45.4828 66.1163 43.8065L61.6218 41.2811Z"
              fill="#FFC3BD"/>
        <path d="M60.1577 49.3477C59.7917 48.7694 59.9125 47.0163 60.3517 46.7308C61.0544 46.2697 63.9532 46.3209 67.7998 47.4445C67.2801 49.1208 68.1256 50.0651 68.1256 50.0651L60.1577 49.3477Z"
              fill="#004390"/>
        <path opacity="0.2"
              d="M56.9373 52.4551C55.5648 53.8093 55.1658 56.5835 55.3159 58.4758C55.6526 57.9011 56.0113 57.3265 56.3809 56.7665C56.9336 55.9064 57.5229 55.0683 58.1158 54.2265C58.2805 53.9959 58.4488 53.7617 58.6209 53.5274C58.6538 53.3774 58.6831 53.2273 58.7124 53.0809L56.9373 52.4551Z"
              fill="black"/>
        <path d="M47.2154 148.962C47.4552 149.046 47.7183 149.031 47.9474 148.922C47.9916 148.882 48.0221 148.828 48.0346 148.77C48.0471 148.712 48.0409 148.651 48.017 148.596C48.0034 148.551 47.9804 148.509 47.9495 148.474C47.9185 148.439 47.8804 148.41 47.8376 148.391C47.4387 148.201 46.52 148.574 46.4834 148.589C46.4709 148.594 46.46 148.602 46.4522 148.613C46.4444 148.624 46.44 148.637 46.4395 148.651C46.439 148.665 46.4425 148.678 46.4497 148.69C46.4568 148.702 46.4673 148.711 46.4798 148.717C46.7156 148.824 46.9622 148.907 47.2154 148.962V148.962ZM47.6985 148.49L47.7791 148.515C47.8045 148.527 47.8272 148.543 47.8455 148.564C47.8639 148.585 47.8774 148.61 47.8852 148.636C47.9218 148.761 47.8852 148.801 47.8596 148.816C47.7022 148.951 47.1276 148.816 46.6994 148.658C47.0192 148.522 47.366 148.46 47.7132 148.479L47.6985 148.49Z"
              fill="#F06D1A"/>
        <path d="M46.499 148.713H46.5319C46.8687 148.618 47.5824 148.109 47.5897 147.776C47.5909 147.723 47.5736 147.672 47.5409 147.63C47.5081 147.589 47.462 147.56 47.4103 147.549C47.3598 147.53 47.3057 147.523 47.2519 147.527C47.1981 147.532 47.146 147.548 47.0992 147.575C46.7076 147.776 46.4587 148.592 46.4478 148.625C46.4423 148.636 46.4395 148.648 46.4395 148.66C46.4395 148.672 46.4423 148.684 46.4478 148.695C46.462 148.707 46.4803 148.713 46.499 148.713V148.713ZM47.3335 147.666H47.3664C47.4506 147.696 47.4506 147.739 47.4506 147.758C47.4506 147.955 46.9748 148.351 46.6271 148.512C46.7204 148.189 46.9077 147.901 47.1651 147.685C47.1928 147.669 47.2233 147.66 47.2548 147.657C47.2862 147.654 47.318 147.657 47.3481 147.666H47.3335Z"
              fill="#F06D1A"/>
        <path d="M69.0107 149.445C69.3767 149.445 69.7427 149.394 69.8782 149.222C69.9095 149.177 69.9263 149.124 69.9263 149.07C69.9263 149.016 69.9095 148.963 69.8782 148.918C69.8282 148.836 69.748 148.777 69.6549 148.753C69.1645 148.622 68.1323 149.207 68.0884 149.233C68.0756 149.24 68.0655 149.251 68.0595 149.264C68.0536 149.277 68.0521 149.292 68.0555 149.306C68.0575 149.32 68.0638 149.334 68.0736 149.344C68.0835 149.355 68.0963 149.362 68.1104 149.365C68.4077 149.417 68.7089 149.444 69.0107 149.445ZM69.4792 148.874C69.5242 148.868 69.5697 148.868 69.6146 148.874C69.6429 148.88 69.6696 148.892 69.6929 148.909C69.7163 148.926 69.7357 148.948 69.7501 148.973C69.8013 149.061 69.783 149.101 69.7501 149.127C69.6146 149.317 68.868 149.321 68.319 149.244C68.6784 149.047 69.0723 148.922 69.4792 148.874V148.874Z"
              fill="#F06D1A"/>
        <path d="M68.1184 149.365H68.1477C68.5137 149.207 69.2091 148.567 69.1578 148.234C69.1578 148.153 69.0883 148.058 68.898 148.036C68.8285 148.03 68.7585 148.037 68.692 148.058C68.6254 148.078 68.5636 148.112 68.51 148.157C68.144 148.468 68.0525 149.255 68.0489 149.295C68.0486 149.307 68.0511 149.319 68.0561 149.33C68.0612 149.34 68.0688 149.35 68.0781 149.357C68.0905 149.364 68.1045 149.366 68.1184 149.365V149.365ZM68.8504 148.168H68.8943C69.0187 148.168 69.0261 148.23 69.0297 148.245C69.0627 148.446 68.5832 148.947 68.2209 149.163C68.2534 148.828 68.3889 148.511 68.6088 148.256C68.6732 148.2 68.7547 148.169 68.8394 148.168H68.8504Z"
              fill="#F06D1A"/>
        <path d="M64.875 149.295H67.825L68.1178 142.458H65.1678L64.875 149.295Z" fill="#FFC3BD"/>
        <path d="M43.2598 148.032L46.1072 148.636L48.6912 142.096L45.8437 141.492L43.2598 148.032Z" fill="#FFC3BD"/>
        <path d="M46.3704 148.263L43.1277 147.56C43.071 147.548 43.0119 147.556 42.96 147.582C42.9081 147.608 42.8666 147.65 42.8422 147.703L41.7149 150.144C41.6877 150.204 41.6744 150.269 41.6759 150.335C41.6774 150.4 41.6937 150.465 41.7236 150.523C41.7536 150.582 41.7963 150.632 41.8487 150.672C41.901 150.712 41.9617 150.739 42.026 150.752C43.1643 150.975 43.7279 151.03 45.1517 151.337C46.0301 151.528 48.0101 152.011 49.2216 152.271C50.4331 152.53 50.8466 151.37 50.3745 151.154C48.259 150.188 47.3733 149.324 46.7987 148.541C46.6954 148.398 46.5427 148.299 46.3704 148.263V148.263Z"
              fill="#263238"/>
        <path d="M67.8069 148.962H64.5824C64.5239 148.963 64.4674 148.983 64.4217 149.019C64.376 149.056 64.3437 149.107 64.3299 149.163L63.7479 151.788C63.7336 151.851 63.7338 151.917 63.7485 151.98C63.7632 152.044 63.792 152.103 63.8329 152.154C63.8737 152.204 63.9254 152.245 63.9842 152.273C64.0431 152.301 64.1074 152.315 64.1725 152.315C65.3364 152.293 67.0163 152.227 68.4766 152.227C70.1859 152.227 70.7934 152.318 72.7954 152.318C74.0069 152.318 74.3436 151.096 73.8385 150.982C71.5291 150.477 70.5116 150.422 68.5169 149.193C68.3057 149.052 68.0602 148.973 67.8069 148.962V148.962Z"
              fill="#263238"/>
        <path opacity="0.2" d="M68.1183 142.462L67.9683 145.983H65.0146L65.1647 142.462H68.1183Z" fill="black"/>
        <path opacity="0.2" d="M45.843 141.492L48.6905 142.096L47.3582 145.467L44.5107 144.866L45.843 141.492Z"
              fill="black"/>
        <path d="M66.9871 74.2065C66.9871 74.2065 63.6345 96.7668 61.7972 105.218C59.7842 114.474 48.9872 145.112 48.9872 145.112L43.6875 143.948C43.6875 143.948 51.2417 118.994 52.929 106.056C54.2283 96.1189 56.7866 74.2138 56.7866 74.2138L66.9871 74.2065Z"
              fill="#263238"/>
        <path opacity="0.1"
              d="M66.9871 74.2065C66.9871 74.2065 63.6345 96.7668 61.7972 105.218C59.7842 114.474 48.9872 145.112 48.9872 145.112L43.6875 143.948C43.6875 143.948 51.2417 118.994 52.929 106.056C54.2283 96.1189 56.7866 74.2138 56.7866 74.2138L66.9871 74.2065Z"
              fill="white"/>
        <path d="M50.2497 143.329C50.2716 143.329 49.2651 145.24 49.2651 145.24L43.3213 143.951L43.8227 142.165L50.2497 143.329Z"
              fill="#263238"/>
        <path opacity="0.3"
              d="M64.8685 82.2439C60.9962 83.0052 61.4061 97.4512 61.8709 104.881C62.9689 99.6289 64.6232 89.509 65.7432 82.35C65.4717 82.2178 65.1637 82.1805 64.8685 82.2439V82.2439Z"
              fill="black"/>
        <path d="M72.6017 74.2065C72.6017 74.2065 73.0079 96.2763 72.6858 105.28C72.3528 114.642 69.0844 145.302 69.0844 145.302H64.0665C64.0665 145.302 63.8835 115.191 63.6603 105.994C63.4187 95.9689 62.1963 74.2065 62.1963 74.2065H72.6017Z"
              fill="#263238"/>
        <path opacity="0.1"
              d="M72.6017 74.2065C72.6017 74.2065 73.0079 96.2763 72.6858 105.28C72.3528 114.642 69.0844 145.302 69.0844 145.302H64.0665C64.0665 145.302 63.8835 115.191 63.6603 105.994C63.4187 95.9689 62.1963 74.2065 62.1963 74.2065H72.6017Z"
              fill="white"/>
        <path d="M70.0394 143.311C70.0614 143.311 69.754 145.386 69.754 145.386H63.6637L63.499 143.534L70.0394 143.311Z"
              fill="#263238"/>
        <path d="M72.9895 51.4998C73.5934 54.6914 74.7133 63.6071 72.9638 76.5782L55.879 76.3146C55.7801 74.0491 57.5809 61.7515 55.9156 50.8337C55.8691 50.524 55.8849 50.2082 55.9619 49.9047C56.0389 49.6012 56.1756 49.316 56.364 49.0659C56.5524 48.8158 56.7888 48.6058 57.0593 48.448C57.3298 48.2903 57.6291 48.1881 57.9395 48.1473C58.8033 48.0302 59.8061 47.9204 60.7943 47.8728C63.0288 47.7446 65.2687 47.7446 67.5031 47.8728C68.2351 47.9423 68.9671 48.0485 69.6186 48.1619C70.4525 48.3111 71.2215 48.7102 71.8235 49.3063C72.4254 49.9024 72.8321 50.6674 72.9895 51.4998V51.4998Z"
              fill="#263238"/>
        <path opacity="0.2"
              d="M73.4578 54.6694L70.581 55.3831C70.3614 58.0695 72.1329 61.111 73.9043 63.4351C73.9222 60.5071 73.7732 57.5804 73.4578 54.6694Z"
              fill="black"/>
        <path d="M72.2755 50.0652C72.7623 50.9399 73.2894 51.8952 73.831 52.7846C74.3727 53.6739 74.929 54.5853 75.489 55.4637C76.5681 57.1899 77.7926 58.8208 79.149 60.3388C79.3174 60.5108 79.4821 60.6865 79.6504 60.8475L79.7749 60.9683L79.8737 61.0562C79.9286 61.1147 80.0238 61.1806 80.0933 61.2428C80.43 61.5063 80.8253 61.7845 81.2608 62.0517C82.1209 62.5824 83.0433 63.1021 83.9802 63.6035C85.8541 64.61 87.7939 65.5982 89.7081 66.5974L88.9505 68.6799C86.7844 68.1613 84.6516 67.5123 82.5638 66.7365C81.517 66.3449 80.4666 65.9203 79.4162 65.4042C78.8575 65.1382 78.316 64.8375 77.7948 64.5039C77.6521 64.4014 77.5167 64.3209 77.3629 64.2001L77.1433 64.0317L76.964 63.8817C76.7188 63.684 76.4955 63.4791 76.2686 63.2741C75.404 62.4677 74.5968 61.6019 73.853 60.6828C73.121 59.7935 72.4366 58.8528 71.7888 57.9415C71.1409 57.0302 70.5261 56.0639 69.9588 55.094C69.3915 54.1241 68.8278 53.1725 68.3008 52.1184L72.2755 50.0652Z"
              fill="#263238"/>
        <path d="M59.9715 38.0859C60.7694 41.0652 61.0695 42.8439 62.9251 44.0883C65.692 45.9549 69.1471 43.8138 69.2422 40.6552C69.3374 37.8151 68.0161 33.4194 64.821 32.8192C64.1165 32.6825 63.3888 32.7283 62.707 32.9523C62.0253 33.1763 61.4122 33.571 60.9262 34.0989C60.4401 34.6268 60.0972 35.2703 59.9301 35.9682C59.763 36.6661 59.7772 37.3951 59.9715 38.0859V38.0859Z"
              fill="#FFC3BD"/>
        <path d="M66.1606 38.1225C66.8706 37.0794 67.1414 35.4764 66.6437 34.7041C67.1085 34.8981 70.4611 35.1287 69.1471 32.7423C67.8332 30.356 65.198 29.6972 62.9032 30.356L64.0195 30.6781C64.0195 30.6781 60.8828 30.4512 59.3566 31.7212C59.8214 31.7468 60.224 31.7212 60.224 31.7212C60.224 31.7212 56.8642 33.306 58.3282 34.5101C55.9675 36.3072 57.5669 38.796 61.4538 42.5072C62.1309 43.1184 64.0487 42.8952 64.4733 42.5292C64.2025 40.9115 65.7616 38.7155 66.1606 38.1225Z"
              fill="#263238"/>
        <path d="M66.5556 36.0912C67.251 36.6 68.1111 38.0969 68.5101 38.8436C68.909 39.5902 69.3299 39.495 69.5312 39.7915C69.7325 40.088 70.556 45.1022 69.674 45.9037C68.7919 46.7052 66.1384 45.4389 65.7907 44.5166C65.443 43.5942 66.0798 41.3324 66.2519 40.8163C66.4328 39.925 66.3798 39.002 66.0981 38.1372C65.7907 37.2624 66.5556 36.0912 66.5556 36.0912Z"
              fill="#263238"/>
        <path d="M64.9885 38.2616C65.0833 38.6266 65.2503 38.9689 65.4798 39.2681C65.7093 39.5674 65.9965 39.8175 66.3244 40.0038C67.1332 40.3698 67.232 39.4292 67.0747 38.5398C66.9319 37.7309 66.7087 37.0758 66.0535 36.761C65.2813 36.3621 64.7213 37.3759 64.9885 38.2616Z"
              fill="#FFC3BD"/>
    </g>

</svg>
