<svg width="57" height="56" viewBox="0 0 57 56" fill="none" xmlns="http://www.w3.org/2000/svg">
    <defs>
        <linearGradient id="paint0_linear_19182_81679" x1="37.4491" y1="17.9309" x2="37.4491"
                y2="46.6666" gradientUnits="userSpaceOnUse">
            <stop stop-color="#86C773" />
            <stop offset="1" stop-color="#8AC27A" stop-opacity="0" />
        </linearGradient>
        <linearGradient id="paint1_linear_19182_81679" x1="32.0528" y1="12" x2="32.0528" y2="38.07"
                gradientUnits="userSpaceOnUse">
            <stop stop-color="#167A53" />
            <stop offset="1" stop-color="#167A53" stop-opacity="0" />
        </linearGradient>
    </defs>
    <circle cx="28.5" cy="28" r="28" fill="#E8FBF2" />
    <path d="M42.5006 17.9309C43.6052 17.9309 44.5006 18.8263 44.5006 19.9309V42.0009C44.5006 43.1054 43.6052 44.0009 42.5006 44.0009H20.4307C19.3261 44.0009 18.4307 43.1054 18.4307 42.0009L18.4307 35.6005L39.7609 17.9309H42.5006Z"
            fill="#A2D294" />
    <path d="M42.5007 17.9309C43.6053 17.9309 44.5007 18.8263 44.5007 19.9309V42.0009C44.5007 43.1054 43.6053 44.0009 42.5007 44.0009H30.3975V35.1133V26.2258L36.1004 17.9309H42.5007Z"
            fill="url(#paint0_linear_19182_81679)" />
    <path d="M36.57 12C37.6745 12 38.57 12.8954 38.57 14V36.07C38.57 37.1745 37.6745 38.07 36.57 38.07H14.5C13.3954 38.07 12.5 37.1745 12.5 36.07V14C12.5 12.8954 13.3954 12 14.5 12H21.7253C21.892 12 22.058 12.0208 22.2194 12.062L25.0406 12.7813C25.3648 12.8639 25.7045 12.8639 26.0287 12.7813L28.8506 12.062C29.012 12.0208 29.178 12 29.3446 12H36.57Z"
            fill="#31936D" />
    <path d="M36.5704 12C37.675 12 38.5704 12.8954 38.5704 14V36.07C38.5704 37.1745 37.675 38.07 36.5704 38.07H25.5352V12.9073L29.0942 12H36.5704Z"
            fill="url(#paint1_linear_19182_81679)" />
    <path d="M16.5 31.6667C16.5 31.1145 16.9477 30.6667 17.5 30.6667H20.8333C21.3856 30.6667 21.8333 31.1145 21.8333 31.6667V32.3334C21.8333 32.8857 21.3856 33.3334 20.8333 33.3334H17.5C16.9477 33.3334 16.5 32.8857 16.5 32.3334V31.6667Z"
            fill="#A2D294" />
    <path d="M16.5 26.3333C16.5 25.781 16.9477 25.3333 17.5 25.3333H19.5C20.0523 25.3333 20.5 25.781 20.5 26.3333V26.9999C20.5 27.5522 20.0523 27.9999 19.5 27.9999H17.5C16.9477 27.9999 16.5 27.5522 16.5 26.9999V26.3333Z"
            fill="#A2D294" />
    <path d="M29.0935 12V21.1717L25.5344 19.1174L21.9761 21.1717V12H29.0935Z" fill="white" />
    <path d="M29.0942 12V21.1717L25.5352 19.1174V12H29.0942Z" fill="#C1E7B6" />
</svg>
