<svg width="48" height="48" viewBox="0 0 48 48" fill="none" xmlns="http://www.w3.org/2000/svg">
<path d="M24 44C35.0457 44 44 35.0457 44 24C44 12.9543 35.0457 4 24 4C12.9543 4 4 12.9543 4 24C4 35.0457 12.9543 44 24 44Z" fill="#2EB553"/>
<path d="M22.3947 30C21.865 30 21.3355 29.7892 20.9312 29.3677L16.6662 24.921C15.8576 24.0784 15.7441 22.8427 16.5527 22C17.3612 21.157 18.7018 21.157 19.5104 22L22.3947 25.584L28.4645 18.6323C29.2731 17.7892 30.7118 17.7892 31.5203 18.6323C32.3289 19.4749 32.0366 20.8412 31.228 21.6839L23.8582 29.3677C23.4539 29.7892 22.9243 30 22.3947 30Z" fill="white"/>
</svg>
