<svg width="65" height="64" viewBox="0 0 65 64" fill="none" xmlns="http://www.w3.org/2000/svg">
    <defs>
        <linearGradient id="paint0_linear_2713_72702" x1="34.1289" y1="13.7129" x2="34.1289" y2="51.8081"
                        gradientUnits="userSpaceOnUse">
            <stop stop-color="#F79D64"/>
            <stop offset="1" stop-color="#F37322"/>
        </linearGradient>
        <clipPath id="clip0_2713_72702">
            <rect width="14" height="14" fill="white" transform="translate(29.1719 33)"/>
        </clipPath>
    </defs>
    <circle cx="32.5" cy="32" r="32" fill="#FEF1E9"/>
    <path d="M21.6119 48.4599L23.7888 24.8736V17.0611C23.7888 16.7709 23.8976 16.4808 24.1154 16.2798L26.2923 14.0477C26.7059 13.6013 27.4023 13.6013 27.816 14.0477L29.231 15.4762L30.646 14.0477C31.0596 13.6013 31.7561 13.6013 32.1698 14.0477L33.5847 15.4762L34.9998 14.0477C35.4134 13.6013 36.1098 13.6013 36.5235 14.0477L37.9385 15.4762L39.3535 14.0477C39.7671 13.6013 40.4636 13.6013 40.8772 14.0477L42.2922 15.4762L43.7072 14.0477C44.1208 13.6013 44.8173 13.6013 45.231 14.0477L47.4078 16.2798C47.6255 16.4808 47.7344 16.7709 47.7344 17.0611V46.2278C47.7344 49.3081 45.2963 51.8081 42.2922 51.8081H20.5235L21.6119 48.4599Z"
          fill="url(#paint0_linear_2713_72702)"/>
    <path d="M35.0685 22.9082H41.5991C42.2007 22.9082 42.6875 23.4074 42.6875 24.0243C42.6875 24.6412 42.2007 25.1403 41.5991 25.1403H35.0685C34.4668 25.1403 33.98 24.6412 33.98 24.0243C33.98 23.4074 34.4668 22.9082 35.0685 22.9082ZM35.0685 27.3725H41.5991C42.2007 27.3725 42.6875 27.8717 42.6875 28.4886C42.6875 29.1055 42.2007 29.6046 41.5991 29.6046H35.0685C34.4668 29.6046 33.98 29.1055 33.98 28.4886C33.98 27.8717 34.4668 27.3725 35.0685 27.3725ZM30.7147 22.9082C31.3158 22.9082 31.8031 23.4078 31.8031 24.0243C31.8031 24.6406 31.3158 25.1403 30.7147 25.1403C30.1136 25.1403 29.6263 24.6406 29.6263 24.0243C29.6263 23.4078 30.1136 22.9082 30.7147 22.9082ZM30.7147 27.3725C31.3158 27.3725 31.8031 27.8721 31.8031 28.4886C31.8031 29.1049 31.3158 29.6046 30.7147 29.6046C30.1136 29.6046 29.6263 29.1049 29.6263 28.4886C29.6263 27.872 30.1136 27.3725 30.7147 27.3725Z"
          fill="white"/>
    <path d="M17.5851 26.7722L18.6735 25.6562C19.0871 25.2321 19.7835 25.2321 20.1972 25.6562L20.8504 26.3258C21.264 26.7499 21.9604 26.7499 22.3741 26.3258L23.7891 24.875V48.4613C23.7891 50.2617 22.3843 51.8095 20.5238 51.8095C18.613 51.8095 17.2584 50.1111 17.2584 48.2827V27.5758C17.2584 27.2634 17.3673 26.9955 17.5851 26.7722Z"
          fill="#FBD5BD"/>
    <g clip-path="url(#clip0_2713_72702)">
        <path d="M42.9836 44.0787L37.3807 34.5306C37.1344 34.1092 36.6782 33.8477 36.1534 33.8477C35.6656 33.8477 35.2094 34.1092 34.963 34.531L29.3601 44.0787C29.2368 44.2894 29.1719 44.5297 29.1719 44.7737C29.1719 45.5339 29.7903 46.1523 30.5505 46.1523H41.7932C42.5534 46.1523 43.1719 45.5339 43.1719 44.7737C43.1719 44.5297 43.107 44.2894 42.9836 44.0787Z"
              fill="white"/>
        <path d="M35.3509 40.8712C35.3765 41.0762 35.5512 41.2305 35.7579 41.2305H36.5782C36.7849 41.2305 36.9595 41.0762 36.9851 40.8712L37.3953 37.5899C37.4101 37.4734 37.3737 37.3556 37.2959 37.2675C37.2179 37.1794 37.1061 37.1289 36.9883 37.1289H35.3477C35.2299 37.1289 35.1182 37.1794 35.0401 37.2675C34.9624 37.3556 34.9259 37.4734 34.9407 37.5899L35.3509 40.8712ZM36.168 42.0508C35.4895 42.0508 34.9375 42.6027 34.9375 43.2812C34.9375 43.9598 35.4895 44.5117 36.168 44.5117C36.8465 44.5117 37.3985 43.9598 37.3985 43.2812C37.3985 42.6027 36.8465 42.0508 36.168 42.0508Z"
              fill="#F5853E"/>
    </g>

</svg>
