<svg width="65" height="64" viewBox="0 0 65 64" fill="none" xmlns="http://www.w3.org/2000/svg">
    <defs>
        <linearGradient id="paint0_linear_2713_69907" x1="34.1289" y1="13.7129" x2="34.1289" y2="51.8081"
                        gradientUnits="userSpaceOnUse">
            <stop stop-color="#AFD779"/>
            <stop offset="1" stop-color="#8DC63F"/>
        </linearGradient>
    </defs>
    <circle cx="32.5" cy="32" r="32" fill="#F4F9EC"/>
    <path d="M21.6119 48.4599L23.7888 24.8736V17.0611C23.7888 16.7709 23.8976 16.4808 24.1154 16.2798L26.2923 14.0477C26.7059 13.6013 27.4023 13.6013 27.816 14.0477L29.231 15.4762L30.646 14.0477C31.0596 13.6013 31.7561 13.6013 32.1698 14.0477L33.5847 15.4762L34.9998 14.0477C35.4134 13.6013 36.1098 13.6013 36.5235 14.0477L37.9385 15.4762L39.3535 14.0477C39.7671 13.6013 40.4636 13.6013 40.8772 14.0477L42.2922 15.4762L43.7072 14.0477C44.1208 13.6013 44.8173 13.6013 45.231 14.0477L47.4078 16.2798C47.6255 16.4808 47.7344 16.7709 47.7344 17.0611V46.2278C47.7344 49.3081 45.2963 51.8081 42.2922 51.8081H20.5235L21.6119 48.4599Z"
          fill="url(#paint0_linear_2713_69907)"/>
    <path d="M35.0685 22.9082H41.5991C42.2007 22.9082 42.6875 23.4074 42.6875 24.0243C42.6875 24.6412 42.2007 25.1403 41.5991 25.1403H35.0685C34.4668 25.1403 33.98 24.6412 33.98 24.0243C33.98 23.4074 34.4668 22.9082 35.0685 22.9082ZM35.0685 27.3725H41.5991C42.2007 27.3725 42.6875 27.8717 42.6875 28.4886C42.6875 29.1055 42.2007 29.6046 41.5991 29.6046H35.0685C34.4668 29.6046 33.98 29.1055 33.98 28.4886C33.98 27.8717 34.4668 27.3725 35.0685 27.3725ZM30.7147 22.9082C31.3158 22.9082 31.8031 23.4078 31.8031 24.0243C31.8031 24.6406 31.3158 25.1403 30.7147 25.1403C30.1136 25.1403 29.6263 24.6406 29.6263 24.0243C29.6263 23.4078 30.1136 22.9082 30.7147 22.9082ZM30.7147 27.3725C31.3158 27.3725 31.8031 27.8721 31.8031 28.4886C31.8031 29.1049 31.3158 29.6046 30.7147 29.6046C30.1136 29.6046 29.6263 29.1049 29.6263 28.4886C29.6263 27.872 30.1136 27.3725 30.7147 27.3725Z"
          fill="white"/>
    <path d="M17.5851 26.7722L18.6735 25.6562C19.0871 25.2321 19.7835 25.2321 20.1972 25.6562L20.8504 26.3258C21.264 26.7499 21.9604 26.7499 22.3741 26.3258L23.7891 24.875V48.4613C23.7891 50.2617 22.3843 51.8095 20.5238 51.8095C18.613 51.8095 17.2584 50.1111 17.2584 48.2827V27.5758C17.2584 27.2634 17.3673 26.9955 17.5851 26.7722Z"
          fill="#DDEEC5"/>
    <path d="M28.7119 40.2159L33.6141 43.5271C33.7758 43.6633 34.0029 43.6925 34.1944 43.6032C34.3864 43.5138 34.5088 43.3212 34.5088 43.1095L34.5088 41.4324L43.26 41.4324C43.5611 41.4324 43.8047 41.1887 43.8047 40.8877L43.8047 38.7089C43.8047 38.4079 43.5611 38.1643 43.26 38.1643L34.5088 38.1643L34.5088 36.4871C34.5088 36.2754 34.3864 36.0828 34.1944 35.9935C34.0009 35.9037 33.7759 35.9344 33.6141 36.0696L28.712 39.3807C28.5886 39.4845 28.5173 39.6371 28.5173 39.7983C28.5173 39.9595 28.5886 40.1121 28.7119 40.2159Z"
          fill="white"/>

</svg>
