<svg width="48" height="48" viewBox="0 0 48 48" fill="none" xmlns="http://www.w3.org/2000/svg">
<path d="M23.9992 6C25.8896 5.9999 27.7797 6.94413 28.8873 8.83008L43.1739 33.1537C45.4615 37.0487 42.7281 42 38.2868 42H9.71347C5.27483 42 2.53741 37.051 4.82615 33.1537L19.113 8.83008C20.2216 6.94259 22.1105 6.0001 23.9992 6Z" fill="#F37322"/>
<path d="M23.9998 15.29C21.9325 15.29 21.5506 17.2466 21.6653 19.2621L21.9808 26.3947C22.4283 28.6234 25.5726 28.6181 26.019 26.3947L26.3345 19.2621C26.4493 17.0877 26.0679 15.29 23.9998 15.29Z" fill="white"/>
<path d="M23.9999 35.0329C25.2994 35.0329 26.3529 33.993 26.3529 32.7103C26.3529 31.4275 25.2994 30.3877 23.9999 30.3877C22.7004 30.3877 21.647 31.4275 21.647 32.7103C21.647 33.993 22.7004 35.0329 23.9999 35.0329Z" fill="white"/>
</svg>
